<mxfile host="65bd71144e">
    <diagram id="v6k9_Dn-X5KYkcoscZxB" name="Page-1">
        <mxGraphModel dx="746" dy="308" grid="1" gridSize="10" guides="1" tooltips="1" connect="1" arrows="1" fold="1" page="1" pageScale="1" pageWidth="850" pageHeight="1100" math="0" shadow="0">
            <root>
                <mxCell id="0"/>
                <mxCell id="1" parent="0"/>
                <mxCell id="2" value="" style="shape=image;verticalLabelPosition=bottom;labelBackgroundColor=default;verticalAlign=top;aspect=fixed;imageAspect=0;image=data:image/jpeg,/9j/4AAQSkZJRgABAQAAAQABAAD/2wCEAAYGBgYHBgcICAcKCwoLCg8ODAwODxYQERAREBYiFRkVFRkVIh4kHhweJB42KiYmKjY+NDI0PkxERExfWl98fKcBBgYGBgcGBwgIBwoLCgsKDw4MDA4PFhAREBEQFiIVGRUVGRUiHiQeHB4kHjYqJiYqNj40MjQ+TERETF9aX3x8p//CABEIApEFbAMBIgACEQEDEQH/xAAsAAADAQEBAAAAAAAAAAAAAAAAAQIDBAUBAQEAAAAAAAAAAAAAAAAAAAAB/9oADAMBAAIQAxAAAALYCUAABIvOxgBFSUJgAAAAA0AAABlaCwAAAAAAAAAARnplqNNKAAAAAxAwAmoSmmACjQNAMEMTACGIGgGCGIGIGCGJgIGIGIGgAABoAAAAAAAaAAAAAAABoAAAAABpghghiGCGgGImAAKmAAIhghoAAGCYAAAAAAAEXFUwgAABQBDGyqAUAABM7eZZIUSAxDEDEihBRKLJRUthNAOQbkKJBuQokKJBy2JXIyQokKJCiQokKcBeboc0EGgZmgQWGZoGbsILCCwg0RJaJbBMQyRaJCiUlkpbICyBLICyAshGhmyyAshGhAWQjQgLICzNlkBZAaKAt5sogNDNlkI0ICyAsgLIZRKLJCiQolFpAxMBAAxDBDZJQTQQJhFpVRKLICyALgKAUAABATEqQlQJUElBJQSVIimQXmMsM3YQWEFhBaJLCAsgsILDN2iSglWEFhBYQWzN0zM0DN2ELQILCHQSrCHQSUyGwTAGkUJFEi08xNDMNDMNFAW8w0UBbzDRQGhmjR5hZAWZhoZhoQFkBZmGhmGhmzRQGigLeYaGbLMw0M0amTNDMLMw0IC3mFvMLIDRQGhmGhAUSiiWMAAAVBJQQWElhC0RDpkFoh0xAKAIAAmgAAAAAAATVZVQ8duc3mkEVmXFgtkGLplcvVibMRGmegCBgACGIAAAABiaAAGIBpwAAAAAAAAMAAAAAAGgAAaBiYmIaAAAAAEMAAQwEAAAVDETAEwEFA0MCAAAKAAAgAAAABoABiBgACaBiBoAAYmCAABgAJgCAaAAAYJghggAGCAoBDQAElGcGz53Wz4tTc57NXiRqQjUzDQyDUyDUyDR5hoZspwFpIpyKxAxAxMBCMQMTAAAAEwBDAhgAAAhWIGADQMAAAAATAAAAAGgAEMABMAQxA0ANMAATQwQAUAA0wAgAAQNBQ0wE4AAAABAAYmJoAYCAaAGAAAAAIABiAaAaBiBiBiBkgyQpwFkIsChAoAkMoObp4a6s9w4erm7qwjq4o7JaiwAAIqbEAE0hNUIYqm5RlCwWJjRoZlhE6ogtmatEraBGgZmgY2AGgZLaALCCwxp2ZmiWDSUmiiVbIVyNWRm3VZssgsIWkAWLKtJLmxDQCRQIpCG8rKJCkszZIG5BmdFAhiBk0AIYpLAENkubEMJVyDbILCFaEWELQMqdkFhE6wItmZYROsAWEFhlRZKsiCys6LILUSriqaYAQJqgAACLiw4e7KtZqY5O3k66OPr5DqTmNBMQ0TcUGenMt656onNA01U1CWOVjTn6TPSLAAU1KUJiydS1NxZYEoBUhUmWuWqk1FmgKVgE1JYstc5dlUoVLVgBNTZc0S5aKiamgACLiywJQAi4uwAlIuLLBK0BGmWiDRKRU2WArEyGmlASqazsdTYTUyuHlZ0qSWnNVFxSMTlIuEppgmgmorQCAAm4ugFBNSU0xDBRclDQAEXF0AQAEaZ6UgIMtcTUGstMaCwAAAzqdCC0SUiXSOXR7VmtFAUEqwyp0QWEq5E1QCYS0WSinAF50WZi3KSW4YmkXBJsZsszYXlRZAXAjVSjQzYE2YT0yU5RVQFOApSGpKhaQU6yotQS3DizYglsksnTKyiRayuE1QgAI0y0GBKpqbKAG5BOWWSSqbVk3FlJEqy2izQSKcAVlZTgLgRbhlEBUOTUgiyCi86LICkkVWdFEBcJGpAUSgvOiiQpIJ0zsAAz0kGwlWAAAAAGdzYJgk0NyxoYouCwYJoi4sAFE0g01AAmpSwFTQTeeiJoVzUDaYACmoTQBQBIuLACUi4ssBWJkXFoAKJyNpgBAnNlgSgFk1FgBKTUWWBKJlZ3GiSURE6xQWpZKLMdFZDoJnSQKZBYubGgMEUiLmxKgmbgsYIaIuLAHCVTTaYAQTU1QEAMzvPSmJwJoVTVAEEXFWBCGEXF0AoaAi40pDUE1JQAACAoAAAzvOxkhUiKchRIVIixAxBN5ZHRPNa9JydCVU0DQpNQmgmoARcWggUmpRuaABVNSlgAARcaAApFwlppRgZ6RaAEpNTTaYA4U1NlgSgBFxYABFxZYEoAZ6Z6WAEpFxZYEqGqz1y1RAK87zNAcJoJqXY2momibiwAFNwlgKJpIuNAE4IqadTQABFwWBABUXFgBABSqaACCLzrQAAIipqmIgAIuLpoIJqaoTgBANUAAAReeggAmpG0xDBTcFDBKg4tI7DB0jPLsDl6DI2MtQnWQWiJKZlaolaIidYE3RCtma0kCwgsMrVkq2ZrSBlBJQZWUIbIVoTbJKCVQBQSUGdKhDBTclAhiCdMrKIC83JqQFqULXDQolF5uTUlFkoZLLUo0JBXnRQkOXJohDEE1NgmCnSSaKJKZCuQLCCwyool0ElBDdEFhE6SNWGZaJbZJaJKZlRRJaiZ0VTSoQyBNUAKAJnpnoJpimpG1QgAzuDRMATMNDM4s+npWOhpFUWGOwvO+jnTd82ytkk6Zao0CqblFeeioAIuEthKhpI0y1oAled52aAKAEXFoASk1lZq4pWIBCS0ErEE3ndlIJSXNmgEqGkjTPShBKRedltNQaSLz1BApnpmmgCgmQ00JvlXqfP0JF5ag0KTWaaADQGemegCY5aFUUMTCLzNU1A0zO89KYnAmqm89AAgi8q1AgAIpFWmQhoi89KAIJqQqLAAQFAAAGWmVlEhUiKcMogKgRqQiyAdY2ZdGUHSsqHeTNHkzTMk1lMi1mVrzbGhmLpCSO82WQLUEJuSlshka46JRJLWV52bEi0JJOmWg0grO8y6ihiSuXCbCIYio0z0ACVZ65WbASiarPXLVEDlnPXOzQYomkz1x2AEpnpkmoCpgQJpXP0BloBnrlqCYPO8jYABBGmVjchSSFeVlkBcEmpKLIBaY2aGYaLNi1ws0Mw0zcGxCNDMLUo1ebLUhGuNlkBcoC8qLICgAAAERcWMQEuSnNAAE1JQANIycbmGmXUvLe3Omt82xblhF5mmK419Qx2TJXZncwaywVTQhypnokbGomJFRoSUSzGudlqiWSkZaRrZKslmNYsY2SULKYjViw2zK1omZoGcb5jViwW0ws0MnTIjaBPQMjQMaKJdMzjfMCwzdhjTog0DJ6IytaELUMlrAzREFhja0M3YQ2zO5sQyFNxVgyRhnc0MAACNMtBiYRcFgABBFRWgEDl1F52MFDBUqiwBQAUAAAZ3FgAEXA2MAAz0zNABKg5tc9zz+1bAgOXbHci6Q83mbeV6kLl1pkaZ2jQ1ynaELw0LmkSqksHKmmZaZ6WNMlmNITSWKNMy0jSwAlIuEsBQAU1NlgSgBGuWqACkXFlgSiaM9MtLAcyuamzRClaZWdRoiaamWuKag1QBNRaYZ6qXoTVkaRYxNTO4TRADmjPTOwBiAIuLGJwo0zrQCAAzuLpggTRGkWMTCLzNGgaCCLitE0ABF56ABANVNxYAQgKAAAMmWQWzI0kktkFhmtYAsILDm2x6SVeYywwnbA2dhEbQStOE7KzY6y2AEOWgFRlbgucNDcgLIBaZUaGbi8ya2UEaGYGmN1Zm4uCa0ebLeYVIjQgLIA0yo0MwuSTUgLUAtcaLICpSNiEaKELXCyyAvG8zcyDUzBaY2USGihFXjRoZsvMk2IRo8wLxs0UBakFcUNoHnclghoCKVAmElBla0IKCY1gboJVsidEIsILDG1oQWEFoztWSrYgAABNEaZ6CACakdSxoAi4LABoOXq5OsXF28h2EWThvgdSYqmoS+XrzHeOxnSsQ1K0iwmsBdPldxtjtJnq811WOqTpnpAApFwlgKAEXF2AEpFwltFNAqASgJQCyLiwacpFTZYEoAkXF0AKZ6ZpoACaM9M9AAVZ65JoAABncaALM1VSK4sABRcGgAJhncWDAACLz0AAedwaJkICpaYwATRGmeghoM9MzQAGgcVJYAAEXnoJoGmiNM9AAAAAATDPTGy1AXKRdZMsgLgk1JRZKOfr5egvNspSE51B1EhWd5miYMQRpnoAEE0qmkzHSdAi4LADHYOXpzk3M7gmoNAAAM9MtaAJTPTOzQAAFQCUAAIm89AAgi4rQCUAsi4sAFUXmmoCgJI0z0ENKZa5JowUTEy0y2M7THNSK4sABRpmWwAAzuLGAAIjTLUAAi8zUQNATUMoAARGmdjQBF5mgIYgckmpIUSE6Y6FJAxAqzsokKAAAADO40ENBNSNpgAEXBYwU3kZ747iK5DpKRzuOgCwhXI1ciOPvM6VkFhBaIdcxtEdJmtIGWzM0RlRZzztRE0inYQtAwo0INAzjfMZTILDMpiLDN0GVqySgmdcyimQ6DK1ZBYZxtmNaIh0zK50JVhGe+RSsILDG51IGyDRGdlkFomNZAsMzRGVFkFszNAxtaEFhE65lFBJQZtsRQStEZWrILDNa5jKZCsJnSCigkoMrnQkoJKRFxoIYAADQAGemdjTQTUjaoEwUXBoAGG/OPbPQjz/AFOYvVo5Ovk7ABK87hNOPp5lXby9RF56IAKKpQx1zDbPSUz0iwdAgREXoeR6vF0rtjtCTdTFLNBrhvTAlMtcrNGmoAkOaKAUTSRplrAJqRedmoA0yIvPSgBVnpmmgAAGemWoAKZa5poAoAmWmWxjoCtVKK4sAAzvM1AAAz0zsABoCLz0GIDPTJNhNQAkAoAADPTPUQwWemZoAIAU1BqJgAZ3GggAHJOmegmgY0NAABlSskoJm5GwBoCLksSK5t8DW86LIC1Icvbx9RRKLho1UoWkAtM6KcI0mQdQyiEaQkavMLIROmdFmIbZpGxCNVmzNlFVzB05KTd4s1MgdZM1eQarMHphRqsw1zUnQZhoZsNMLNDOTXNSdBmjQzA0ws0eQaZPM6DMNDNC159DWJRtMSaXhZoZhcEG5mGhmh3jRo8g0MwNMLNDINciU3IF0MgpwJqQLZmxaY2migW4JNSEWZouCa2eRGpkw0wtNDMXRTIa42lmbXQAAAAM9M9AAFFwW0wEwioNAA5ermNbmgznlPRUhz9fN0gApFwl82uSvpBIqLGBAmqQqOOV1LrNQlsIE1UJs4+vj6wjfMslwwDO40pTzBtl05iq0N40OosbCBNVNxYAQouK1EwAIuNBA4WemdWMBNGemWoMBZ65GgwQ0Za5agLI2mkKpsQ0EXmaNMQBnploMAARGmegABnpkagAAIAbQMAz0z0AQOKzNRMAQpqDQTAAy1y1AAE0RpFgAMAAAAM9M7GAEVJTQMQPO5LADn6MDSpsnm68jTDo5DXbPQAFI0zTTk68jRgZ6RQwATRNzRydUWEXJYEABnSuuSugFFwWmzOyIWmG9cOHphBrkaNOCaDmuqorOY2mWF56UAQovOtgQwCNMtBgQouK0TUCarLbHYAJTPXKzQGqATHXLUyKk1TROmdgAGemZoAABlpnoMABMz0z0AAMtcjRgABIIsAADPTPQAAzvI2aYAExclMATDLTPQYATSJuLAAYAAAAZ0rILCJ1gCmQWiVcjVhnnvkO1ZJXOac3bxm9qyHQTG0AXIimZUUS6CC0Q89yFoiFpIFhBaM6GSaIznWALCCwwdsh825edobpkLQMW6EUjGennKssgsInWClYSUGdFklSKdJGqCVaMtJ0JKQZ6SUqCSkZXNklMhaSRRZKtETpIywzdMxo0MzREOwx0LM3YRntA1oGK2gRTEtAzNAwt2ZGiIjaAqglaBmtJBaBmaBhbshaBmtZIudTMsGAAAJom89ABDioLaYCAmoNABZbYGlxZPF3cS9nNdJdxQwFIuEeUdYAiaixoJWmk4e/k3rOculdZqUoagaCeXp4K6ts9oM9M6sAADPn6KPO9Dj7xYdGcGkBYBAnWS87c9KM9TLo5umAAIqK0acomrJvOxoFIqE0BSsCovLVBDlUVFmwgADLTLUIeUbS0K87GJhFZ1q0hiCbz0GIGCJ0z0AAMdsTVywlhLlmiAACLz0AAUaZmgANMmak0AAGZaZ6AAE0iNM7GAMAAATRF50WpCoUmxAWQjSEjYzDTDTE10xsvNo5+ri6x1lZZmGkJHP0GZ1GYF5UWQGkyid8qJ1zC4JNSEaGYHPtZzdkMrNwakBZATrhoc3ZjcXlWdb5sHWFwXldYc3ohFODLq5OgslRUE1sS1pSJOmOhRIrzuE2SUtCmydcdQaFeWmSbCBiRnrlRWWkQwVO8qLICsqg3UhTgFpjZZKLIA159DQzDTGszV5s0UAyGmpAtkIemGhalFZvM3eVlkIpJGpAWQydMdEsgWkpC8rLIDQAAATRN56Amgz0gsAGgIuCwBxYYb82ppzXmbW0TU2JgEXBY0ABFzQAQAqGqENQTU1QEABnc3QDhZ6RTYAAZ3GghkKNMyxgo0DDQqk5UXlWQ95upKImbirG4lUGdxrUlEsxrFjVksFiY3OtSUSxG2VlFhBaMbnUhaBEawTZRKsIjSCm2Q2zK40ErDN0iLz1AYTGkFjCWwzpMbGJUjPSLAaFltkW2EtslNFDBDDO40EMBVJFyygBgACGgI0zsAAz0gsAAAi4NAAEENaGegKJpJuLAAM9MzQAACLiwAgTQrmhABFxVgSgJI0z0oAlIvOyxqACs9MtQAlM9Mk1AABYvPSxiJSNM0ppgATNSaDBDRnrnpQBBncVoBKAJlrlrQDlWemVmoAJhjrlqAAZ6QFKhDQovM0BgAZaZ6DEwmpM9ctRoYZ3BoAJgQ5oppgmiNMtQExZ6ZmgAxMhgUAABlrlqAATUiqaAAoAQAJozoszNEROsDKZBYZzrIFhDoMrVklSIdGdFEFhMawUrCSgytWQWELSSaKJKCc9ZApCMegy0mxDBRpmUqQDRlrnoCYGWsFpggCLmhuWOKkdSFJATUmhLGhC0zooyovOoNSAtSjDqxs1M2VlcGpAWQidcdCiUXmZmtQFkBWdSaPm1NCAm87KJCpck650NyFZXJo4YyQTlpoQyiQjXKyiRazqU0ci0SASyyQbgJ0yuyyCWpSKqGUSGgAAAmhVNAAGemZoAACqalLAUASNM9Bc3TktU8U0uIXYw3FDSaEWAuBezTm6UAJSalCoqmBBCzroz0xh6yybz0oAlM9OOzrOWpejLVJnpnnXSGMuueeKd5zdCswRreelgBKRcJYmAAovirtfPvDMczdOjLfOlec1ZRmS7p4otebWtRkqz0zs0GgyfNG2/LpWxz9AuXTI6BZnQLE2isjVsiOXTCurXLI1M+kaaI0z0AAM9MzRMEMM7i0YCg0Z656AAGemZoAABIBQAJhlpnqIGKakKTBoGAAAJoVZ2MSKzvM1EDJBxUGogYgm87HhtKsQhjrRwejydJnzd2AuqWHL04GumVlJCtEo7zopIMWmb5XMWSydMrqiSV8+8WBZCYVmjQrm6HCw6Mq0acc73CLiqYEPO86ty4YgnDWqWgQs9VU3FjlkKNM6WjIEystc9QAlMtMrNWmLPQjEelTYQs9cqKGPOwWO+Zq5ZMbBkGgNA0ZFXnoA0GemRq0AAZ3FoxiiETploMQPO4NAAAJAKAAAzvPQAAioLc0MAAAABNGdFkqmTGuZSsJVhC0gZQSUGVzoSUErSSIrInqbJjWCikJUzHSNBKglWiKKJKDOdcy1YZ03GdK6ksInXMZTiFoqypWSWRMa51SpxJQZ0rqCwmNcwLZmaEZFlIsM3aM6LINEZztmNaEZrVVjRRJozON8hjZK0Zz0WIqoynfOpLoyNJFGkFFhBYZUWQWEZbsyp2ZmgZTvkDsIWoY0WkO2uS1RlRomZo1ynfNA0FzNEZrRCLCFoGFmiZrUXKdoRGjXJ6AxMAAmoCosGmLPTM1AABVNSlgKAJnplqACiaRVNAApF5poAABnpnoAEE1IVF0ACz0g0AhMCLz0oAlI0zssCUATLSLpgQZ6ZGogYgjTPQAAi4LAAAkTKAUTlFpnYAKRWdmjTgQGd56U3NSmWuaUhjaZjpnpQ0Q40zKJoSqRxeZo0DSZGmWlMThNBOmelAIM7g1BDQGemOwDAmpJ0x2BCKiszZMEMIAKAAAz0z0AAWeuRo0wAGIGAE1IqzZZmGmZJs8w0MwuEjYzDQzQa40aGYaTIO8aNCEaZkmr5djRQC0xo0Mw0mcDprDQsgLzcmpAWQg059iyAvNwbKUWp5jfTHQsgLycGpDLebhaZVVmfOduZJq80amaKeYbGYaQkO8qNDJl5pGxkjYzBa40W8w1yEaKQ0MkF5WW8yLgir0yDWIyN5kKIYyaHrhRosw0eYVrz2aGQXm4OkzDRQha4tNjENZlD1wo0MxdMnKbvEXYyCiEmxmLoZgtcbSzMXTJ5pu8xdDMNRMAQ5chU0A0GemZqgBoCag0y15jSVY7zyOow2Vy0iuLAQr5znQ9DFG4sS75esS55jr8/RV10uQ7SahTU1YEEvkH1cnWKuHtHE4V2CI53tRjfLrXQouDPTI1BDaZncXWGHdzR1Z3maCBtMzmilqueOhc6Oi8maHL0BnlrWuc1GizRWvLsaJYHRF5mgIaaMtcdqAIeWmdVU3Ecd512TFlscIaM9M9KGATSJ0z0EMFnrmaAxDRncWMGJNEaRYABnpmWMAAkAoAACLz0AAWeuRowAAAAACLkKTAAMtcjUAABTSL4+yDKnRGO2xz7qgmpFcWGdhwHZIYdeQ+buDk68tTnz7VHJ0aQPj7HQwVRcJoCh52GeudmeqZzroinnsQwDkXQ6y6IqFnrmaJoYBnpnoTGoGd5Glc3SABnFVWmehGL1kWWsBT0MVpFFMhKmYbZ7E5birPXJLGqAIx1y2oEQ89My2mRTBZ6Z1qBAAZa5a0NA5qSdM9AAFGmZoADAy0iwABVBOkaCADPTI2QAAQ1QwAAM9M9AaAy1zNGgAYgFAEIuBNsgsIjbMZYQWGZYIsIKRnorINAzWkkOqMzUM89+Q2pamZoGNLQzLk4+rn6yXOxmaEZzrNI0IyNMCqd1C0IiNopKsY1DQxp3WZoRlO0UjQjM0DGi6hwQ8OzMmrZmaoydZ1ZbiFpNZVVErRRE6xUzsjI1DLSdCDUjPPfOhakZGqrCnZm9HGM0qGaELTEqGFGgZhIrw60g0FzLDK3RBoGc6wDsILDGnRBoGZpJnRaQWLnO0IOmsLRGVFJJYsFBnRSIpKo0lGMUTBgDQBFwU0wADPTI1AUAFLlNMdeZdhUK88U6b5OocuCrzsJeErwNbNsbyOrn6cTn68tjny0tdcujCTm9DHYYmKKmtAI5VegSoOiaxWnFJdYdC48++KdGvN00ASrLXFLaFoBIqNDJTutZ3yJ2NMQwyrPWnmnDzrM2WSOkx0Vzz72WlpE5LQx2xsd8+66Z6YpuIAAy0y1oBy5ztklVLFwdeJjua1q04w0pHN0xVU5cIJHeelAEGdxWjljBEaZ6DTQ4uBVFjEDzvI2BDJBVFFCBoQrz0AAIvM0AAAQAAh53maOGMSKyvI6CGUQDlSbcXWGGzCNMtCNoRpKku8aNFAXBJsZhoZsWuFmihGkJGlYs0IRpCk3UIdQA4o1MyGiarTNlwgjfCjUzUa4uK1eTjR5AaY3WhmRmUVs8g1WaKrGjVQo1iZrOqoemZDSmtnkGqzBaY2GmYaZPM6HgzZZoNMaNXgzbF5mzyZqZo0yeZ0PENlmBeVlPNlwSPTGjVQRebityA0IBaY2W4C4UlVlY3IPLTJNyRWARUWNoHLQtMtQBDy0zNRA0wkRKwQRedjKZKsIjXMsoJKCFSKBqDUmemetJphNwOkxiYpuCxyMTIvLUBA5qR1LGBCi8q1AgAJqLByx53maiRRITplqAJTPTJNABiDPXLQbTDLTI1EwAIqLGIGqgpxQ05CRVYECqSNM9KGnBleZomwGjLXLSmmQZa41dTUAAZa51oMhDki87oGQpuai1ZIyFFzWibExmdzqQWGc6wSyiC2ZxtmlLQXM0DC1okO2uRrJnTszNAznfNEai5GoZORW5YZ6ZpblgJqovNNWhWhkoSW01E0Z74apSEtZ6QlVnYwAi4NEwEwy1y0GmQRU1TTACFFxVuahAiNIsGAs9YKGCGiNcrKJY8dcq0E4QJY0i0bTDHSDRpFAjO5ZQA5pVNy4aYZlTVDUCGZ647UARMXBqAEtGeuG1MCDPTKqpOGALPTGugRBLRnU6UNEEXFLSaEBCm4rQThg6z1x1LJY87gVIE0ys7g0TQAGemehSaBAKosaaHncGjQNDMQFAB5AlMAADMDRgowJkEtgrQGegIAK5BHQAAEAagCYGdgMCDMKtgCCCAqmECAjQAYBmFaAQgDOwBgGQGjASBZsEYAswNGAAEMCmASAqAbAiANEAAGWoU0EKArVBCYGGwUwIMwqmEAAsArawCQjPQKTCCAp0ESwozA0YRQFZagUgEgAATAcAaSA2EZ6BTQEgCoCkApA0AGgP/EAAL/2gAMAwEAAgADAAAAIfLATATdffUbbYdsTcffVRblPPPDAJffLHBCNjnhjjhijjjnvtvssspssvvptvvqmmsps4wog89x8413/wC+yPcINjygGXX+aobMcfV2mEGEE3kfnHXn2112EEHGVX3VW0UjDXBz3nnXnHXnXXnnXl2n0kUEkUmVEEUFk2hTgEOuEU02iygEkVlmkEXnHWEEHWkFGGX1082knEVU2101m221HCEEVGFGFkWHH33HH33lFWUmEUkzxGWDRQwGWgCxD3iDSEWnj0FXEEEEizihywSQCSgwAQzjzizwyqLLb74abb6764qZrLaaqYMsLuNN3UMMFVt++NvvsNee/wDLb/HLH3v7TTvTBFd5Lou0ulhNNFlJhVA0849t5xx513DDOOymWe6S2W+euCKGuaqqWGw8ICiOcoKG+DHLvzffjPDH3PnnHDDL/rHBc91rZCWcBBZtR98pgxZNZddxB5xhxBB5w1t5d759dl4BhV51R9xVRtp15VhNd5ktYpxIEcwJR4FENJYf8w3hpDV99/3XqjsJ1tA5dotk4gAtdy1O8T2tGCFWnmSR6Ce+BCmBCBEYtupUMdC1x+tOANK3zXZT/BHrDTbHfF/PBvHS+d99KHP2uKN9xxVZZxd9RMpxV9Z5tRRVZ9VJhttzl9epOBlEZV5typ9thexJKtBBIhUBpw7AwBlpBIJl4lcowQht995zR5NZV5VB89U89AsJsA04tQp1+98IhQoUeJi5N6F6wtzlmNntJ5ANdlxZ9BVkbgFXA/79LXhvBLzoHL53rXv99x79zx1Lx1doZ1sloABcldspd9xAFUghO4U6NCq++Z++tuBCgJ8M6upoQUohAVYLdhFE/wAUP+QQxIQ8D68H4U99faS7XzVT5XZYTdRUVWZXceSXRfbWbbTbSeQQSYQfXYRQaSUQVb9WXRU1QTRblbUlNOqLoMFrLEEeAdQNedNuDT1fCQqb+fW2feeFXTJTJCXMbMNYt2djfLFYrTAHXnlWqQt4WpeNeXGaOKcKcYBfTYFQQWbF6yi/Vc5e5/E93J117/daTigm87heVVYVaU+QcTHZSDVLOdlfMcWYeRNQ/QYtAlKWjYFSRKfIHaUfWVsfQrVHEKMMKgGLjAvPZKVcsUCBffTVha29Q8ZZaPRbcSIQdcTZOSHWetWpuUnXTHUJKYQTCece4SWqU7bY8ZfkRBTQMaRf+CedJcTCQfYzEzXP5VR/VQXrR9xVzcSYSdXTeJJWOfQcWilQv3guTvxvkamoygSljZoSlFQNcMAXvdSGPfZMWXS9L/2hadSQZX9VebP9WQ7VQVu7nj5pZTXf67QJXWdZaUbHaVSzWzzO8cZfeYVRYQWZeaAXboUjZesb1u/tYHnrHIHpGKnJOveou+sdQhDBmccVYve73V8bfVeZULYQSUiRRTTGYwl0slbu7XPSgVaidqxQBQRfSNTTVZdRSbwWToSWNTE7VCVaNQEbXpcQLVeMabUam4jv6tYc2TdTVubae2SeWcUZR6ww2fudfIfRef8AXKnUi0AUHR2hFsVX3naGnQGGJEAVmzmWZ2YUH4U0p3FIH30FrWp+0rG1rGW3Gr30S31FFXnUn1SVljHRmnkGmQ0TmEUEZGF10Z00pn1IXqf/AOJ4qJyFNgdVk8o5ZWx1yxxKh91hGVv7RrBdXV1xEZg0d815eRh1tAJvbpCdoB9wxLas9TJActBd8bMJIsh5RcVBl9dcNvZxU984xtJpmJVSdlht1dhey+euCHfe/wD89clQZ5XEJGoZcOTNWYDeKRZLSBGXveTivjbUrZtJGvTjqYjZAoMupG0DK8Kq3ogrtPun1hiz/faQgf4yXzUdSUTQOUAXQxWcBYxZacQ7+bbGeZYwXf8Ah2lns7lV+XfEUyElHW6mm2E272ZX2j0HrwokUoEGLXnD33204Eoc1sFVPXWETXWEcFHEnkMPHn2mO0GGsf0tt2twW00Ohfml6XilCUG32NX3AElb2qHWT23oEz2Fo1lZHkz31nmJfbuc9OG0X2u3SEk2GXJV3HW2G330TxglHAX3X2xV1kWplX/FdmURmTwWKBiLUKKJpLi4DqpZ67C45ZpRygz2VUoUuk28EFPyWVTkEVF4MnTne9k9H030HeP8h2W9smpV3zW7hFpUn2hdOv8AFB1ZNlxhSldsd1YtwRp0R5m95EVJhVybuS3qP1yx1ad6DNS9MwNIhNwZIdp0DRdf9lgNjI4dtA4elJkUxhkXpN9sVtYxgmOeeYb4mKWy4EGw4TMkcdBBVKVadtD9VJJ95h719l/tR3lDH1bRtNZDHzXtrTB7EbfJCBejZCgxlYRdhRYppJV5eIalgmpVulOB5OxUy9BoBBFJm9699TBNhgF5BY1dl/rj/wDbh9fjd/aSl40mTp//AM7POENn4uFqj1GgFnEU30FF0HhkimVonUq2rx2C0GLXWS0H3lLeokHoEW0XnT05EWDHVGljnmhmRWUh1BG3Q1ixVTnVHUJ2xxnBmwLF4SxwQD4zaKZKr79uMfauJYri4VL4rr32kEFE0DvT0HgkAzEEzEJe2dHMdlKHLOHqtoo379+/VMvs5lIdHb3VNSXXE2VfmxV01EBHCPTSAFR3331Frjji3X2MJWDH3NHFMR3WlAm2Fy21ngtOU7z/ANo7lzXVzVX/AKV6YT1b8YcnaS9O9bZTLQVbSVdQJed8DDjWlfeDQVtPPAUQQemUsXZ+cXBVSVfBWaHWZbfOazcVG1RMzH7wPRHM0BbTRZB3BKXCOMC8GASBcaAUFDDrGBwGn+N0tlrDiyKwrCQVX6egRPQASXOccLfeYU0yYeA43fofr/Q7zz4440y20px/ga2zPm065B936x8wxG6wZcBXbEVGEIEcSOMNKMGETQQQpyqSViR4DWbRQqUTOUOeVGZGEREdMObOC4OTJABAXEGCKJZJWMDEF2OHKIFJrOLKNpHN/wC8eAM46eobPheAQkUn/Xt22VGVUR2FxEU1m+1EOkNts8VOcVfNevUP8uuzudftE/edeOdOj9ju0nvcy12jFBnX7ii5QrzxTygyzywz33nfV9H3lV3nkUl2Gk1WMcFj0eu+slN80fNdPPMs9MUf9Mt0/usJa2tg9du/wOuCUWg2D2GLyTpwRTzzigSzgzjDFE53bGWsGGXEl3EhHFXF1GMgPPANFtOEPgONkPP9dTsU1cVHwTNh+xSvyRgzwRGGSSACCxLS6+KOpSvDRcYvRTV33GnXjx0ByU0ml5G3X2Qt8sEPtvZsJuEL+QVuasvOA2dO6X9uNqcOszqcO/jttTf/ABzYdosVUccUxd0UcAIs1xBFNF19JBexJpVttdI95ARwE1EV98Dg5oEnAvv4P4hUA3tZHM4U4wgJU0IUoF0sUYJUUXIAEEoMconMRUU44k4cRe2hRVGxxy8z591lJh1x5tpFD13zDHTH/wA5p9xwqz1+9v5z1xc94K3056ExY3/F18KyaQyELCKODOP0OMYNvHI9IBLMaVKfOD6PKVMXdc9UTU2Ve4U/99+85xz0AVN8+z5/h2Zz4Y+yQ7yz4Ixc4wBy0J0cc8OqNCSPISAfRAGHFEJGXHHfQf4AH4AAYHQffQQXQ3Yf4P8A/wDjAD/ffihcDd+C+eDjfj+iD8f8fig+A/jc9DA/AiBceg8cgAAAciAA88cc8c//xAAC/9oADAMBAAIAAwAAABABBkPHxdXn23FrM3EWGmELlTxTQxQiPSRwThopL767ao5oJL7bp55Y777ZKrprapprLbue6Ivsdveve9PNUKv7sUBQ2JKx1mWgQTq4a4qLYLKT4osfv7sNLIbuGh1WWG2zjH6rn/WD122PZranOxIPhY4o77I6AyxAC1UGlTtbjASwthTGnzRRQ2/fqrpII6IZ4KY6rSpKrSDrQxSRkkEWXCm3tO93f88CSRrJLqLx5K6IDa6feKqvFmEDD2U02zVVFiCAQGEVnnkECxjBDAQigSgzAQyyDCjAzp45LJIJoq6LL6qJY4p547fcrf8ATV9TLxpnjTfzbDjXvnnLf3Lb33/fD7f15VZiqtk1NWTqlpsFthEyiy9RJFtpNf77CSCuqi+qS2+O2y6mGG2Weikgs+euIY+qG/LTPzfH/wAz5+z4omrvtqo54WKYsGkv2wUe2T27jwJcvWrsVvZTgUn7xhC2TaA5awV5BZXXfUygRigPp/qjvr6u2U/DI4eexhkem0DN/sSUgLS1fZYCDJwrydRdIfSPsEKgK3RociK2r7lkUv8A7JV6Yordbp35OwQmatAiG6UOb1bxTpJf+AfOCdcOc5ePj+OzNvap3mE2Qg/3m5qqOtuuqd+p7vt9aKof+Jv3j0VfG8tV15crHPR42UYJ3M94IvZ7vOT/AIJYULS5/E8MMD4YnczT9hMRt9HwTue5aRV+EnW87MsPoG+k+sFf+dYY+omoyhaBZGtOc4jzeP07JrwbtRvxitkdvhwPJLL67qcTWHzBPW832iD5lP8ALuJtoC+5uP07LnCAXCSUIJSWwEdAFUrPOt/jmopbguWl6vK/Gsrh+DMAImFUy2EOcezb97NP13YxSsvXmDtlcU4G7LqxCzy07xz6tzxsz124sArkbn69iXrz5wUTqTCSX9Uq7yP8p96Fjrt9VjnN0/UQMx3Aw0yrwnB1il1+eClfI4a+EpXMUR//ANuyezAlxlgjupedpNTyAr3wwHr61L0qedaKzEsydCzehGuC6FGtlAihcatTsXA878uXvIVtKL+nke82lwAn6g6N6KsjN34Qv9R6Bq+r7Ker1a9YK8mU7NZQcrpgGIQ6izZm3LVll23oOI0LkNoEvTPQ95voKxrdK6EGdEfigFT2Hni8O2LwHy3385rgE3JUYaT4E0AnwhMFKRhMdzPp2Yh+/QqoWq+QT+TDhKWgxNhwskSF9eOjecCi+HnuVtzhsSH3WF/rEIhC5gG0GHrq1J9opzJtIZ0KYuYUZ4G5M6CeBnAweIu9h/kk1mSAfeu+XXzhH4n9LHXuuQStGmufifXy+oY/sjzDdsf5d5ruu5Dhqx74Euz2441jZyrvaqbufQl7F5IErzHhc4tBVsedBXcAvtEr11ijZrqlNVq03cnuSw8w2V6kcphoH2BY2HOujmsIO45BIc1wHYGHr0oPkBYl0YTaHloXEvXjFHHGC/ltt0uU2OH/ANlNZNPl8bNVRbPMXDoX2+AYKWkJnfyHlAp2JVkHqnTkC0NcVBhd3YeVF0+8lv8AJoEaLSGhcbVfxbOMNyEDwMJcgVriHjJGsnQkQQ9RmdO/Z67YhnkCXoq/TjtYhAhpP6ht3Czpkgvqzp6oukhRvDg8TJCYrqdi2JLet2NogpnosLzcqkkAiDeEjWrcT51/EEyGdeHe9tHiEAuNS4rKZaoYG24BtTPaXLWyj/U3/L/ST7IAJW3NJ6TxbQvS/wA2ER0KE3pF6X2jmnFWApnV1/enOc/vyD0jTxqtZ5C6utsEiQMbvIxlFchxuBU1kD7pGF6Y6WM9NP4hXVClJfUekZqrL+3NVdXwl0jWkeiTPhklOkOwj8xH2K2mczZgV4vG+O6NFrXZ9eCk0j3iNEAP8kVLtXtkilC+XN25LUmH1p3TkAjTlO2CE2x4HEEDKlZfW1mPeIkQ9BfvTd5fwIGmQ0yzFxstJmom/Ddz/vCMKh+dXG4PtdWvaYgUe2yTlTGG/HwFVSB3v3imAbAmmFbyQQtEGUevhMhQxS+Iuay9PLIqbIXq4Bx6S5wBNlmhB8iiyhLghJSENchUSa4qitNz2OP1z2SlwGNw9XJm6wdDF2BPL5vFneucwI2Du0was6DYcVR4u8TTOMTNKHkrRr8ceXCqdipXEh6bSmquHltf4rMq1HJXCxmBbmtVmdCMTEuUH13hGHd9PNAlHy2RKV45EZnmC9FWv7cyTHlfRi9vQXJ7gEQZfjnpz9Z2LBczT8Li5wogC/RNI1RVe13S4UDsPgf/AHJ12o3zPLX1SNU9F+9AolA1lQDsQ3YDrxLeR7O/6ffw/wDpIjY82AlEq2lpwDH8lohjyCLkrndzGq3LqlKpmgBXu3MojxIR3j86bxTAXbrOZVY3dVB/ov8Awq+T6aMH6K5f6gaL4t/cf28CqMLocXn/ANw0ViRFmJOfAaQgMsCcIIXqvRu4J+PdD/e/wpOi3Kq+VSPwFSKPw2sAXxgDkD5IX5xR9NQj3YUckEcFsLmk/qHMkwrlq6tUxEK9WpQy5heZ3wR8DRgBsQxvPGSNOx8gMRAYXiAi54ICiU7Efvt+dO/6GveCYe6eTUXrLqoCDUaq13nxcgxIf1tAK65DU9pdhWI7tNSB8QxBlEJBIJ+XDN8lswW7OQrLheYxpVVvHN2rWQ1jYTLk/AmLI7oxXsz5sKKhbt3MgMxpV4dqagCEkdzDEOMywXy6Q5efDt9qtaVcTEkMrNnzFXXTvBIQEXAu0BHqALOBaCB5Np6ttgQRH6lugxRpkKltgHMA3UdHrkVm9KcP+PlN0rYtG50HZdO4jV5Q6w5egnX8C51Yvqcdx/jx2UuTU7STjmXaP3Gm6r6M7/ZSrbf57ymzujbRPSEB9Uc6U5ORe9xWlPaRit8dtGzQjCCx+ED+yS6R84OMrGUK4FpEVElywW5ytQVVlHExbtaxsbARBNMWNUhqhVIzOK7IfHmNhBWNuGf14vuLq6JlOk3EVleBxaAzLMilNy7A4foDfSfQDbIX+n7kTeyTx3LiD0XH7LefHRflSckrf/1yHIjwE0JegDkXH2PH6Rm3d1xyg/kFRyJtY5LqJMxJgXmWEUnaO/Y3TADmHTqTubnMTHijM/TTCvRzhraWHxeTLkyf43UgEpkwh2FhjhVaByx5MFq1i9CM46/mym+yzaiKwoA+Tq+JawEaU+ZiWkGqOGpmI0SMcJFX92BEaRxNSltnKTOdC3REzQZd153lL6REZqa5Rm3RGUgPIc2NsG225teAqP78XnOY+2jMOO0RCm+jjlHL9cYHT/2GP7R+LurpjrdnOU/Tw1LUlZNXEsVlhF9HMtxBcW9WTLlEcWECOEboYjOzP8LwoViJ45ZTh+q1CBAV5qU86XdRWFEY1DBtZsOptj8ZfqnVpelK6n5jk6RX6fSFUiGtYQtBV9Ynep6bRiR9OducjM3HKDO/nLe+bt3DKf8A011lv2Nw3W1n07VxMpxQhk9sNOmnackdllVeVb6eBvtcuaKL5uPrPCOHAyAy+YESRn3iCyC62twk1wlya5Pv3s6050Bl8H/yP/h9yZ5T19U2wz+KP7b+WnATcBxMERVWdQrXIAHQHQPIIHAI/IY/fgfYH3vHwfwgg3fnnn33fPf34Y//AOJ5+N8J0OEOOMN37/8Ah/8An4f/AH78GIH332N0MH1+IGL13//EACoRAAICAwACAgEEAQUBAAAAAAABEBEhMUEgUQJhMAMScYFCIiMyQFBi/9oACAECAQE/AJfIWx+SHrzQ9ea2P/1FtD8F4cKZTKKRS/7WPUY9GPRj0YMGDHsx7iiooplMplPwoqKmvwY9mPZj34UvFFFMp+dlstlstl+FllzZfjZZZZj0Y9GPRj0Y9GPRj0Y9GDBgtFox7Me4ooplMplP0UymUyn6KZTKZTKZRU0ymUUV9ooo/sx7MezHsx7MFotFotGDBZZcX/6dlxf4bLL/AOsn4r4ttJH7HdHy/R+fxVsfw+Sq+lFFMplMplMplMplMor/ANuoooplMplPx/RV/qfE/f8A7n7vs/W+X+38Uu5Phfy/T+fxfFa8HClMtlsbZbE2Wy2JstluL8U4bL8LL+jBj0Y9DowUpaKQqjHucRSMFIwUjAqjBgx6Meossv6RZf0iy2NstlstlsT8mfpfNfD9z+hbR+s02qfD9PHw/Vf/AM1+FS4Xg4cIfghxxwhwoQ4XipepcJ+K2PcccuEPx4pe4Wx+LnZ8vn8f2ftX8vypfiqKKivNxXiinDK8H4u6KhwoplFM6NZKKw4oc9KKw/DHuHspC3FKUOX4uEOFLhD8X5occf4HwtibMw+eFs5LhOeKFsbzHGOOKOj3CnkvcLY9+CHLRUVDhfj45fmh7jkIe4XYQ+Qhw+QhiOS9wpelCHuOOeKWoU8l7hbOvwQ4WxuF5Nwn+N+Lf4GYFRgwMwKXCU1iXCLUcUKjpj1FxxS3CfnYnnxQ9wtj3+Bwp4o6Pfgh8hTxQh78EPcLsIfIUvkKeS4WnL0pe4UI4pe4Q45CHyEPfgh8l7l17Me5SGvGjJ0aZTKwymUMpiiisKFs64rDl7jjl8hdl8hbnkvcLs8UZGimJMplMp0imUz5LJTEslFfaKxL4UUNeCHuFsfmh7/DZxyy3Fst+y2WxN2WWyy2JsbdlsTdMtlsZYul/SL+kX9Iv6Qm7LLZeCzIyxN5LZbLdItlsZbFPJcLc3hy9LzQ4WxwvFDhS/HjhDhStQtj8EPcccvghS4W55CHC7/E8UvcLsIepe4W545elL34IZYnmU/PHoX4HqMex0YMGDHs4oWzHuKMezHsayY9nGUV9oaKK3FMcIoo4UUNZeUV9oSHXsVe5wOmykKKReCkUh1ZSEYMRSjiMeofghwtjhTyEOFPF4qXCnihb8nuOMYh7jjlwuzyFscLs8UvcIcclwt+T0pfiyhIaKYlPCmJMZTF0qOQlKlqFPFC3L1L3HHL3C7/ABL5CnihbHuF2eT8twlPJcLfhRTGsKWV4OFscIss4ixNj2WxTZbh+L8bwixPPk3mLw5bhaZj0Y9DcJmPRj0cUIZYmWWcLExvJZ8dllnItj2Wxb8bY+FsTH4IcLY4U8UIcLs1hQkOOP8AA9KFs7D1L3C04Q9wu/xLhdl6ULaHtwuytQj5bcLc8/uXC3PHL0oWx7fi4W4wKvJ0WhTxFQ0UVhlFfaHyaGnFCTsplMp0UymfJZKYlSKZTGnZ+1lOmUymNPBTFZTP2v0NOkUynaPkslMS2UUVjaK+0UfJWyvtCiisFL2ivtD34Y9oxUUh6Rj2il7HVmPBwtjj35OF2eKFse/F8hDmnVi2p2pe4WnL3C0y4cJ7nijqHC7K1LhbnkuEOOOXpQh78XC2OOOXL3C7PFL3HHCHyFLLdC2hxyFtD24X/Fy4WmOHC7L0oW0dcLs8U/LbhbnkuFuV/wAZb1C2Pb8XCf4XCfk9+LKQjBSivoUUjFFIwYMHGY9GPQzHoVUzBSGY9CrJgwcRj0Y9Dq9GPQp4jHqLzC2WX9Fl/SL+hn9ITL+kX9IsssbLL+kN5L8HC34OHLhTyEPfgoYvDgt+FQ445e445e4UvShbOsQp5L3C2OOf3LhbnkvkJD34vwqK8Eh7KYkUUynRTEsnyuyjjKEopiRTKZWEZEncUznhTKwzIkxp2ZFdMplMayNCTKZTHpFMSdlO2UxdKZTKdIpiTGnZTEimUxJ0UymNOymJOymUynRTKZ8lr+CmUxrJT8PluFsfjeFCHuF2eKXvxcKXHYs5HZt0y2ZG8ls4y2Z9ny2Wy3kt+y2cU9cXhzyXCm8S4W4tnGXD5L34uFscLTlahD3C7PFHR7hacuEOHC3PIWzrjkIe444Q9wuy9KFs64454oQ9wuzWIQ4UvUI+XIQ9+Lq9QqvUYOOKRsx6hmPQjBgdejHoVWOrMCr0UjA6MCowYi0KrMFoxRgVWYswYrZgwPZgxTP9Psx7HV7MexUY9mPY6pGPYqtZHXsx7FQ69mPZikY9mB1Zj2KikUjFFfEr4+x1Zj2KpxRgpDrBSKQ6speDhblac8UIe4Xitoe444Q+QnCHClahbHuOQh7jkIe4U8ULc8Y44oQ9wp4pcLc8l8hbHvwQ1koWyimK6ZTKY5ahKawpe44zJkZTEU4cLc8hbR1xyXuOOXuFPFC2djjnihD3C7PJZQp4VD5CWR78EOFstlst0Wy2MtmZTm8KLY3UccZ9jstiey2W/Y7LYmy3Fui37Ym7G2Wy3RbLY27LZbplstjbstibyWy2NukWxN2WWxNlstllsTY3ktibLZbLwixMbdlsstll4LLG9FieSy/pStjhbnjlwhwu/wATyFse44xw+Quy+QtzyFscchD3HJe4XZelC2Pccc8UIe49zxS4U8hD5C34rY0UJRS9qKKXvw7CMezHswYMGDHs4y0Wh0WhRj2OsGPYqvZj2YMCr2KvZj2Y9lKtlL2Y9jq9mPZSrZS9lL2NK9lL2Ix7Mex1SyY9i2NZ2V9iX2Y9mPZWEV9or7Q1nZQiiisIr7RX2hrJQkftZ+1xX2ihlMSyNFOVscKeOXCHuFLhD3HGOHuE55C34ocf4whxyXuEOHpQtoexHHCHpQh7hTxS4U88VvxQ4U8fih+fRxxjh+a349HH+P8AcuOOXuFPFC2OOOXpQh78eKFscKeS9wt+K2dHOPX4Uy5sTG5suLhsuLYmzJnwzHP7luLwy2WPcXuLG8KFsbL+kXhjMei7Sl7MehRj1Fr1DqzE0jFaKRgtQmikYlbHCnjly4UuEOOPwTFLhbnihbng4aEjjl7hdl6UKEccuEPcKXC2PcKeS9wvFbHCUrRTmmUxp2UxJlMplFTX2jkuFL5kx7FXsx7MeysIoW4r7RWPGsbK+0V9oayUVvKKKGsIpi2inbKZTplP0UynSKYk7Q07ZTKdMplMrCKYlkadwlsqK/0qWswl4rZbLYmy2WzjMmRwh+LhHY45e4Xitw2cULc8lxxy9wpelC2h7jjl6RbE3Y27LYulst+y2W/YnkbdlsTZbLZbpFstjbstlstluVse4XZ45fIQ/FwjsccuF4oajijs8/uXuOOXuF2XpQtoe44xw9KFtD244xxxQtoe4U8UvcLxWx7heThbHC05ehChnHL3C74rZ1xwQtnXH+K/mFse4WoQ9uFpy9KFtD3C0xiHpQto64Xf4HD0oWx7hQjihD3Cn//EACgRAAICAgMAAgICAgMBAAAAAAABEBEhMSBBUQJhEjBCgSJQMkBxUv/aAAgBAwEBPwCGLuH+hb/Qub/2vy0+LlxaLX/caKfpT9M+mTJmM+GfDPhnwz5Fllllllllllllllll/wDUtfoopRSKRU0ikUil++n7wyZMmTJkz4W/C35FllotFotFotFotelotFotFlovhZZf0y/pl/TP6ZZb8Zb8Lfn6KfpT9K5P/Y0UuVf6Gz8kfmhfJF/TLLRaLRaLRaLRaLRaLRaL4X/tbLLLRaLUXxZWKPisspXfNIpGCkUikUhpC+KKRSspFIpFIaRSKKKQ0JFIqKioz6ZLZkyZMibZktmYtmTMZLcZFZTH+SMxkp+lP0r7ZX2yiioopFIpFISRSKRXFQz4j65MXHtw9CjuVDlQ574uVDlQ57hi1D4sTxHa/Q+S/QuCu745MxkcZEZ8GJjiyxP9CfFMtDZaLEWhyoc3ktQi0NlxeWWhvEt5UWJyofXJSjPBQxQxDFDFrioehah7hihyoehR3DFxRRRSMCWyhpRSKzKUOVtw0LUNStuGLUPkof6rXBQxPioYuKhyoeha4rUPqV3Dldw9T3D0LUOGLbhi1D6lbcrUPkpXFQxcUooSRXJoSmipcqGKcwjI4yKzI7jIrhxngoblbcZoWpz6Z9KyyihKHxpCKKiuChi1Ha4WMUOVtwxajuGKHKh6FpcVqHtQxdw+oYu4c9wxah9Cj+Thi1D6lf8AJytQ+Xx7hi1xUZo6UZ5Jl8bQ2JlovJaLQi0MtQqtwxPBaO5Woe1K7hwz49x8pvMN4Pjosb1/7KeWWhtCaotDaLRaF/yLRaE8FobLLLzKvMXgTwW/OC7hi1D4sShiV8qR2il4UJFIaRSKXgkrZSHVCSKXhgpFIWikNK0UikJIoa+2V9sr7YkUNYKKiikJYKQ0sFIpFK2UvDAkqKQyihblahz2pUMWuKcMWofJQxOuDEM7ldw5UMWo7lah7Urioc9wxah9StuVqH1P8pWoc9ytuGLXFQ0UUNfoZ+LZbEzI5p8LfnDPhkd0K/DMZ8haLfkWX9MTLLLLEWNxf0zuU8Rl1iHfhm3gt+GfBXRbGWy3wVw7MlP3gllyuK7hi1D4KFDhihi4OXK24Yo7hi1HcMUeSocOWLUOay4Z8dQ57lahz3K24YtcV3DYniG+NihuVuG+S4rbhz3DFqO1DFqH1DF3Hy6hi2xDFqHN5cM+DxD1N/5SniHL3K25WuKhoWoa4UikLUOKKKhDXJqKKyyhrkliKypUPaKZkRQ1iVtyliGoorLKKQkqKQykUjsqElRSGlUUdopFISRSha4qGLSh9cFChiVjl6FKGIdD4sWhi3DPjqHtChah7Qhi7j5dQxbcMWhj65fHUfKf5f1Px1Dm8ytuGLXFWZHdC0ZM8lDi7ixsTLLyi4TLGy0WosbwJotFqy0NoTVItDeUWi0Jqj8kWrRaLQmslobVH5L0tCatlobVCeEWhvRZZeS/pl/TFov6Z8ngv6ZZf+X9GfGZ8YobLfhb8Zb8M+GfBN28Fv8A+R34fG6WOK1DFqHwrgxDnoWhrB2pUPi+LQtQ9qVqO0JR8Sh9Q0JZcMWlD6lbcMWoYo7lQ57hi7hnx0uK1DYuVwniGLitF4R2pR0Pi57hi0oe1K1D2hDFD6hi24YtKH1K25+OoYo7hihz3DFtytcVooa/RQoa5JY/6L0LUdopwtQ0zJkWDI+pV24d1sV1uHyWocZ9ivtlCRn1jWNlfbKKyivtlCRRX2xLCK4LUMXDqE0dCh8WdSoQhiHLhxQxR3DFqO5UMQxbcMWofFi1DFHcrUMUdqVDFritQxOLyuLE8Qyyy8stDeBPBZZaLQmWhstFoRanEt4i0dlobR8dFovKLRaPi8FobWC0WhNWy0NqhPBaG9FotFq2Wi0fFqi0N4LRaLVlotCaotDaotH5ItWWi0J5ZaLQtFrgtQ/0qH1xYtcVD4UPXFiKOzA0hJUUh1ZSGl4fHRSHWCl4UvBLLKhLCKQ0rUUjsqFqGlU9ytQ9RRRQ0hc2LUOe1xYtQ+uLFqO1DE9wxDFDFC3D0xaQz+UrUPc/DUPoQxb+UMWofFnx1D1P8v6lahwxbhi7/wDYYtcGLUNOopnZT4ZFfpTGnKRTHoWoyZMmTI7MjFZkd0ZMmbMjuhXRkzcZFfkZsyf5HxutFsdmS2Ztw7oyZ8M+FsyZtmTPgroz4O/DPhkz+RbP8j46M+DTMmfDNmTJ8byZHZkz5LFqGKO1Dli1D6FC3DFpcVDUqGpW4YtRWZWoe5+OofUrbhih8WLUPqf5T8dQ9T3K75sTxDiy8otFqLQ3LcWJ5LQxajtCY2ItDZZaE4c9w9MWlHZYxaLO4bPjotD6hsW4emLUXlStuGLUPqV/ycM+Ooc9yu+bFopD0UUilaKRSKVspFIpFIaQkjBStlIaVCSKR2iikJLwpDSKRSEkYGlRSilbKQ0qEkUvClZ+K8PxQkqR+K8PxVopH4oSVFIaWCkUhJWykNKmUikNIpFISVsoaQkqRSGlgpFIpWykUqEsH4ooXxRRUUJH4oawV9sr7csWlDFHahih6FDEOWLUPaFC7h9cXxYhnf8AUMWlHcrUPqVtwxah7Urbhi1Hghi24Z8dQ9T3Kh64sWlD52ZrUuc2W/DPkZ8M2pVw7xFvwVlvwf5eCvyM+Q260Z8Lfhm9Q7rQm0kWzN6LfkK6hlvwt+Cbt4LfjGxN+F/TG9YLLE8vBf0y/pieCx9RZ2z8vplieCxss/JF5LLEy0N4LLli1DntSoYtQ+LFqO5UOGpfFijsR1NZlahytuPlpi1Hcrbhi1DlbcM+Ooc9yofFi1Dl8lzYo7UqHxfFz3/XHuVqH1K24Yo7Up5cMWoYhnbhnx0ofXJah8WJQ1+tri1FDSKRSEilxpDSoqKRUUikdlFRRWUUUhLBQ1oor7YlllDWCivtlZRULbzDQlic+mfTsz6PQroz6NP0z6Z9M3sz6ZFdbMjTZkyOHLnuVDF+rtcXKhw5fBDnuVqH1K24c9yoYtckPQtKH1yWpXBy5vJam1Nob0Wi0LbhsTLLyXCZY2f0y34xf+Mt+Md1ot+Mt+MvLLGz+mW/GXnTL+mXFl50y/pl/TE8F/TGy/pl/TE8stFqhNUWhtWj8kfkhNWy0NqmJqkWhtYLRaLVstDaoWob0Jwn/lDFqHxYkikNIpFIrKKUL9TFHcqH1K7h6lbcP9HcrUPqVtw9MUNZRRQlllIpUJKkUhpFFLwpWyl4NKhJUikNLBSKRStlIaQkqRSH8UUilPy0xahz3Knpc2LUdyofUqHri57lajuVqHK24+WmdQ9qVtwxaUPqVtz1D5LUPj8tMWlD6l7lQzpR2pUMXBih9CGIY5/kxj4dIYtR3DPjpQ+pW3D0xah7UruPlpi0oe1K24YtQ+LFqHP/xAA3EAACAQMCBQQCAgICAQMEAwAAAQIREiAxUQMQISIyQUJhcRNSMIEEMyNDwRRgcEBQYnKCkbH/2gAIAQEAAT8Cy9+Mv5/2Fp/P6MWn80tBf+6Z+n3/ABN5+5Yy0Iuq/mpqR0/n9rPT+aegv/dM9P4ZMS6ZyE646FSqKoqiq/gfXlo/5mU6EenT+Z9XTk6+h3Hed+x37Hcdx3bFZbFZbFZfqVlsVexc9i74Lvgv+C8vRei5FyLkVRX/ANh1KouRci5FxUuLipdzfVEf4Kdf4aU0Li5FyLkVR0OhSJ0Oh0KItRaiiKIosKFCj3KPco9yj3Op3Hcdx1Op1KcmjqVlsVlsVexV7HdsVexV7FXsVexWWxV7HcJf/TURRFq2LI7FkSxFiLCz5Zb8lr/Yo9yktzuO87jvKy2Ky2Ky/Uul+pdL9Ssti57Fz2LnsXS2KvYuexdLYrLYrLYrLYrLYrLYrPYrLY79ju2O47jvO47juO47zvO47jvO87jrud25SW5R7lHuUe5R7lPkp8lpaUKFqLUWooihRFEUX8lCrKlXsVZ1Op1Op3fw0KItRaiiLUWlqLUWotRaWlpaWlvyW/Ja9y17lHuUe5SW5SW53Hcdx3ncd53ncVlsVlsVexV7FXsVexX4LnsXPYuf6lz2Ln+pd/8AiXPYuf6lz2Ln+pf8F/wy5/qX/Bf8Mv8Agv8Agv8Agv8AgvLy9F5ei9F8S9F6LkXIqiqKr/2TUqiqLkXIuRci5FyLkXl5cXFfgq9ir2O47jqdx1/+kckhOvOfp/Kpd1P/ALLQoiiKItjsWIsiWItLPks+WWP9i17lsv2KS3O87/g7zv2Ky2LnsXPYuexd8F/wy/4L/gv+C8/Ii8/Ii/4L/gv+C/4L/gv+C/4L/gv+C/4L3sXPYuexc9i57F0tir2KvYq9istir2Ky2KyKy2Kz2Kz2O87zvO87zuO879zu3KS3KS3LXuWvcte5b8lvyWfJaWFhYixFiLUWotRRFCn/ANiSvfU0PyEXVVNZEnoTnRonOlEXTjqKU/XTlKTutRByToxl9GLTlHV//Dk9COnK3iaEY2qh7ziRbXQ4fDadWWP8lScauPOMaNsp3HoLg7846v8A+HKFKf8AxE5HcTcoxqQc5Ko3JH52RnKSPy91CszvKyKzKz2Kz2LpbFz2LnsXvYv+C/4Ly8vRei9F6L0XIuRVFy3LluVRVFSpUr/71qVKoqiqKouRVFyLkXFxfnJiVOX+U/8AjOEqcOP0cetpxZQtW5wo0gji8FTXyf48240eq5LV4v0xYtOVEURRCXVlqLUWosQ4qqLUWIsR+NDh0LD8aPxn4yz5Ixqiz5LPks+Sz5EurRb8lnyWfJZ8lOqLfkt+S35LfkknuWvcte5a9y1/sNPcSe5R7lGWy3OpGrO47juO4qzuKy2KvYuexf8ABcXlxei5FyKoqiqK4VKoqVKlSqKoqiqKlUXIqiqLkVRciqKouRci5FyLi5FyLkXFyLi9H5EXlxeXlxfX0LnsXPYrLYrLYrKp3Hcdx3Dckdx3HedxSW4rn6lJblHuWvct+RrQtLSxFiLERiixFiLUWodCiKfw+vP/ACXXiQjyehxIr8nDilzh0/yZrktXi/TFkdFitXi/KOMtBacpSUSM7uUNMV5Mc6PD3LGWLFpjDTnVclq8fdhQ9/8ARRFEURbHYp3FqLUWlqGu5FpaixFiJRLUWotRaiUegoqhai1FqLUQXQoUKIohLuZRFChRFOqKFOVCemUcfdjPxeUfX7xfp95Rxl/5/jWr5tXf5X1yZHrx/pc49f8AKl9co6vF+nPqyD7qDFpitXzfES5PVYy0FydCPnXlDTFeTJRqiso68/esZcpM4fm+T0FpjHlLQUD0Fq8fd/WPv/rH3YvzjjL0+8ZaMjpg2cPQb5evKMlc8X5LGWgtMY4+7GWgsY+77xl6feUPX7x4j6C/iXlzjw6Tct+T0IwmuJXfk3RH+P1c578lq8XyY5SXShw4U6sZHRYrV8mqnEXWPJ6rGWgtOXEl6EKenKGmK8mM6yfP3LGQ3QXXqcPyk+T0FpjDTmteS9cfc/rH3f1j7/6xflHGXp94z0ZHTmy0hpgx6kNCQlyeqxnoLTGHrj7ljLRixjrLGXp95R9fvHi6C/i9x3Hcdx3bHUVSrOPxHS3c4acYJULnsJupX4Lvgu+C4bLi9F0S9DkiLVC5FyKoqhPqyvKi5S9MZaC05S4akKKWnKGmK8mMXN+Sxl/5JRuHwpbnDhLcVRkdFjHmnV8l64+94+7H3/1i/JYy9MZaMjoubTFccPTBojHu6iHzeqxloLTGHr94vVYvQWK1eMsovrL7KleVSegmXIuRXNeTxegtB19CPC7rpdXzWrxeLRFdCiLUWotQl1ZaixFiLC0tLfkt+S17kk6aii6alHuUl+xbL9ij3Ip7lJblJblJblJbiTqyktzv3O7cpLco6ndud+53bnduSqdTuEmjuHcKp3ncdx3Ea0O47thVXoVewq1ZV7Fz2Lvgu+D3VLi5FyLkV7i5FUVRVFe4qivOvesX6c6lUSfQi+hci5FUXIiyqLkXIqV7mXIckXFyG9C5FyLy8b6CZX4KvYq9ir2I16lWVkdx3HXodx3Hcdw60I1odSkjuKS3EnVlHuUe5RlvyNFpaWlpaJalpQtLSSVOVChTNeTxYtMVq8ZYsjpivJ4vVYy0FpjDFavH3LGWLFpjHTFavH3Y9Lv6KItRai1FquLIliLUWotVxaixFiLEOOhai1FqLUOKoJKhRFEURREUUKFOXuKFEU5P0xloLFavF6rF6EdMV5PGWUdXjLT+NeTxegtMV5PF4sjpivJ4vVYy0YtFjDTGPlLH3LGWMtGR0WMNMVq8V5PH3/1j7v6x9/8AWL9MZaMjpjHFeTxlqsZaMWmK1eMvT7xZHTFeTxlktXjLT+NeWMhYrV4y5OSXqflhuKSegyOmK8ni9VjLRkdFjDTFeTx92Mv/ADjLQjosYeOMdXivJ4+/+sfdj7/6xl6feMtBaYxxXk8XqsZaC0xWrxl6ZR0x92MtMl5PGXixafxe4qVLi4cugpFyLkXIuQpKpVFUVRUm0PjV0O33M/4RqnWEiMrokdMV5PF+mMtCOixjivJ4+7GWMtGR0xhpitXivN4+/wDrH3/1j7/6xlrH7xloLTGH/nFeTxlqsZaEdFitXjL0yjpj7sZ6PJeUsZaMXKpVZrXFi0KFEUKIS6soi1bFqLUcXrKiP/T/ACfggfhgP/HXoyk4kOJudH6lvyWvco9xJ1KPcpLc7tzuHU7juO/YrLYk3sJumhV7FZbF0v1KvYTexc9i57Fz2LnsJ9X0LnsXPYu+C57Feq6F3wXfBd8F3wSZd8F3wXF3wN/AmXfBd8F3wXEXRFxci9FyE9S5FyLkXIr3MuRciqLkV7sfdj78Zax+8ZaMi+nKpXlEqipUqV7ipVFUXIk9C5FyLkXIb6EX0KlxcV+CvUq9ir2KvYq9iVTqVlsVex1OpGp3Hcdx1KO46ncdx3Ek7WUZRlGUZRiXVlChQoNdBLoULUUWa8njLQWmK1eL6cT++T4kKuNepwn2VYpJ6MoWRaHwWvFl84+SIzUuS8njL0FhLQj4rGPrivJ4+5YvGWgsY6Yx9edEURTqyiLVsWotRTuLUWIsLfkS7ihb8lvyWvct7ij3Lfkt+S35GuqLS0tLEOKoKKoWoUUWotRFItRai1FqKKpRFqLUUQ/QoUKFB6EdMVrjLKOPuxejFj7ni9COn8UfJ4z0FpivJ48WPqQdYn+V/sqtRcaTjGB/j3dVZRco6c5cLYrxI69SHETk8Z6xxloQ8VjD1+8V5vH3rGWMtGLRYx0xh7vvFeTx92Pvf1j7sZax+8ZaMjohia5x0xXljL0xZHRYryeM8oeuL8ljLxZHTH/s/rF6Mh4r+KPk8ZaC0WMfJ4z0OsDjRdt0j8PDlGNY+nOGmP405MSnFiknzl7fvF6Mh4rGHr94rzeL844y9PvHieLI6LGHjjD3feMfKWK839Yrzf1j7/6xlrH7xl4sjoMWpCt9OUMV5PGfp94sh44rzePE0y4fr94y8o4y0ZHRY/8AZ/WMtGcPxX8SfcyqKoqipLQjpjHyeMmUqThuJ8mQ0xXk+TimVkhNMn7fvF6EPFYMh6/eMfOWL81jL0+8eJ4sWmPD0x4fu+8Y+csV/s/rFf7H9Yr/AGf1jPWP3jPxZHRcnGSfQhGnLh+OK83jP0+8WQ8cfdjxNMuH6/eMvKOL0IaY/wDYvrF6HD8V/FTuZai1FiLEOPQUUWliLPllvyW9Sz5Lfksf7Fj/AGGmj+x9fU7o+onJncRr6Hed5WexWWx1uKy2Ky2LnsUew5PpUvL0XovQ5KhGSoXoviXxL0QklUvifkjuXxLkJ9zZdHcujuXR3LluNq9Fy3Lo7ly3Lo7kpLoXLcqi6O5VbnEaoKSoi5bly3LluNqhw/Eqiq3KoqQ933jDzliv9j+sV5v6x/7f6xnrH7x4niyOmPC8cU/+R4VJMuRci5F8dy5EHRFyL0XovRXuLi9F6Lybqi74L/gv+C/4Lvgg9Sr2LnsXS2KvYdao6lZbFZbFZ7HcRrajqdx3HcUd6O47juKSKMinQo9yj3KPNeTxloLTFa48Uiq6k6KUfk/GWyiLibkNMfc+XF4y4bj015zVaFskKVectCK6LlRFFsURBf8A+lqLVsURRCSuZRFq2LVsWx2KK+Jati2OxbHYsjsSS6Fq2LI7FkSyOxOKoWosjsWR2LI7FqIxVC2OxZHYtjsWIjFdfssRYj8aPxoUO5lp+P5ZZ8ss+RR7n1LZfsd25SX7FJbiTufUpPc79z/k3O/co7v6O7cpPcpPctn+xKL6dS2X7Fsv2LZfsWP9iS6aij01LPkte5Z8ss+SEehZ8lnyWfJaW9zLCxFiPxolHT7LIlkSyOxbHYoiCVC1FEUKHuxnoLGPr94vWOXD8cX5Ryjp/EvJ4z0FpitXjxfQWh/kez758SFOqOHJoUq4J97ONfZWPocfix4vDjvXqjh8WLS69acpen3ycEdyFJMehHxWMMU+94+5Yy9PvGWgsGQ8VjH1+8Y6yxXk8V5yx9/9Yy1j94z8WLTlXnw/HGPnLGfp95Q0x9+M9BYx9cZarKHjjLyjlDT+JeTxloLTGPk8eL6EouSVJUONwpq3vrVnD/Iuk+cHSTRYdyLlyXmx9UzjcH8Uo09Th8PhTSkuU/TBw2LtyHisYev3j73i/NYz9PvGfiLBkPFYw9fvGOssV/sf1ivOWK8/6HhLyjjPxZ6EpN6HD8+TOH44ryeM/T7yhpj7/wCseJoLGPrjL0yhpjLWOUP4vdjLQWMfJ48b0ETg5T4b9E8Jr1IOseVqLX6HVSFInw7p8OWwkl6cp+mM1VEU0ugpLCHr94rzePuWMvTGfji9CPisYev3jHWWMfOWMfOWK/2f1jLyjjxPFnocTsicBdG9+TOH44ryeM/T7yhpj78eJ4ixh6/eMvT7yhpi9Y5Q/i9zKPco9yktyktxqQrjvO87zuFdU7jv2Ky2Ky2OJXoVexV7F3wX/Bd8D8WcKRei9F6K9w7S6guIvUvjuSaLkVW5VFUN9CLVBpMq4inHlD1xT73i/JYy9PvGegtMHoQ8VjD1+8Y6yxj5yxj5SxX+x/WMvKOPE8XylFSVCMVFU5Mh44ryeM/T7xqQfQqiqKoqiveVRci5bly3JtUFIuRci+JciMi9F6L0XolKpeXl5eXEWXF3wXfBUk+qLnsXPYuexV7FWRqVZVlZZrzeMhaYrXHi+S58XiLhxq+a0ZwNXhTuJNRVWP8AyW/GBwv+ThqTRZQdNiiLVsWosjsWIUVQsRZEfBXoNOJCjLEWIs+Sz5Le4sLPks+Sz5Zb3Is+WWfJZ8lnyyUdC35LPkt+S35JR6alnyWvcte5a9xr5Ix6FnyWvcte5a9yMdepa9y1/sWy3KPcUXV9Sktyk9yk9zvFdVned53neRrdI7is9isjvO65ned53neNSqjvO87zvJXU6iuO87yk9zuIVoUnuUnuUluWy3FHuLXuWvct+Sz5JLQsLEWIsRYiMVQsRYi1FqKdxai1FqLVsSSoJIoiiKIoiK1+yiKIoihL0+8o4y1jlDR/f8S8njLQWmK1eM/Pk2lqz/Jkp/jSfrzXqcDV4e4omcdOse3t9SDi4q3TlNYsjoPiJTUdz/Ib/wCNJ9W+TLNaF0o6kZJ815Y+5Yy9PvGemL0I6LGHr94x1livKWMfKWK839YvzWM9MoeKxXm8Zen3lDH34y0FjH1xn6feUMXqsuHp/EvLGWgtMV5PH3Pk4xeqPxxf+RSnRLqQhbXr05I4Grw93LiTUYs4EXHhKuvKWLI6H+RBySpqPicZSjcvE4U5y1j05R9fvk+HsXyWqFJMXm8fcsZen3jPTF6EdFjD1xWssY6yxj5Sx9/9YvzWM9P75MWvJ6HD8VivJ4z9PvKGPvWMtBYx9fvGXp95RxescofxLyeMtCOixXlivXnGFJzlvz9GcDD3/wBcrVWtOc9MWhdEVIx7+I36kYqOnKPrg+HsRlbLqJp4e5Yy1X3jPTF6EdFjDGOssVq8Y+UsV5v6xfmseJpy1EuT0ZDxWK8njP8A85Q9cfcsZaCxh6/eMvT7yji/JZQ0/i63Mq9ir2LnsXPYb+BN0Lvgu+C74LivUuLi5DkiIpIuRci5blyK9sjgNULluVRVFe/GWLI6DRWnOPrjSsmWuOgp8/fjP0+8Z4y0I+KxhpjHWWMfKWMfKWK839YvzjjxP/PKnN6EfFYrzeM8oPF+SxloRfTGOr51Kok9OdSpUiyqKlUVQ33IqVKouRUg6IuRci5Zx8njLQWixXlhPxZDxKFCiKIoidLGcGKtLY7FiLUUVxai1FqLSSLSwt+S35KEY9C35LG/UtkvUo9xJ9Sktyj3KS3KS3KO5lJbj4bKzR37lHcUlud53neST6Hed53neSuO47juO8daCrQ7zvO87iFaHed53ncRrVncdx3HUVbmVexdL9S57Fz/AFI1rIuexe9i5/qXPY63FXsXPYuexc9ht3oq9i57F0v1LpbEqlZbF0tisti6f6ju2IVodx3HcdTredx3HcUluSToWvcte5a9y17lvyRiWlvyWlpTqi0tLSwcego9C0tLS0itS1FpYixDS6FC1FqLUUIotRai1FqGlVFEUKFChBdChRfwR8njLQj4rFeWHF8ReHOPFn+e16PTnxPH/wDkQVIrD38pSUVVn5pcXiRt6LlPF6EfFEnOXGcYulCv+UvRMWiqNEXrj7/65PiRU1D1Y1U6xFKssZax+8Z6Yy0ZHRYw8cYev3jHWX3jHylivN/WPvX1jP0++VyFyZDxWK8njPTKOL8ljLQWmMfX7xnrH7yhpi/JZQ0/ij5PGWgtFivN4cbRHs5cS+naf835lvEi+LXuguU9RaLD38nXjOntRwEvzSppFcp4sj4o4nCq74ujOBxHOFXvTmvUoV5rz/o/yOG5RqnRojx0+PCU/QjOMtHylHu6FZIUlzl6feM9MZaMj4rBnDfbjD3feMdZfeMfKWK/2S+sf+xfWM/T75UEqcpaMh4rH3vGemUPX7xfksZaMjpjHV4y9v3lw9MX5LLh+P8AEvJ4y0FpivJ4cb0H48+AuvFlvLnLzx96OJFyg0hQ/wAhRoqUP8WNIyk/V8p6YvQh4o4rlS2K6s4UFCFOcfXnTkvN/RSp/wCljKXEWmxweEoJdO7l71ytRbL0ZdJaock2vvGemM/FkdFgzh+OPD933jHWX3jHyljHzlj/ANi+sZ+3/wDblQXKWjIeKx97+seJplD1+8X5LGWjI6LGOrxl6feLOHpjLyjizh+P8VerLkXIuRchvoKSLkXIqiqF5MqipU4nmiWgmVw/7cffz4ULE188p6YvQh44x9cdJsrh71jOKqjuiKSfPiYz8WLRY8Lwx4fr94w1l94x8pYx85Y/9i+sZ+375rXlLRkPFY+9/WPE8WLTHh+77xfksZaEPFYrV4y9PvFkNMZeccWzheP8S8mUKIoiiJJUKIoi1FqLUWqpbEsRYhr/AJKEl0LUWItRYi0Ua8Rlpb8lvyW/Jb1Rb8lr3LXuWvckijKPcpLcpLcpIVaHU7zuO8jXqd53ndsd2wq3HU70Xy/Uuex1uKy2LpfqXS2LpbEquhV7DUvRC4slqhcRv0JSZdLYul+pfL9S9/qSbo+gpOmhc9i5/qXPYq9iDaWhc9i5/qXv9S57EG+pc9i57F72Lvgi+rL/AIZf8McvsuIvrIv+D8iL0Xil3Nn5Phl/wfk+GfkWxd3Jl/wfkR+Q/J8EnWhf8F/wX/Be9iUm1oQlKi6Fz/UuexdLYrLY63FZbFZbHcd5K63qd5/yH/Id53kalJned5Se5R3IpLcpLcpLcpLcaZFOi6lJblJblJblHuUdzKPcpLco9yj3GtOpQte5bLctluWvcUalj3LXuWvcse449UW/JY9yz5Lfks+SCqiws+S35zj5PGemS1eH/aS058LifkjX558HrKT+cfeN0VWfnfpAjx7mlY+UsWR0JO2Lew1OfDvvp0P8K62TfKPrj7mTnZ6VH/kzX/WLuimWle7F6rn2yPxbMnehcTdF8ec/Fi0xh4rGHr94w1l94x1ljHzlj7/6xn6feMtGQ8Vj73jPxyh6/eL8liyOixXk8ZemLIaYvzjizh+P8UdXjPQWK8nhD/YS5T40IdGf43FhC+r9SE4z0ZN0gz/HXa8fejjRcuFJI4fGgkovo+c8WQ8SSuTRxFxuHw3HpacCNvCjyjq8V5slJR1P8rixcKHD/wBcfrk/I0K85ax++XE48oSdV0P8aa/HVtdWJp6M4np9lEWRLGtBT3JPoLBkPFY8PT+8Ye77xhrL7xj5yx/7P6xn7f8A9uTZFyryejOH4rH3vHiaCx4fri/NYvRkdMV5PGfp94sh44vzji9CHiv4o6vGegsV5PDh+TJcmlsf40Ivh1a9SiP8jx/s4Phj7ly/yaOyPrXnPTKOnL/M8I//ALC0XKOssV5saT1P8rh3cPTQ/wAealw1T06cveuVCvKWseX+RwIqFas4X+PWUoS6M4fCjw1RHE9PvBxTJxaQpCknzloQ8Vjw9H94x9fvGOssY/7J4/8AYvrHie375V6kdeUtGcPwWP8A2f1jxNP7y4fri/OOMtCGixXk8Z+n2LBkPHF+ccZaMh4r+KOrxloLTFeTw4WrJ6c+FGzhpcv8jWKOH44+9clw++5vnLTFkdOXE4a4ioxKiS5R1eK8sfesGtivdHlOCnSu5arlL15T9PvHieLFoixeh3oUh6HD8VjwvH+8Yev3jDWX3jHynj7/AOseJ7fvlOlCEenJ6Mh4rH3/ANY8Xx/vLh+uMvOOMtCHisV5PGfpizh+OL81jLRkPFfxJdWWlpaWjRaWlpaW/Il1KFPkae5w06skuhR7lHuUe5SW5NN8WhFM67lJblJbncdbjuO47juJVO47juO47hVoVlsVexWWxWWwnqVexV7Fz2KvYr3FXsXfBd8F3wV7tC74Zf8ABf8ABf8AA+rRe16H5VsXl5J1Li8vL0SlVCkXl6JNF/oRlRH5EfkR+RF6IOiL0XovRemRlr9l6L4l8S+JGS6/ZfEviXxL4kX3SL0XxL4l8S5Xl6L4l6L0SdaF6HOJei8c+hCVEXl/wX/Bf8F3cXfBf8F72L3sTZc9i97Fz2Ln+pV7EW0Vexc9i57FXsPyRV7FZbDlPYU5bDrQV1OiKy2Ky2Ky2Ky2FW5lZbF09isisth1Ky2Ky2Ky2Ky2Ky2I1oVlsVnsVnsd2x1uO7Y7juKz2G5UIVodTuO7OPrjLJavm9GcL1Jc5cVrjQhvyj140iOPrycktebxZ+aCS64r1x9RNPD3YvWI6UPzw/V03FpVFxJ6feM9Bck09OXFj6oh1iudOUNMY+v2UKFOUdZfZRFEURREfKWPS/8ArlRFChL05UKcpaEPFY+/Hiaf3lH1+8X5LH0I6YrV4y9MoaY+7GWhw/FfxR9cZaZLyfN6M4PqT05Sko6jnCX+TBp9EVVKn+P6sjj7ic1FVIRc+6X9c5YvQnw4pcNRWr5Tm34//wBn+Ku1y3fJeuK8mcD/AG8YnxutsNSNaddeXuWL8on+U/Belepx+LFqyGhw1bCK+ChKNGX4T0G1GNWT4sfxTkn6H+MqcGHLieLODpTGGmMP/OMPd94x1l94+/8ArGXlHneuUtGQ8UVw9+M9Moev3i/JYND8WR0xWrxl6Ysh44+/F6ENP4oeuM9Mo6vDheUiX/nk0nqcLhwnxeJVdEcWkOFRHCjSCIaY+8l/yca30jhLF6GvE4aOJFyjRM4n5VGympwrqJONOUfXFeTFJxhOmspnChGCp6+vP3LF+USUYy1Rx4RXE4MUvXnL0+xxqRfPiaDVYtHFhxOGvhnA4nGcO210ODxXOUotdUS0ZDyx4fjjDTGHu+8Y+UvvFf7P6xlrHlJVQunJ6Mh4rFebxnplD1+8ZeSK4S0IaYx1ljLVYvQh4rH3/wBYsh4r+KHrjPQWMfKWEf8AYyfp984Qsu+XU4zu4kYmiIaY+4vfC4s+nlocLjKdVo1znizh8NVu5Wv8qfpTnHWWK8mcXgvtcVoyH5JcZSspvz92MvKPLj/7+C+c/T75Tj6oi68uJpy48buJwV6HE4H451p2s4UYqPaiejPcsGcPxx4en948P3feMfKX3j/2f1jPWP3zmIejIeKxX+x4z0/vLh+v3jLyWMtCGmMdXjPWOMtCHjj/ANi+sXoQ8f4o1KS3O47jvJVO47zvO87hVqzuO47iVylUdWdx3Dctjh3T4lx3EalZbFZbFZbFZbHW4nFT1iQ4ShKqRc/1LnsSbKvYu+C57F3wXfBF9NC74Lvgu+C74IvUvL0XouRd3F6L0XovRXuL0XxL0XxG6yReiX45al6L0Tehci+I5daoXEiTdUXIuiXRLok5Kgn3IviXx3L0OSOG0oly3LkXR3LkQkqF0dy5bly3LkQa7vsuW5dHcuRfHci9fsuRctyqLluVV9fguW5cty6O5dHck10LkVRVMuQ2qEWkkXovRfHcvQvJl6LkXovRJpl6L0XoviXo4ci9F6L0Xob7kXlyPyI/IhzRGXQvR+RH5EXoUlVl6L0XovRKXVCmXovR+RF6ItJF6L0XovRXuTLi5F6L0OaIPtLi5FyzhjPKOrwmqoUunP8AyJ9LVqzhwtjTlHTH3/1jLF6EdMV64ryePuxl5RKFEURREkun2URRFEWIfQVDoURRHEpazhxKItWxatiiOGu0tWxRFq2LUQSoWotWxati1bEYrr9lq2LI7FkdiyOxFLu+y1bFqLVsWx2KL8j+i1bFkdiyOxbHYklWJai1FqLUSj0ZFKiLUWotRRCXcyhai1FqJ+n2UKFqLVygUKFCh7kUKIoiiGujI6c6IoR9SnKiKIkldEpyoig9GQ8UUKFCh7liyPiudM4aYzyj7seJGjqiPEiyfFjFHDg3K+XJkNMfdjLF6EfHFeuK83j7sXqsZax+8Z6FEWHci/4OJKqIKkVgzh+Kx4fjjD1+8Yaz+8V/sf1jPyh94z8WR0WMfKWM/T7xZw9MfesZ6MjpjH1xl5LGWjI6Y+9fWL0I6L+FkNMZ5R9cZ+n2OEX6C4cF6c2Q0x9+MsWR0WMfX7xXk8fdi/JYy9PvGemM12sWEtDh+Kx4fjjD/wA4w1l94rzf1jLyh94z8WR0xjrLGfp94s4emPvWM/Fi0xh64vzWMvFkdFj/ANi+sZaMh4r+FkNMZ5Q9cZ5Q8cffjPFkdFjH3YryePvxfksZ+n3jPTHieDFphLQ4fiseH448PTGHlP7xXm/rGXlDGfiyOixh5Sxn6feLIaY+9Yz8WR0xh6/eL8ljPxZHTH/s/rGWhDxX8LIv4Lvgu+C74L/glIu+C/4L/gv+C4i6VL/gv+C8uJFxeXl5cRdEXovRei9Fe6pcXovReiUtC5F6L0XolJUIy6IvRfEviXIjLUvRci5FyE+5l8S6JfEuiXK4uRei+JdHcuVyLkXIuRciT6ouRei5blyJNULkXR3KouW5OStYpKiLluXR3LluSaoQfQuRVFyG0cPxKoqVRVHDfQqiqKocluJ9zKleVUJ97KoqiqKom+6JUqipVE2rWRfRFyKoqtyqIvqyqKoqiqJvQqipciqGyGhciqKouRXvKlSqKk30ItUKoqiqGyDKoqVKob7kVKlSpPRkX0RUqVKo95UqipUk+jIPtRcipVZPQhpjP0yj64y9PvnVCafKGmPuxl6YsiunLoURQj6lBpHD6tlBLuZRFEURaiiuKItRati1FFci1FqLUWocVVFqLFsWIsjsSiqFqLIlqLIk4q1lsdiyOxZHYsiWIgu1FkSyJYi1EYposQqXNFiLUQStRZHYsifjiPhohFVl9n44liLUWRLVeyyJ+OJ+OJ+OI4qqLEWIsRYiaUUKKofjiWIsiWIUVVnGhoKCoWIsQ0uhZEsiWRLEWIhFNH40fjR+OJ+NFquLEWIsRYiURQVCxFiLEfjRCJYixH40fjiWqqLEWIsRaiUVRij0LCxFiLEWq+hYj8aLEWIcEkyMeg4JliLFk9CGmMvTKHr94z9Pvna3KhYipDxx9/8AWMvT7xloR0WMfXlxH0OGqLkvN4+/C530H5IqsG1dErybpynpjPxYsHoyD7UVWHD8UOfWhHz58PxHNIjJS5MhJVl9lcF/sf1g+Ii5OUMeK6sjohzSwjrL7Gq8pyUUPjSqiXt++T4qFNvkzh+Kx9+M9BY8PF+axloyOix/7P6xloyOn8L0IeOMvTKHr94y9PvnJ0muT4fdVEPElxGnREeMm6Ppyc0pJHvFNPTnxOK5S6ELrFXfGWhHxWHElQ4LdXXlxNRcve8ZSb4lEVadDvUucvJEYVlry4s6IV0urPf0HB0qR8UPvZw5UlacTTGfixaYPRmskNR36ka0VTiOjL2iHihkUSdFUjVo4fgiifVkaXdOXG8ThQ1NJ4L/AGP658QfUgqOJOdCsuXE4dXUsdGVpEUai0JTq6Llw33S++fF1NZIfsOPN+KOFwuglTkzh+Kx97x4niLGGL844y0ZHRY/9v8AWM/Fi0/hehDTGWqyh6/eMtV98mLumT8T0IeJxLoyuHWUqi0ONGqT2JcXqcCDXc+T0IQTkSxloyPisNZs4XryfnzXk8YQtmfj7qiXdUloLQl5Iiu5vk+HJz66FOlCy2URqvJ3JnDh1qziaf3jPxYtMJukWR4VVqR4ajyaJROH4LnKNyoUojh+CLBRpyaqQ9xTBf7H9c2qliQ9YH4+6pTkyfiylYkdOVnWo9DgrrLnKFSPDoyWsfsnBSEqc2cPxxXm8eJ4ixhi/JYy0YtMfe8Z+ItP4ZaEGrSqKouRchvqiqLkXLcuW5ciL6sqiqKouRJroXLcqhWrQdH6lUkQfQqjiNNiaoi5FkL6lUXIqjhtKRJlUVW5VFVuSaoRaoVW5Vbly3JUqcNouW42qlyKrcTVxVFy3LluVW5VXFUVRctyqG+4qiqKoqiTVYlUVR05TZVFSpU4j7WJqnOpxOsWQfasHoQ8UV5sh44w1fOvJf7H9Yy1WPE8WR0WMNZYz1jjPixRw/HH34zFgyGPuWMtGR0x9+FSfiLT+F6EV0LUWotRahrqi1FiLEWRLURWpai1FqLUNKqLUWxLIlqLURSocRxSOHG5liLUJK4tRai2JZHYkkWotRbEsiOKIxVCxFkSxDiiES1DgixFqKK5lqLEWRLEU7ixFiLIlkS1VLEWIsRZEcVVFiLEWosRJFqLEWIsRKKSLEfjR+NH40OCoyMU0j8aPxo/GixEYJxLEfjRYj8aIRqixH40WH40KNa/ZYi0sRZ8lO4tRaiw/H8sapQtRb8lnyWfJKNEy0s+Sz5Zb8lvyJalnyWfJZ8lnySWhb8lvyW/JT5JcGpCPaWPcte5Y9y17lO4se5a9y17lj3Gi17lr3LZblsty17kYlsty2X7Fstyktx1qij3KS/YpLcpLcae5FPcpLcpLcpLcpPco7iktyktyktykiSdBJlJblJbnfk9CGmMtVlHF+n3ixxuifhkRiorn7sZ+mLI6Yw9cfdj78fcsZarGemPE8cZaMh4rBkPFY8Pxxh6/ePvf1zXKWq+8Z+LFosY6vGXp94s4fjj78Z6Yshpi/JYy0ZHTH3vGegv4ZaENFjLVZRxlqvvFkdMV54zxehDxxh6/eK8nj7/AOsX5LF+SxnjPxxloyOiwZw/FYMh4rGHu++S5/8AY/rmuUtY/eM/FixjrLGWscuH4rH3vGen94s4emL8ljLQjosV5vGf8UtCHisZeUcWR9cZarFkdMV5PGWMtCHisYeuK83j7/6xfksZeUcZ/wDnGfjjPxZHxWD0IeKwehw/BY8P3ffJc15yGLnxNY81yn4sT6Yx1lzbNSXlHLh+OK83jMWDOHpi33rGWjI6LFebx4mi+/4paEfFYvyWUPXGWqxehDRYryxn6YyIeKxh64rywqV7+dSpXvRXCT7olcJY8Txxn4sj4rCWjOG+1YPQ4fjjw/d94rzf1jPWP3hJ0JPsI83yhqzieJw3WJxH0OF4k9Y/fPrz4fjivPHiegsGcPF+aFhLRkdMY+csZ+n3/FLQSdF1KS3KS3KS3LZblO5FHuWy3LZblsty17kY/Ja9y17lr3KPca0Lfkte5a9y17lr3Euha9y35LPkte5b1FNOdlSz5LPks+RxLCz5LPks+Tj9q1OEruGmWFiPxlhGNalhYWFiI2ybLSxFiLC3uLEWIcIjaqRVaFhYiwsHDqj8SPxo/GfjHGhYhw+Sc7X0LCUehYfj+Sz5Px/LJRon1LVTU/H8n4/llnyOHyRh2os+Wfj+Sz5LPkhHtTqOHyxRr6ss+Sz5Ix1+yx7lj3LH+zLH+xTuZb8lj/Yte5Y/2HHQo9ykty2X7Fsn6ji0tSj3KS3LZ/sXSupUpLcin1JxkKMkiUJkYyRKvQpMpPcpM/5CkyF1Oh3ned53ndcd53ned5Kp3neV4hWex3Ebis9is9is9istjrVdCsti6WxdLYulsNumgq7F0ti6WxdLYulsKtWVexc9i57Fz2JNlXsXPYuexd8ZS0I6LF+ccoacpcS2aW5xIuS1oR4bXuPVYsh4rGcranAV3Euwlzqt+XFlfxCCpCOMPX7wehwF3z5XKtOfv58SPEb+CPC3G1EjNS0weqxn/wCeXEvbIx/5acp+Lxn4smqxRwq0afpyqtyTVCHgsJPocLwXKHryqQ933ivOWMvKOPE8GLlVFf8Ak5Q9fvGWscXocPxWK83jLFkNMfesZaMjpjHV4z9v3/FPQjosX5Ryhpymq8RHEjxHLo+hCFqH5RHx+tEiHEblbJc2Q8Vg+PE4s6vocKNkD88K05S40Yto/Nc105caTqoo/A9z8slC16nBh7iPiji8Z39GRdUnzh64PiT6po4T6noOspcuJO0vldUXUbSFWvxyn38ShCH46shNT05y8o4z9Pvk+iZwF1b5cTxePE8GRkn05T4lXaillCVWmzg/60cSVqIualV6ClV0ONJ30OF4I4jIeJxGynQ4esvsWpJ0Qqp15L/ZL6xl5xx4nixacpwdT8UmRUkQ9fvGXlHF6HD8cV5PGeLIaY+/GejI6Yx1l94z1j/FPQjosfesoacnK3idT/1EDh8S+pLVHA4TTbkP/aubIePPieDLoqD3P8bh1lVnG8B2Lh09Th1XCOFBzlVk1WaXLiRd1yHxOJLoLgv1KUiR8UR4VZ9RKi5w/wDOE1Ugkq8kqSfJ8NudfQnHqR6JHF60FpydY8SpKUpH+PGifN+UcZ+n3ymqxaOEqQ5cTxZXDiukGcGPryjw0pVJQbl8HEXaQVIInqXKlCEfUnFPqcPwQ415y0OF7vsiiSqi1noL/Y8ZeUcZ+IuU0RVFyh6/eMvKOMtGQ8VivN4z9MWQ0x96xnoxaYw1l94y8o/xS0FosX5rFkNOThF6o/FDYUYrRD8o/fKnWvNkfFYfjhsQjSciSuVBcCKfKg11505S0I+KKLCGmK1ePux9w10ZDoub8o4z9PvHiPocPrP+sOKqxZHRYS0Yn2EVUXDiuTOH4LGGs/vFebxflH7x4ni8WQ9fvGWscXoQ8VjHzeM/TFkNMffjPRixh6/eL8o/xT0FLpoXfBf8F72Lvgb7l0LnsXPYuexc9ir2It7FZbFZbFZbFZbDrVdCstistju2KyG5CuO87zvO8k3F1ITlNVR3nfud+469Cktyktzu3HOb4vRlHTUSdNSkty2X7Fstyj3Ixe5a9yx/sWv9i1/sKPVlvyW/JY9y35Le4t+S35Lfks+S3qWfJZ8lnyWfI49V1LPks+WWvcs+Rx+S35LX+xa9y17kotkeHT1LX+xY/wBi1/sSTo+oo9NS1/sWv9i1/sNOmpa6LqKDXuLX+xa/2LX+xFO3Utl+xbLcpPcpNe4jXqUluUn+xSf7FJbiTvfUpPcpPc79zv3GnVHfud53neSup1O47z/k+Cs/grMjcd5WexdPYulsNuqLpbFz2LpbF7/UcnsRbSL3sX/Bf8F/wV7i/wCC/wCC/wCC/wCCUi/4L/gvLxyIyPyF5ei9F3cXovRei9EpKjFNF6L0fkReiLpUvRej8kdy+I2qovRei9Fy3ynoLTF+SyjpzboKcWPyWLI6LHjPrQ4UbYYSaquVUvUnKkGzgRq6kuiIcSL6Yx5s4dXJi1ePuJOiFfIiuXvWL8ljL0++X5RcR15T0xn4srLphLRkfFY8PwWMPd94r/Y/rGXlHDidB9Yi58SdCM+hw3rznKhw6k5P8uC5Q8Vj7sZYsjoUKFCh7ihQoUJLoUKIoihQiihai1FqGuqKFqLUWrbKegtMfesWQ05cZunQujaqsVD3IcktSPEjLR85aEPFc60HxokO/iE5UQuNL1E6qpxeL1tRJNUK0hUUb+rJa2rQ4cbYn+Q+2glpQWENOfG4jTtocOTXoQfVk+LaJ1VRzSPyi6yGI4srURbUqtnvWMtUVwl6ffKTUUcOPry4mmPEfayPWKK0ReX9C96EfFF8d+bZwvEloRXQbSHMjPyIyqS4jWhCVeS/2P6xl5Rwmqj6R5tpHEdZCi2cKHrXnY3I0Le/FvoQ8cfdjLGWhHTH3Yz0yhpi/JfxT0Fpj71i9CHjyl3cSg+HGteTdGhV4k/gkqcTpzmQ8Vz4voPu6JHAja2cVdEdZ0QuiPwxuqSVZolGsaFvE0OHwqPry4sKnD4aosH0OHpzmqyKC1kKNzEqE4NzJrpQhqVrxOXFg3Sg4SpVnC1WL8o4z9PvlJd4hug3V/3jxSPijiJuhTtIRH1kyUu2IuHVEJPRk3SLZC6T6nD6cMi68vKRKPQhHpL7Iqi5Q5f9j+sZecMeJ4sXLiQcj8fUstOH64MescXocPTH3vGXpjLQjpgz34y0y4emL8l/FPQWmPvWL0OH48kuLUpx9yF1OpJVaIxUUJVnXnLQh4rnQSSF5v6xlqsZ6EfFYM4enOnXktWRjTnTqLzYoU58RViQ8ljLzjjP0+8OI6uiHGkf7xnoyOiwapFnoXvQhEoWqK6HDXYJU5U5cP3fY10Px81/sf1jLyjjxfFi050GcP1+8XrHGWjOH44rzeMvTGWjI6LH34y0y4fji/8AYv4p6EWqFUVRVFUV7i5Fy3LkXx3HJEJKhfEviXxL0OXci9H5Il6L0Sl0Iy6IvR+RbMv+C/4Ypd2hf/8AiXv9S9/qXS/UdW10Ky2Ky2Kz2Kz2HcK+h/yHf8Hed5FSp0ZSe537nfuUnuJSqyk9yk/2KT/YpL9iju1KS/YpL9i2X7Fsv2Le5dfQtl+xbL9i2X7Fsv2HF1XUtl+xbL9i2X7FJ/sNPp1KS3KT/YpPcslWtSadNS2W5Se5Se5Se5JSpqJT3O/cpPc79yanTUjB01LJFJ7lOJ+w1Pcgp2qjKcTc/wCXc/5N0d5G7rTc/wCT4P8Ak+D/AJPg/wCT4FdezvLpleJ8FeJsiV1UVnsXcTYunsXS2Jt00Ky2LpfqXS2LpfqXvYi6V6F/wfk+D8nwz8nwxvqi5F6PyI/JElJUITSXU/JE/JE/JEviKSuZei+O5fEvjuSkuhei5bl8dy9EpJpkZKhciqKoqj3lUVRVFUTKoqVRVDZDQrg/NfxT0FFFiLEWIsRari1FkS1FsdhxRBKhai1FEUR71yoiiKEtCOixj5PF6rGWgtFjDT+8VrLFebx/7F9YvyjjPWP3jxNP7WM/Fi0wejI6LB6HD8I48P3feK839cqc5eUceJ4sWmMPX7505S8o8qFChJdCK6FqLUURRC8mURbHYtRatiUV0LUWLYsWxZHYlFUYoqhYixFiLEWK4sRZE/HEsRKKLEWRLEfjRYiEehYj8aLCwt7iws+Sz5LH+2U9BaY+7FkPHH3rGWjI6LGPk8ZPrHGWjI6LGGmMdXivPH3r6xfnHGesfvHiaf3jxPBi0wloyPisHoQ8Fgzh+v3jHzl9YvyjjxNBYw9cZaxK4S0ZDTFeTxl6feMtCOmDI+bxn6CwZDxWL81/FxNBaY+7FkPFY+9Yz0ZHRYx8pYy8ljLRkdFgyGmPq8GLzx96xfnHGesfvHiaf3jxPBi0WEtGQ8Vg9GQ8FjD1++b5L/ZL6xk+6OPE8RYx9cZeUcZ+LIaLFeTxl6CwnoyOnNcl5vGXpiyHisX5x+v4p6C0x9+LIaY+9Yz0YsY6yxeqxloLRYMhpitXivLH34vyWMvT7xl6feM/FkdMHoyOiwZw/HHh+v3ivN4y8448TxFpivX7xl5RxnoxaLFavGXpjPxZHTmuS8njLWIsYeOL81/FPQWixfksoaY+9Yz8RemMdZYvVYz0FpgyGmMdZY+7H3YvVYy9MZ+n2MXOejI6LBkPHBnD8cGcP3feMfJ4y8448TxYtMVq/sjg/JclzloR0wYtXjP0+xaYS0FpyfNeT5Pm9VlDTH3rH//EACoQAAIBAwQCAwEBAQEBAQEBAAABESAxYRAhUXFBoTCBsZHBQGDwUHDh/9oACAEBAAE/Iav8U2it8yFr53uCQnz9i/8AU2/FPnat0yS5AP5WKSyH24+Zm8uRbp810sX/AJtfN+4vg2I5I6y2fAhKYlKImTSzaEolEolEkoklsQlCI3CV8reDwDXH8yxeHnTCPqTxRPATwHVE8UTVD6/JJ8zuOwhnRymczmQzECUSv/3JXJKJRKJRAzGTQzECJE6HVnTVZEN8G6XwMlvEfIgymczEvpeAgwYr61QtWJc0gBRzI5I+h9NP1IcWhDNtIPc0iXa0C3YIP+SCFwYDEjCJNV5GQ5einzMzXmOaPofUngqE9kC1FeSS+eh5xl/CbR5VISU8SeJPBafqIvqLofQ87H1IwGuSEvNkFFAEFpBMMuzOzO5HmmijoYDAQiEbEfA/JEN0T40mAnjRo5fC0fgxGEwoxGAgjAY9YiRyRIcs7HcS5GRUfmo5HY+h9DqhPgieCJ4VgfyT5D5OlyjJMwnyM0n8jNMw7SRZhLnpu47jsOwhwyPDMTIZMT1bKZTOZTMjIZCVySv/AAW2kkkrkgZjMZDIZqLmUeCHDOrOlFFPA6aWI/5KmWyAn413xz8UrWVoW8/90EEIgghEIhwYjEY0YhhMBjI5O8mS5Rm6ixyRBYQTwa95Znk+eghyO47CPDMDI8MwMjyI8iPIWY7DtJcjtJcyXMyTNMvRv4Gf9UsOuuMTwRPAnA+h9D6kckRwEcVKrOeT5k+Z2HdkOWQ5eu4TGYzCYiHBDghcEI2IX/a3BuNiZsmCd42ExB7OB62XkYivL3Nibtj7smpru0eBcCNCYmdA0o9LH/wG3/nHgwSwNSoI9qUcikoJNM48HIh5RiYz2S2G8ZPcamNMrFhjUshScsLZRpd//wAcaNQxIkL/AIGJR/8AlT/3T/4mDZXN+B+mJMtmL5bFLuTZDZM9zgRPATWYKJC16PkkuR3EeCPFJrlM5nMxhaLMZiHJDkhyQ5JRKJXJKJROkoknWf8A0kkolEogQ5MhmMxmMhmI9KJEgua/AvIkQQQ5ZARtYXkZarLIzZ7ky8LDm/wuuX96YRpQjAYjALsGAxmMwiR46PVJnLEl5MjIcsjybfI3STuO4i/I7i/juHk0E3IbwSzuJ8iXIlyEl2FzdLnm/cQWXknoGUbDC+SE5fkjkRjoniJ7iCeFAgTSOh0ZGgjMZibyQJRKJIayBAhyZjIZDIQ5MxkMxmMpmMhmMxlMhl0ID0qMjoQ0ICHB0OjOjLZgTWUh7LSCeBPFafqKpN5B+hHPRLJlRIe4anu8iXlkTs1jcdmAwaEdkKkd6EOCEQvjxrZIvHmC3eu3rNTo9Jf2ps+Nf3KbhY0SbiNFzun8ZAp/2hv+bps+1qmtLC1Qy529VzEn56V+NNtGhCDEYB8RF4EYdahDSTD2Q1iCRO3ehjMekiZEGMxGIfAIdnkjwR4HJEGISGIgR4MQ0KHBAhcEOBEUlBGrIU+HVQVqb6a+q8u6bV0E/lUFotNu9TeeKx/bRuE2bMyMlOSwtU/n0bSIgVkL/em+WLRLmhZZLDP0p/CIiEwluWr9Lps+1pHsriP6dLxaoZa+9LuglF1WV/SnwpePVPoOn8AqPWLHVC0hpbsga0YbS1CxOs3y1Qy190t7OqbhYqGX/Gb9NMCd6HpNdzVM1vovDwtkvpMN+BWw8q5496JKYngHSvMs+BLbbiUvl6e7TeLGjBsw06fpT+EaFIri2r/emxdoWgqDdprxap/R6s1AZfSXqfFTspfqpuJUekWOtWN27H8OWXGeRJIJkM3uFlClXLpaoZ+lLpE/kWKn2vj19Ml+RtloxOveUM7IniTxEybhYaKhEHgtLfQIbBnNiYlyOw6sljsjr2Uh7MSSWZTIZjMtChyShtab8El/em+WtHW4r2DsXu6XFJQkLVvfS0JdCMJbpyA2vIVbtFrPSoZb96TBYh2L6Sf8FT/inxpfv1el3en1j0tZgnIT3PK0SHeBsn4CaFRFreLVDqV1TeLaffp8OySSUSiUIQIECUQGkIjQYR+RXi0Ky5EMzg0dOg8e9IRCIXAiLCIyjEYzCYxOldp2EOWNVG/kjyzuJ8zJJQQFLxfeR5Uv/wBxb6OOAji0Wx33ICOAjiI4hIbs7j2XRwxGAkN4EioPoLnA+MH1EKeA5IIjbQ3sPOnySfM7BPweDq6K9/1M5mM6MxCO/gyENJQ0+kkklErkdT2JXJK5IcmYXLcTDoymQcVxQXFR96WQzkRIgy6KBmEzqKB0J22NlbE6EwaezyYTATwOo94jkiOaEuRHISYTQ5COWgvrWTISDoW/nR2OxHkgLkQIkCAlYQoIcEOCHyK1lj4l4d02Fmn0KfdpuFihlj7fzo8O1Tay1Q6Z1dXdEIg2IRHhGJGEwmMUFR4MGj4tLYrGsYTCK/owE/gxmMUaERmxjMRiMQrfsgQ4IcEISUlggYCHBC4FSYhEEEITcWKn3PilzosU/hpTb7VXs1St/wAArXxTx7psLdPoU+/T6x61DP3fxJ/tTYu6fSPSoZ+zoYv9afSXz94Ur+1PrFnqhlr7p9Kn2afSLXxa+msZa+JWfdXv03xWXxXKbCxfErl3pctHuYsLfxT3afWPSoZe7+L+FPj0pudHpUOxaoZ7NDPUXxX+afGldTXei1Qy19v4h7tNzotUOr/pSy3Sr+qb4qHWJY+KYY6HUgRFNhEKdbzGQkTMZjMQ5ElL5HNH9kTmUlxfCeBMo234hf2puHpUM8+6HVnZT4d0+gWaHU+7Qz0KVTqk8fiBc6LVDPLto9fwU+zTdPSodW/Sllun/NO4lan8hOsjfyGUIlEPgLusIgXYRQIcGAgYhFgxabHpNDzCZFKu2xvR5CN9pIRzQlYmS5amyO+uMF3Rb7LPB1RPBoYO4iooOqYKTEtzL0eWZIwmSZJLmJ3mNiS5kuRLkT5jHG3kTcjsOjO42XuIVZnYdx2HRnhPJCiDe7aGczm3cSSTcyGQzGQSfySiSdE9/ROrNodVBJJJI38BEOiVyQIcja5HST7ZmI8kCHItwhyZjMZBP9CoA1tjZ6ep1ZNhNLamQZtnZPDUKeI8TY2pHYPGnujsLIcRgUFzIZTIZjyR3J8nc7m6J0I6GL5JcLXxZIWzIxZSsMi3yyxjjgYW5IZTCLzgsT09Sm7tUvUpt7UtSP1U+PdNwsVRtq0Q/ohELgxGISFiMIxmMS+PjXIcs7jdLBfMslzJczJJfzfSS5Hcdh5TyRI8shyZGTnQwnQ4NHjMBujAYNDGKbpYTAReBVPYgQIcEOBFIhCm7TauxU2U+FPrFipXqpvdFv53dLHxVUdiKIXigQ6hLbsgk4THrNJrcS93hkfZDkmjYT0ZI39qb56lNlJ6Kpb/AIunw71T0f8AkehTb0knRt9WST11QxX9UqkccfEHrDFYcoTT0fd26GXKbu9Nj6000elTYuxUM3LtpOrbNL/wLHVM7lS9T/gDvnqUOko3m80rm827aSREkSk386M/Sl+GlzSjtBkl9J6x6ujXwD1VT6TpupvTH/lQy1T+ml/XWjESMRi1VNe6GJ6eoWeixm5h0bw0eU+9JJ09dUtDLwLWwsaqs7E7QrUMt7Kf10+kx/5fEemz0/iQizIyGQhyNuG29EolaNjUu19jRIZPtZMiGttV/uv9oeXutATekvCUx5VJ6Cp/XTfVa1Q3tSs/SRqz89DLmh0YxaMufCNHqHpa4+bck/Z6q+n5aVmmsLVDFf1Tb7Fahnhpe7Te6LNLaVOvdHoaT8CVzGExaqpMQER5G7yyIbfIU23OwnzMjRXhjbSDPwD8YX7QPbvBsjqieCMDTrccb6+vyFs3TIlweRJwx5jEzuHmEFRlMxkHDciDfkg86LMZxPE1kxNNIZ20WJpmrwHNj8mEZiTwMYlYaL0RhGEYRMbjpXeTMjEMxHk29nJXJK5JXI2hl/HWRm/RRoxaIxOym9WUI9U3O3RJ/JJJRKIci9uxcpkRl0DenuLQnRvtivYI6GJkOGbGJ4W47CXMnzJvzGePnXNaHOxt8dFvnAG4WH2COpInQchgjmRiRzN244bnkNdM3ya8Pspu02LsbuCJ42aGNfDG1sIe1QXqESpJXPjVf2IuUxScaQIpCLRC4MCMAxIRD28jAYRiRiR9AMSMIwtI9oXJhGIYhgCTRLzosAwaBF4QmpbaCK2gPhPFmJoMQwjm9YDbc79DYuxXXBHlkP8A/Q8SmledcGSLNe/JkIwyAjgI4jl7iD3rdLcEmfkLQLMMsembdwNgJcxRXkibcia87Cy47BZsStM2gS8szM7jtFLYMRi1E2rHgDAYkQ4IcEKXRCIXBCIR+q0QRrf3Ur/Sllmn9VL/AOCV0tdfCpG3NroeJede4BJypEBa/wAAil77hlp7QJ/wKI5hm/ytAvHqatklj7p/gomh/vrJI+5K1F8sXxA8um9+ll/MkdxMk9dUq4MT1erSxpDnR2qvwfGv0p/xT+hZQy/tT7NLLX3Ts+0nR6Mf2+eXi1Q6jcUUFqrbYKRVOBxZrRiHlmxo91sb/KEUyegJC5QuQngTUf2zEWdtWeQN0mkGpLKRein0dHfVNyVqLhYqLddOv66fap9FoxaestJJGXNBav8A0JGTrFsvQ1iwVvFardP49GJ/BGK+E/UsWrJL+9L79xOh/Iqz7+JX9UrvLFQ6jd2LEc5A9XY24+GQz0bBquJ3nAgzJJaEU6fpSlgmOwa286tfELA/VpBGl/am4KyovD/Eb2KGfhp9RDIEMuLR519sS0jVIR2fL1ysLFDq9vQePiP8aRrc7LFRAm9NeSoZ+lL/ANqrH2/iidymaeJuxILcjkiB9D6iSck8UTqCzWCgRzCfM7C24eUxchUQdpienHd4Gc4GYYTA4ri5DEMhnQqW5Enfk+HuhryNo/YlEkokVozq1O+5TS2KIyPSoY/uoZ7VDPw0NH4qfTU+1VFZEwCymljH2UOpNoSiUSiHIoZDIZjMiEN/BmMhhaZooSM5nMg+YuzyZ6PthHhnRkCHDIzY6ECex1Z3EuR1GWfJk0BRwWL3ZjMJgr9SmwtU3aW29YRbTAt0tP2iFCIRCIfyP9geOLtmwtNj8CH2ZGPRYdA4bDyTot3I6LvMG/3MjMzI8iPISzU+CPLIciHIiT2MsgE+ZLmIUF3ktuJcxPzE/MYm3Cbw5mmaby3jRsHJLmZpnj5p/YHyaEd3Bo8AwiOSE2Fz6j6n0M0jxfBPFGAYUTwQlIVzqieCPodEZkfU+p9T6m+2CbdyOSO6MAag5YltxSRy6W4+aZpPmdpDd5Ics7jsO7RcGEwaWMaR6HwGIx6bxpCsYjEjEbVhU7RgMBgIcG0EkRpsNFn3T7dLPcfOrxa+Jbuj0T7CI5H5iiNhlvam/wCBoQ1KOONiHt0aIj7IaE9bGWRz/CUyQ0WhRO4t7chW0s70Zd6pf70tvVCovdHpU2dlDPap/JT+KhnpKf00/shLSU9GthaBn5asqGNs+6XZ1TfLKGXdqbiVDLPv4uy52/iu9U3ix18QW8/IrFtGTy3MJeDS8cDLX3Sf86OR3jZC1ubv70sXYiCCRti2PdG0e0DinYTpqTWaHpmk7nm2EuNgR7Mb+FP+lN1N+ipvdHpUMs7U+9Qz8VP46Vf0p/TT+QQnlm7bpe6pTPSVNgKhlj7pfopuFioZfTX0zLH3Tv8AupZa+384vdHpU3eqGXyFpuR4+tGJx95a3UNqNJrWx3SgVo4I2Jkm0F9IRQkLT9tWk7o84Y3ASSnQ/nCr3R61Nj7dPv0/np92n0lP6af1R4G5QIS09Q9Cn8dNi6CoZ+lLprhZQ6lfVPs+6f20s/b4k9gqVm3tbhRNiXM7juOrPNBHhkc6UJljZCM5n0zguRUz5EozosxkIfxpKJRJauxUWFgQ0Sfe2t3amKT4G5IU9nfXwWKfxU2faFai50erQx5nmhnuU+zQ7D/1+JPSdNi6aSTla3qp6CpfZdiob050kkb+RKJJJHUyRDYklEoaO0lEkDIe6SiUQIDTkXG5mI86WcVcsJSJmMhEkJ51LP8AIbgv8qGi50QQiBF9YiKSCPBiMY+IVO0ui0mExi/kHqVHImPsS8seTO4vmQ9t2SI5Y25DAdjsE1G2PzQdNgK5bwPgHJQn4bFLwNlvvBhEckRyRHJEmT87CXJH1PoRiLDeLiyPqfU+hvpiwsR9T6H1IwEtxB9CcD6n1P7pIniieJMbD2mqDHOGR0adp8zOJUt4nK0vGky9GhyOPDp7DdolRuLWP7gZw0RInEnHSlJ0RyI5IjmIURL8mwcvQZpPkZDszuO7OzGKPLO7I8sacsVMVAgRGrIiZ7aUdRndyI2ahEVH2YDAYDAQuORFHgiR4ICP6IGAhcfIbx6FN2h/7YsKLTkIa+mr2UgeHWjO+EhI7uT+6WfdNw9Q24oWI5uJDjdDFY3pc0q4ShpnsbCQ/BYQnqh6QqP1QrUekelT+1P6vi73VqtPTUv3qfzaPlGT86WOoekqf1VLPPv4g24tU3/FAzm5p/fpOr+LdRvnrU+pRbZFaIR91TkUtpMn9gXYx/akeHQ3CkdtVzPk2d/0aWfdNr0ltP7HaGU3bRizv5GysJvJOl0JF+0bTMfYrlb02flB5dhonS8lR+6FZUeserSk+zp/bQ6o91U+qp/RT+Y8CWyWs9A9ClP+Sp/dCofxh+sW+qfdpvpGfpT++q18Lr5a+HtuptVCtpO7di+lozx5pfqHtQ2bKqDrg0G9lTe6PQHWc5OBKX770Zf30iRt4J0BojTsx+LkFoNFCG1o/To3DVoM8IhUfshWo9A9KiwXbTb2/DDPfoZ+el0j8mj8kNOnpHoUeBepT+orU/q+L+setT79N9NYftT+2mxjSvxJFrVnMot7BBbsymUzaTpBmIciTkeUDoohEORNaNjc/amdnWjGTvJaiovFim/vQ1Ip6Alo/Chj3aTkRbnrYu0K1M9Sh2LFNvd8JM99UMsuqX71N4LS5p6x69DF6lSsUt7PiV89Cnb3k0XlNEIHEokkkb2kkrSTYGhVklEo2+Cw4MBgMQgzgUVjEYTAYhSdtjEYTCKgFqa0uw7jMyCIvNmR5Z2HcdxyvBLkZZnmeNSW/kzUKhwbsWwyD9CfGD6Hhck8ETwRPESW76Gm8DbtlJzBNFjbemIlmbPIxrbhsmihxWFpNkaJ6bYKhnmcZ43IIEDPNu4i8hu8xDYp3M0zTJJ8hk/L1Ul8CKVmNTovB3GBmJjXhkH1o0HeQDIHbPB47h8DOjOw3SPIm5jzCbkZIwKYprU3Btpqc+2qU8SeKJrEC23Q+gug+o1yF3xyZERzI5owh7qxaBI2+Yb3qctvVwpwGdd5Ddq5n0OpybPQZxli5AyOeSYk8yXMkOw8odjsE/yDdFS1Ff7aXgZMQiIaM+2KfDoS6wiZS5obdDS2mwti2/hJvSSThEjTaVGl3eleoiTPBG8uCyOoC6NjlEksm1Hu6rfs4cDwDYq+5tqQTvImnqF2UOmNFvZSlDaEU2dIRCNiH86do0vx0p/I9Slein9kK1P6qf302s9L4r+wvgC0/ZTYWP8AgZYvh9x9lv3ow3ZEi35oSTMT3BvGafwZegFyu1utbPumwsCWtmhxX4E+xanKljPdoZ6AuUiG+R02q0NETRYICR04tkcGIsuluxfKGtBMt0N3guWPAN6Wqix05lztTd8KzPTVPhT/ACaQIb3vbT1KkvVS3uixUMs7U+ixUeoW6XpfyCosLYqP2U3Db8R7tN0sXwd6K1d6PpyliAVtt4EiySGhVyFj7U/losItwtp+lLsW9G2uUEjqWnsU+gQ0JEZQiBC0H6NHxEyuJpntDUpoZvOhJ5ENMClH9mlnQKhGbcjSleCxPVt3VOZ7im/up9yn8FDqH4dHJpHUnp6TG/jSr+tP5hWoZZ2p/ZTc6+ReWUWlqn0nT6Xy4zrFsRgTq6I7M3OP00dmPZ+NG/qqvw0WmmPxiiVqLGW9M1JFJPCGezSm/rVJJQlGj9D1aTGLcO850RJapfwb4GxROn5BUhE+gc07BvKhbvcvUplztQy3vodNsvs0+NK7STsFXLT1CP10q+lY6Cp/T4hepDprG9xUWFihnok6o9L44h9hAjkjyR5emkg7M7M7MlFxutyfJPkJJ7hxkjPLzTAugs7JEK5GsFHIjzeCORGJ9T6nKfTR9CeCG4WHi21Celjp2afPMnSJpbeDMG68yXI7icMNN2HYdhHYaBkCXhkX4ZEXYl4ZDhkOGYmKYQLdMjwzAxm0z0La2IyUdp2naTC4MjQd53isiDdo1zEXkzCjzGQzGYcFxayaOY2Lm1cmR8KDKZh6OqReGIWboXhICmwhKixHhkeRHkdwrseDuG689KmeQxqI8ihOSbd4p7tNMQqc35TxrvAM2GHdtvA8FIvxZEPTHFpn2yvIqFJ5dg9pbD8GohMrbjeCSngTx0ElK8G3OoxPGu/vTYK3wL1tK371jRtoadx/hY+6fHS/hV7GRzd1rKdnpfSSU+iWhpxejx6p94dZOyG6W0SE4WGQ8iHsCII0TeWGwilk0QiII9AghEOCFpwQiFpDQQ4ITYhcCoGAwIwIwCjCIXBC4IXBEBhGAhwQ4E37kEOCHBCE3dHoataK7rSCNLHQVKr+mkEUljUORvcyxT7dN/cVqHUuI9U3Oh/iv0qlQ6L6xYLHa0RS8IT5g3Y1PLZISZyx90zt6GNh1H01/wBUrLLBE0ujcE2tiV9Dpl/an8R49pGO7Kqs50P1U/uLm4fcEq3ZhEQHoa5EicPai6eECHlJh0vif6ISegeiZ+9Nj7asRCe0fwsraT/0YrEwJjhEnoDfyoMV3Wi0k/ZHin9VLs09L6GxGB9us6P/AFJov7kk62MtUuzqm8bVgn4HY/X5juxsQWrpoghJGj4RI2piXB3bcud0+HQn3p90ePapvG0xYe4DIOPJEG0SgZd3p/IQg3y6Iiaf9NX6qf3CWFNCLyTk6Ircrk2zvr+qJ8V0PvjxitsNkeUQw7p6w8IuaGfs6f3dE0BDH/8AlxQ6j72kgh5w1o/8tBGrPUWkwSJlruln7KgtTLnQ22n2qfdpvVTxpWMuPhZ+lRYqX/rRsRSIWJxKBcH6Onx6Hca6Qzgd0tfDum0QfzajRu8N7aM9yn1BVy25A22GPtq7eqfY0lxtbiRJyELe+n6oViTVc2zb7O9AjPYZ6QjWthapudqILtB6MWhNC+DZLEo0HoUMn9K1jS10FQz9FRSoudCbaffqSoudFqlukXi38LsI8wzCI5I7o7ISO4lifU+h9STaCcTqieKIB0OpbeSeKJ4oSTbExHyN8B4uF5pUtT8PgSRMTKzqmx400uZkk+Y2avGIO87juHtuN3Z5IcMxMxM7hQd4pJWsXo5NeWyiEiri9hcplEPZ4YuQyClIGvIvZFBc5mZjwSTKkWGTQZTdqfBuh6bLpHzijS/OsWEZRTczhG9EDISLYKTdu4y6LOYRBucBcIwibwMQcfYXMZx+cZR5tyUn4MplGThYyk0c5l00ijkQZde2hSmeab1baQ0u3RcTFwRDo9ump2UKziG8Ro94mjahZO879CQf0FCOwgO9iNER+CnYsfdNgrUM9mj60Q1XlNasSkRYZH+3SqSwVF4TbQxd+xGsI9IhEIhEDSj0QiFwQuCFwIghwYDEjEtJYDAYkPxIVpuhtuxD8GAxCJtCG5jYxGAYQ+MRAwjGh8IwD1vkwmMYxhF4XlosDQYA80ixwDGSjEFbPHTYBgGILLS8mAfGYjCIUC8DW14MCMBgMQoY8GDQwCJKCEOCPGlgIS8CqH2yHBDghwQ4Gv5sgYjEYhS2hFDYghcGIa8F/YgQuDAYkQjshwQuDER4FX0CBAgQ4IcDX8iBoghEIYv8hQQiHFTsXu6bBUMv7UwnNY2WYa8F5S+EedPjSw/Wlfmm2m8WqGftT6KoY7Oqf3/FH6o2hp4PtMmGOg+gUWOpWu3TZ2UOofR/EHonpUM9gVFnULWNFzul+ilv5Fjqhl/b4n6Rb+KXuhCs/gsZ+9O1LtUsv702dBfxbNVlSruqbV3Ta6s803rU+PXxC+m/eiEIUK8FioudDfzptfdDH2fah00z0nxR65Y6odj2qsqX6Uv10+gWuqGXd/ivqHrUukel8SsL3dNq7FTd3psXdLLFKu6p8O6bXVr+1Pr0uzr4vdTfuhUeiWqLnR6VDsbloZ580OumVHvOn1D0qGexTMlRbpqj8KpY6oY9E6n6Bapb20rvR6Hw2MjVx3HedxLkMcbE+R2HYPIblYlbPJ2DzEOGJB5jDOpDhkOGR4Y0aPCjR4Z2CznYJfqInZodghuHJBQK0ywJSnoyeTMZxKc+TKZjOZxCcZDMZDMbFz4M5lMmkkYLkMhkM4txvaTOZTGMo9cKC+kzGEMKTlwXp4MIxDCJWGKSoTfJnRlOUPCIyEDIPmELe95MhmRmRBDG9OJYljdohySuR8ghPnZpGYyGRGQ3CbCTkyEOTIiEShC3jIZtI+YUs7MxmMxmETv8mZEeUZjMhcPceNxkRmMxkRYeCPJDkzEeREyJ3MxmMwmLkDfZmIkOTIKOBAhyQGX1aFAhyR5NolbsCUzEOSPIq94LhwZCJmquCU/0IoYvtRB+TVpvBZmPVggghfyQQiFpD+iEQiEQhVFjYkIjgYEQ4EUiAgrElnYhwJ+oxGJGJGFES7eDEYzCMY1bRgMZjMZ9xMeiw6BRoXBiMRjMAhAiaNWmIaU9vAlua8GAwGExii2YRHgmMj8D0y50mIwkGEQh+BJdEJjLAmJdoRiMehgIH3qb0+cq44vRgMZi03E8MRESKMegt9zEYjFpvhEmdVwGETGWnh15KTIAxmPTYo370sejgHF0pUoFQIabi86W0wmgfuHBgRA5TQzVXqn9qXULtZMGe4lRvuiBa+Ekf0U3Bp6qGftpAd809Chnh0SToprrbxo/BOraQ9C/JDnRFzE07H7KoWKj1BMLe8ErutJjVPUSJuT0Z58svZZNGhCErCR2dHotW4EiTLl0SkSh6QygW9CLjIlCJGyxoUlxTCF7bnjBFlOYruqbpbQzy7+K+selTNP6xY+G8WKb+9LLKTe+qkTlL7WlEAWVS0dG7sTuwh202j2TZCH2Q7U1cpjUhXZuVpuRCwlovRTOkT6QoEssQnvoFMbaZ02JPcVMmxZVcKSPc8gXZGPFntVSxR6hLXmwhZuhkkbkRwSsaZFu43I9yXE22xV/QU4bxNtGexeRj3cimBWo9Pqz+jhHzOWWauQQ/Oj94QYEbF4GbxYgNyQlCUkqdW/qNYhf2FI81yRGxKW0sFimXq0jW/8ARbQy37p9R0+t8aPULXw3izT7tLt8GJoTZcDQwnKvB+zEgFI8whpRmeA1sleBw+CNLnWn12VPpUxu4sJu+dEC09Kh2ZOvAk3dzfMK3BCQiGgZtJKwa7FhK1PnUSUIf65+KrWuqJhgdNsM49EO6FJbLQtaIkC2+kbt3FLoi4Xdcijqz0GqUhjsDbFybphzem4T+ZsOhITRIi4hi7NVdzdHp3aiE21sZYp9Cm4WUMsffxfcotUr1Km8Wvhu9EBuZjIZEZBX2GYyaLGHyilL5ZmMyMxlRK7aJ86POIdUDygjz8syI2x4F97wSq6PCbCjuZRxXHBP6F7b+RcxjGYxBhtxJNzEMQwhHZpiHkwjcJFyoxiQc+DMjCMLTXEmZGZGEZ0KhwJPBmMiMw5veRcyMhIlciIXaFyIhyQ5IciCjN/BK5JXJDkikISCUSuSVyRkOigSiVyMoY4kklDai439SUSuSHI2hlSG/qJqhl9J6Rtqz2iSdW/oSTpJtMjSonQnuJ0lGxb9lms6LNZJHS+gMoUeBNJtZ0MpD7OvhvC2soxmExmMSuwwmEwmIfGLe7kwGMwGMW7TGYjAYx8ZAT5IF5L/AGVzCYSUUbQYzCYjAFoheTCYTEYCAMK2YTAYdEjeeTGcEwiWrCiMGMwmAwkdniNHCYjEOHq+MwCkfNC2ESltyjFR7tET9HtO0SYuBpPyjtO0b/LO8QG/JmZ2jf5f9HkFyszMzMjyzIxW74GRjXlnYQSuLy8QZmJ07sjtuyIJZZ8mRm7yO47hbUsU0t2dmijzLLyZrNmOXkd5Lmd5DCfJ3E+ZPmTm8X5Gy3MkzSTz06eSnwZOnzzLHpXFAcvQvQpjV9KiPR9IE0fdkgsQqRgKk7+KEkuTQId9Uo5VXizT7dLLX3TfTWEKp3E57sgC1V/VP6U2st0M/fR6q/qn/FLBUe2Kj9ETRcFR6R6FFjpzsWaHpncRBBD+hq22imgVE9TRiQ0e/rvpeS18lj6LFPl1onr+gha2VX6afQLNK9S1jT9yzWKrtS9ul2LX38RWMt03OqfDum8WKHVvS+EdT92mxdoVF4VlR6x6VFp6dFjpzN77x6mL0RlzZryo9AsWvnT3tW9LDNPilSKkfYPGk6NsNrkmr3Oqt6SpfZdi+G9UPYpsLe1Pt02Mt0+tT4903KQz9qfSpXyHU62rpTe+qfQPQofd0evRePXFpIz9OqdPSWhtfb0Y2j/wFNNXcue8SSIW4mkk29lDJ2PFRYb+Cp8eyytMseDYRUehTnVfUC+G/XLNDG27U+3pOt6pNv60nRjKe1EjbMYJ1b2LOxtpI2Mp9EkkkBegklckOSPI0CBKJRKFhDkknTx7JJJ0beJ7LWRkHqUesI+sT1vdFpcUOx+0ggWn9aDNiSR9NAhqE7PAtCYGbF4cjJIGHepnoSY9kWqG2Xeqf0LFRaWfF3rD7aHWMtZqvjsVKfttcqxJbGu2jyzL07J3eSQyDNM0aEHtHMGaT5DbmZgt1T4NyknYdh2EUb+SHLN/kdxHkbdLcyQpkhyzMyHLNnkR9hDlkeWR5Z3G0nsROw7BIvJBxfB4DvEFLYtBCAhpR5I8ioVybs7mZiTlkOWLT7JvLE8hKVJ7kOWRu5I8shyO4iE6lYURsQ5aKfMgT3WFPcdiZdp3j23EshuMK8RT5k+ZLtdhmmToG5cJ2qbJE+ZkC55D5Dp30YpkufAUagPn6BoEi+U8jCuRgcVxGlIk+5sXQ2qwSfKI8IHAJFsgfUnEfU+gl2wLoTxROBPBFmV5PqJ8TcstA9rlIgWyOFNUWeec1gWjLrTsgdVSZNaVA1aHytp3I28m2M7Sz51X/jwZc70SzXYWkthkG9/I/fTY6hvmBsrxR496z7Q02peNhSWKGW0DwwhQd6ec31X412CPOX6lwoL0o9/SdbF0EbT4JEfxfWeCdfXGpDcwEic4SCDS/B6tCEw389Eh99GvI++tK09ZU+xS42rRo8o3SfJKa2Liij3tI1vdaqNfQFR496RpAmzIxoY/RpGvrFin2abgggiu6el8WZe70/ltHG9OWz3B898bUD8a2UBuEJeGLj3JoXvXe7FujjJdbDYXQlScN9PLhkynax9UJLrZPWEUtLUxjbdtfGhJieFckJJV5FZH2xfVDwTI2WJLoV4WwnceBc34a+3Tb0aPK4Q2XqvCo9EVKW6QlGlL3kiPnA7cozYuxYkkTHA2bYSAfCSLDEIi3kV8kBzv5ASE5Q38FDPZZOs6e11pIE2UPd06l7AqL3RY+JeHYviLWzqpWKXpHsC+G6etS/1pZ+2iWvkdgl0Ssb0oVZ0JMfjW1ljWbh4IhEsYAHhznAXfXhwNK+yJFZ6KqiTaCggSIx4PSFuyEIWjLXQiDTZorSNLMIUVwLCEbRRsTRdkF9tjsOjo60/NpkxEMnfVeCFQCCY3EM3LSawR9RHnFDjopHJvkhpok4ShQQncR2CQv/qxAbEeIShEeitbDPapvFi6EMZAIZdTeyxUegevT6FNvYVFg+2hn4VK1TcUvZF8N89b4jYfprZGbCLUEqbVa6ZvSMVcQJa3kTHLeiRWFpXkWiS8aXNJvTGrsXu3Q9fC1hP66bauGs8CtheBRensUtTITyM2PxSFH6qIfUQJ0TnIwnS10hjzTPTVPvqmohE0P2U+1S+4jQM/DT+gqLS3Qzw6E6dYqbu6n9XxXzYbjuOwySfMZJomSZ+jZ1VSthfHW0WETxGFEDdIeGxPBHRH1PqNGBMRHZEcBHELOXOrUG2JsSO6EdEaKi+eQnkZ5kGcZAy8S5k+ZkkuRk8HcbPIWQ7Dcu7O87juO88oHkJFmkuZFF25PmZxkj5oyuQNmkzjKM4SdN7DobjKMoyiUmRJEF1xlGWPzsRjD5JljxTMiSg/IqHI+UIGHHGuIjiN6vyRwHdEc0d0bnYJxUNH10GboL0RcnAxDAFwy0hUtUCsbGSS5kl5kn5C3HHglzO87DsJI2Z2HcR4ZHhmxZkKsyHDI8M7juIQeBUB7xIJUWsFNkzOZtBmNtmUymUx6r4uzoioRqy3qlZZsCZ+um1nrUMnCIohU+dHfIhSR+DrYyY2Q8t6GWvvXYmxnbex+elX9Esxhcrsk/Cl/wCtN5NwpN1kMQesrUegNLjYWvpHr6zo0g9hOdGXUnoyNYJfe6GkhhnItFps9xD3tCXd5ZBBH2uTJyQK8JioNbM9DWEMV3WsEC7LsjYgggTYTYQIENEehAhwQ4ICpCQwGIhwQ4LnZHgwGAwHgiPBgMXwasdUt0ljG2kkLLybQuY3Jd0NmtlqAG3HoaSNU3Etibn4voSFqIhPJD5nkSPO7Y984N6zYnOdiHRtpXYrfKZLFqy529YcuFbEv0iHjyR4vJDgf+AiewkIsF2KNwTPTS2mnST8xcfEkpY5uWn6oVCkjlG9YGkjZN2RwXHutweoROA3ohIZRgWXRELhpOsXnTuI+41d9H/ip9ujZiziQhbLZINWLCNTyatg2RHYsN8iZOkwbjofZSr+hUePYqLnVV/nSaBWp3fZ6z8lulimaa8WtGYGJEJJWFMPI4cHghaWM9HRolA2USB4HNi5FadkJAl4HJ5uR/DkkA1qKcDptEWZsIva3oeEn66xaNmmlmyJAlPwIhAWH6JbDs9JN4C1pBL6KGfuIou0nbnYdRsIRtj5p2hTvX0egbYsKL8jpbYrZGJC4HzP60hhwkHYbHoffo5+0s0Rc+wY9sUTOli9QnWT2HS8BYhG6JjZQZJh/akqXYMTEMfd0WaV6NE9W9hUXOiyLRDE+msk7aaew9ZqfTfxOLVP5UvuLA7MXeFAwKnPIlJ+SMIex+db/R6GrR3LMtchKy129tN09Siwud6q+MWT3O+u+TPRFPOsijYjD+Ifm0aTFA/+0KX1FZUKvqPS18COgLeRIoohUu40agkAiKE6ITMDNzOWAlXkSSQxtvEVLkmjWuhaNBMH7KI2PeGQW09IlDWNPWp/YVHra5iYxfnXzp+2m4hj2LP3T6L+KAhNzIjIZkZiMdxc5jGfQOp7iipmQyGQyiJTvO079JTZYIlQ7GJm9/gR5aZkmJcjKMrSvIeWsOGYQ0d0jYRB9NL6jXNCrcjNm0jiI4tLtB0kTKdhpP8A7rVucX2GcZRnmdoPmUJSbK502eCO6W6oJ++V2bMRCC4ylxElgLq/IXIpMIwCA5Sww6HQ9OkzaFkTuJ1qSbtMKTbwLgQ+HQjW6kwxo8RS26N1p2CjCAivmDG5IeRPmdoiQYTth7M7jvFl0G3QgjMZDITeRBsmcwDJoHHB+RcpjGAZUIoR3MyozGYzITW/xBnMxmMyGUKORR3IcmYzCoe48KpIEoklF3hkonTbmvbVtPGc6MJsNjGYDHpEUQuxgMKMaMA0v6kIwGAgIpdEPq0g2Ho4o92lNx61DsX+2s6e5otW/itZ0n+qn9VO2lv/APTkmj1ix1R6h6VF7oh9VDY3toZ6YYk1/XrGssEEaMXbsIRCIELSbECPBHgSmFR2MBgMRjFVswaTHpkLfJt2RhGEYAjseB1NjCYdNx2FsTGYtCMQjs27GIWntKEw0shHkSryx7Snwd2dx3GZXWtE9JJ29Ek6SPsNsJEySSf4Ol0Xp6qht7kkn9rVPT0j0qGbPsKhv66pjZKXWsk1T9lUpi1sdBUeqWutE9G/gerrI+7o9XRav16yNyN/ITItf303yxU/pRI39haJ0cmlR1dEk6RWovFnSRPR6FN3ela+j1afRfxlrSSdP81lNC262SSTvp6A/wDKsNa+zVvSpfrStKNEJS61ZB+VPpOidSWklroInX1T1qPSPU0kaPQPV0knR9u48E6vQEazuezJov8A0WIWrJz2FbVm7QT19A2FOr1k6ORvYbaj0hNujGpKGX9xUWOhPT2nx1uhnh1UfbQ0QCo9IWEvi3v03z1KV3uh0xl3qnw61Qz9dK7/AB01nrSFp6muWi7Mtjo3ffT6i0ejP0aLW4JsFqx9wTUavQKj0haJ21iFp+wraSSb+gsDPJdQ2IaEJBauzLVPo/C9D0tVp6WnjTwMt0/66sRe6LOnwZj171v9FjrR6WF7uh2pTF+deNP8jo9rR21/YWjGWh4Ul6Wi0tfRarjOCx6fxq9Q9fSYqdY6Fq6KPU+KF/osaMVDLW4LB41uFoZ4CHY9jUvA6O9HZ6KEO60fpp//xAAoEAEAAgEEAQUAAgMBAQAAAAABABEhEDFBUWEgcYGRobHwweHx0TD/2gAIAQEAAT8Q9Tt9T2o+o9TDSubjtI+veLob6u0AF2vMIJsEvS2Z9WfQ874mHtEK1vU9BperrejMQ1In/wAmBcZxrRqQfTfrxLjtLgyyLiE5ly9Vm8dCXL0rWpWlRJUxmVAuBpUrRhrWmYNw/EIcVCMC/SsU+PrxbwxhoxyG8D7T18QjpjRAKy5nCXBzg6sam0NOdb0uoilY2B5ntGINkgaXpb6a0IsZ+cH1EPUa1pUNMzMpgNaZmZmZmYzOt6XGGgLNpvBi6pLlxdDS/TXoqVM6JrWtQIwNWGlSof8AwqVpWNDpXoImlzEdBg9CLENX0MAb4QSHOjH0PQmVcuJqsGLTYdyDR6k8kE2Ezbk80vcIyrZh2Snc8krFl+csIAmcLp3IIYZfoqGg6kbl1hywPw1MjMNvbTMpveZ1qUytS9G4A3AVULq3ylkySeDiEBv/AElyUf8AtMW37hTNLt+5kf8AKFJ/lO9ynfQcT/5wHP0yvc+k7l0R14cJlvGeBLXcnmj3EElkxPmMNDQfQwzE1qowrRYuJRMQ9JHQMaE40NK0rWoGJZOJcxrYzEslks70Hkj2EKtyHcTLVk8SeFPPMJFMG2jhw/Ur2nHNN1XhsQnthHSncx6R1tbrxK9BKlQCRcju5JWYpF5GPV0ApsnISN+olzBx1MvEu6l2P8w4iAOP5j3v3PM/cOxYBsQqYYD4nVP1PRA/HmfEK7wHJiuxKPEdoIJl37gSlsybMroYhz+yf2M28/e4Opb3WVP/AL0NXP7nkfc6f1KCv7l010j9gn+WMDVIY04lekNCpUqUSvUW4TxYv/5Tvg7gRQ2fuAAF/czY+yUbffM//SVmJgtwe7K8A+SBc0A7vxm0sk5Puh0/ubf+c/sdE5Sm9biBu07qUO2QoyjMtErHf9xu3aTHcuCrz+tiDQH5hyH7jdgV5hzD7j1Y17bhTAOdS+kKmQmHBaLGz4SrbwcyusRAQIuROFHhvxN+hPE0HdL35Yu8e5PKiNZGmD/sgRwp5kX3X7nv/c2sTiqB5CeKd4niTwk8ZK6EpMTExMQdcrgYISPkwVr7XLGWjE3XYlrcldyeH/8ACpuQh1Yvmtz/AJ0xbZbwhsiXmRAI8MOK4r3M+/2nkZ/2JTvP6GAbQbNqeVP7CbOcb8D6jVgR6cocWPVheFoM+Vf3TsqlJtnjTfuQ3fXdxx02HKyIG+bch7PDsaZjzI22KfLoxxmAaU3RmNxfGi17/TFf6If8cA4+8n95AO4RL/yn/HiVD9EH4+kyV+Mqzn6nk04sDtEjm2D7Su2M8SD8I9kElksgkuXUXXEPRUNWFRNK1HU9GNa0xoei5ic6cam0T0Z1rM+ZfnXnSxzLJWU7nhfc8pMF0jIW7Ynwhjw3lO7BuZ7kATymf8iFtpPnlnFp1JjipzpMtGyV1IXVVLeT1DG5xL0uMNV9GwFCB3RdConi+u5cuCbM2jG28L/+DEJWleihmI1piVpXmVKGUSrJR1EJR4lOovxKdRHU8Ev4J408GeHGVdmDSwEURbm32x7/ALQo4+2dEgGi2TC9qgOwjKA3YYQt0lH+8dF2QlTvD+oh/qZXj6ZXB+Mr3+uUH+LQqtkg+30zJ/jn/JgLBN/44OJyH8RX+mJ7RZAl1LDISHmQWyg0X7KHeiRN2MfmYu8eI/LM2THi/U2sIbD90YGTZGiFe08ftM+RL6l1w43YmLInfB32V8oUc0xyrcv8yi/54EAxe6z/AKkpKsPLKkc/cu3H7lu5ngw6M8SVbCeBDpR608RKjwEwQjU5lw2mIumP/gxl6X6VhKix18QjsChG1GNg9cMILrcqzpAtlF6ieyXwbMI0NU2ECYF20WHnuWXs7MsXiKqtWXebl6Ys3G/hfQSvS/8AyIy4aDWJcvW5etwdRly5cuXFly5fouXFmJemNOZiUSjglErpEKlHUo6JR1KIhKOohAIko1PPqalTeVKjKlStMaVjVJWh6K0vRYaug6VKl6L6a9LAYs5gSteP/gRN5cYOoYjuncJPSXXYmYC36TYuCMDBwZlqhtL73NBdQk37ihLoM4lqU2xG1AwTzUTOR4gA6RmXsD0jof8A341qGmdSbTMPQ7ytKla5159GInoIw1YvqIEfWf8AwGvQTE30rS8aBptp8+gi6cegiaXCHq2hiMTR0xMTEalSmW+p9N+m9WwWMKBRDS4S4sGX6KhB0FkPE059V+g/+Z6V0uWTf0D6DVejF1NSOly9arRg40IaMYaLKS5egehPTeg6u0M6Oly9D03okNKNKlRIa8wNF1ubeklTiMdDS/8A4XBVC9CeQh0WDeA80YjUgBL8FFWKbxgZiLyA7l4IJDoRBXG8p4uhOSSuKy987FO6XcUUMua8wDeDcP1DzSvmHczLWgcdbifGf9yeNO0TwJ4U6xMMeFHuJdzPEh3E80p3LJ5SI7lYpLJTGSCdyzuWSyLpZLly4Msgwg6c6rUuG0vOganoYR9DLlwiw99HRNWVKgRhK0d5epElOprtGVHStDbRl6Yly9DRwegqXL0uDpZKRJnmj3SjZJXuJZsJ4EehPEj0NJyGY7GXzwMcStTBlSoxW8qIR29sKQhvk4/MAfvMFxkpcychCopQW+Y1zAX3R8i9zuxzBUK1CVlo6lEo6lENmCHDE8ZPAnhyo2xN2Et3MX4xn64xXhUZjn3IUG8UbtgcRCOCy0lEK9vugra4jZ8jCRIb/jQAK4PM5kaEEULAQkSS+8EycjNG8OjSpvuQenkH2ygQe1CiRSYHTgS6GdeEyFSoNzM8jGyFjK9o8Qj2QnEI4MYwosnFKLiMe+NO+KBYZccqUupeB+p22QfAzHliaEJFoCG2LL+SHZPMQHceyHIkp3EOZ5CeNEOEOpPEncJTCW4CWNUmPZBuEQ3M8CE3iRkQggGUIq3YxADLIspcpghTmFV3pucz9RFaMFBFTK1doAvF8REs8mXltE8iZcKFd2+YrU41WS4PWOiX0JfOENDDAyYnkJXJ+Ev2BMGRErPCPqZt8DctneoIVulYvNEgoB7LLud3cw7uJTyxw7tvG0gz3GNKgChPBLzRdYEbE6RDrJ4T0VrV36204jlPNvzAAOAIBs6iQAv3CUAVBldjOFlgdV6d7rs50GUCZBx6TXwaGhP2tTT8E5vWlggtoRIwhm5+k+zUEaw6qlRd6hGGz/bMHEWIcI6b0xDwQly5sitZXFoliqxFTdRcvRqoSzW046ldJR1OgQYnF/5im4j1IsREAUFAaTlFOIAbQy7yi6uZQc2r2nBmN95+4H39wEgczEnUmPbMdMGvaD3cEQ6caGmFaaqRULF5CPWnhTJMqmDZLBWJZuJ4ZbwngTa5zDpR6J40OtBvBuRgwSnUo6lEw4lQ45m8qDGP6oGjOInBviPCKRhFlg+L63gjN71/IdB0uLUxPfl6MZdiWS5er6kaHdLCfhEm/AXF/m6sG2pYk/Qa3LjzDieICA7AKwbNj6m57Mr8ejo7RYl2/lCZBY/ufaK07JkdTpf45+YjF4TRzKIUBJabvu9IPgh1seGISK0JxpelaxqQ2f6ZnEpQAudhZ7xg+hmftmpoqe90aIXcFyqRyMpl8MxK0T0sdoX4r/zrUqXh89ONaaCmi6RshjTiUPfT8b0Xrd6iq7UrPejgC1iMxmqhFRCdP5kNDTP4p+DRYsukRR5aEqcTgeUNVqVbpZ0qhoH3dedMPhhdasYcSXWqT4FgaJaDnPoLKlRiTprTMyTaGftzhDjBVQW1AueM3jtDnvevT/ChKl2RWxZxR4MpzuoHoKfHpTGFMMJjLDBHUJokuKvbn5TQlFq92I1qN47Q0/dKhozPxAiP0lUjDX8+i4XCfyr7l7ZcoLj65x9On5Wb/wAEv0O06DkjBTZAYuy/S4BGiDGbn+t9HENEV+Wt1LmftRejFg+hBgl6Ewc7z8bQlQ1vAWS2Ct2SQRFRAhsKhPb4qdsxAOOZssufrlw0WJxk/Bqmh3XpkPRsPC6MG9BfKp+YhMaJPwf4lMrVt+3cNoGtT9uO3oZq4MB9gnEECuPTg0LnCqwehMO2coRrusDtMTEpJrho3hbdhtHlJY7+SHKok5hj/wCEQVIth5Q636lOFSGLH5K6GLzJBOieLDhM8eY/80PO4oSeNLuSA0LsepTuIc2xnG8E0YwXG0Q09EJaG/EoQkbaJbO/pKv2l2QROtQr7NRp7xhQl0ktRDq42l7UlRcmReJknY0vR4Zv+7RAlijA76G68kuMupwy6MaVExKx+P7pcIx/X/MGMuDPwaCbJTPpFhtMw20/Qh+hqyw4lEUe0cRXKWhES5RccZUx7NsUEGDUr9zEW/SYyeNMVKgSEGnbTGorrWfcHWobLsmz7aY0UiCQZZLJZGA/GAqUnknkI6QR7ILyTzE8kGo7gDmVYWUo376ujOJ+aLGMNJ+aNRB5T/EUEdGz6CYlSiUgOPCUdE8RPES/hL6xG0ly/jGy6ywpnlDKfWKIvw/c/sZ5/sx/2saqsxZX8ku4C+YcEc0DPZogBGYj34vs/qOxCe9oswCwkzv+M/rIW7Ig7PqYXWhmHQ+oc7fEazc9p48XVNBpjXg37TzE2/4oHv4KixVuQDwgeELqmjHtEY7UrNQ14AIn92C8Ol85nvF0hyzAYMdZH3MGb941t/qFp4rOsTYyjE7Pplk2Yt7c0SAr/EyrOfqb+8e6A8JOAwg7smb/ADTwJw6rzBsnJZLO4hyRlDs/tYDa5TueQnWIbIVA3CeFDpRC8IsiykoilkeLKS0xexAyOxeUEzcr0ZUu48OyEqgG0BC47EOqveFGbnjfqHSwC1eES8UKzRMe6dTmbfF91AASR4zw4dSX0Svayzpg04slDJuPXmQJswQzxK7E3cfE8XSVG+KLjxKefGqpBVtHXJwmQZYeSU5UwbvuIjlmXt5xCNZVQE2mVxEOEGGCFuydonhNbdCO0/Jqwg+qfklx0dpvPBDVWZb9hD0b/tMl39N/hMr0JoOZJtq69uZKdejYxD6OY+fghHRmKOxl6kNkQ+gfVMPY1GCZ27X+ZcGXKTY+T+NMaO0r8GeCUldCPQQolLYeWXgxbjHBiVOEGfzcd6d7H7KQA17xcN8R3lSodbPCwgpt3MDQ5I+0BId1AQBSoXWw08ES9Mkq4Tw540QMCBBRunjJXwlfCPURtI2M8JPEnhQPgQDoy6FXiVgHBA+OAlVSvEqJK09QkqAEqPn5hNoafoRX7Ppwxb+gzB2wn7Cq0cwjovPopb3JkNKiPp2iw+meU/BpejsymznHoZiwPRm9RWqMXIlR1+jBHWr7ifmRZemyf3PMDVySwHtqRg+n0mlG9Yei9gW2qfgRlauX+l67TZM13orMSVGQsTOiWQMP639Jsb0Vokar5to6JKns/TQ9xB9LStX6OrHaHN4ehYrog2IaqvcTE72NRjP0+m457vqEuDCfmYMWtBGLB4HTjWu94fzDAR12Ia8ofQymUj+rWvRU40se36bL9p+L0MOT04LF4ljUTtBCMLHT9teaMHt0aPqx0z95MLt/Q2Q0Xn6GK/h9HEfxfT5YGx6P3p+J6bceX0bZ+V/Ho2SmmOpleMfvV0J8aMWU33z/AJ9L+hqOj9mF9ZpiVNk3vekujsz85My9ElyU2PRZ91H9XoGJ+49G033njUgw+2pNGCl7GtaGx8j9M2Ho2T+L6GZexD9BL1uZ9DBYbDHKle0SNmC9wgBhKiYibll2zKd4evMgdyX7GPOIJsJ40EoYE2JwUnvejMD1QSlucrQRbNIwgJZMS4sZR4ly9EgpoCOq+ll9IaMCY/P6AVE13sED0Ln4dL1x+OB6P3JT4fRshwDhf59DmGtWaA/Bjq7S1uv5Xo++iQNv63iasH+jv0MdeY+hlz30/IaGrYfQGCvb9ITG2u0dL4madj1Htqy7AcQ1UxCx9DVTnezJMaile9fzHhL0uLFfvA+tFjLJWEl5TdXGh5J2PpY7TwdtKJ4CU6hjQ4jsBSTtEepPGRo2ynbMSwyJ4Wgp4nFag+7AggnJdrKUCfMNaXwseUzZBe4aL26dM84mPexmzcZmGeEjFsgAhmvS7JWxaLn8OZ3fZM9fylqUSi2AR/7olzfmZKt9xFvhNyy0KznGUKZCCcVtY0C9084AjmtZdHeiicUNxnlqaIGIJy5f2k2/45uiriIgG1Nv+GUYbw/GJrELhVlR6me99T3fqXQBXm0Nu5U05aBzK1D5gB+TwJ4cOpLOMY7dqx7iUlJZKJaJMaKDbE3mqkuZ+H+RAVKSvZE9kDe5RGfNI9SJ8k8aV9kALJUcJbwj2ketDTvYJ40r4xLcToEsZbQgJ5InuzNVz24gg04IeLN2+P8AxSpuhHFtHuaQd3TJRDx1WEDMRkzCuwhGmbJTiPmDyCX1JlwRFHJOYkrikRbQrogtkSwRbGAg5YIVsTQc4wXQ92W4U82Hmj5pWotgwrTwQ28zJHnX36uJbTNVki+s9Kx9VoMIsXzczKUnGfDwF768XiXHAG1y7JvMD92WrLqI1S7g3J1Emz8NE0qVp7M2aJoW8yiYOiXFk84MvSyAnXUYaVAfOqMolVKIB+L04N0Q/UTEq4mlEdSuko6lEDqBPx6V+4ngygwI24NiKbiLw8GPTl0bM47lSzuYP80T/tm4GgJN7hdxRWiNOIUG5AN7WUebGMpzEZu8KlU4N2Xf+886UbfZCLbhbsQW8iHRTEVh0DbCBVm2K8IrVx45yaNN20xZMwBSG0EMIGZKygl3BKawlu4h8GwwLGbSiUSiNVKfBHWiDg4StaBLi4m5nl0Jto/iwzqz9CZp40XRh4NzL0ZcVYeUyXsl6KaVq+s/jn5z0Nlx/howcaUpM0GHZchTAcIUWK+uwMLlKjCw5ZsmPzdEABJlTIoqyLWCQ3gcMSWhCHRI1BsjMkzfwxHxo6DHaK/daEuox64O0WYjvWvS416Q0sjCPeR5vDWyPM/kRa0ErZPsX8EGDGscIliZ12R2HjKdXafmfzDeF6Mu30v6GWC7g29H7kZ9gm5BbgmcG47TYP7M3Iavk0R1Y0o5khvr+9EreIcJejsx4OhqOir282nocVjpkuboulPeH0Mow7OO37HpFYcVx5vVZvP3It7rQ9Tp+KMdTcPzPRgbR6FS6igEHslrYAiq1MfFxwFBGAkCgI6IrT5a7RBMyuCxW0wJTxC10YB0brqKhox/Y/iYagBWXiXpvaVCJNiAfTjvRKjo/oTiOYaFFiyzpGDGXqK/kjEgQeIG4CDEzKqWFe3+EdUxPkU1KMXlzTStGO343+76cWeP2Qg1K/Kn4URm6j7xeJhRgqS5vvnBjBLtEJajpcewSrjdoszeeIrjzGCMv4KPShEtj21uVqJdOrRgPfYNowYwXOu9p6c02zIzmZhP6rqJWeQ/cPXvpZ7vC2XiQ6st2EJrTaA5S6TyEewlncAMsKqY0QghCr7CVU4gkZoB7kNqxWm2fsy9eIvpIlzMVXBmSe8ggiX1PokPQT4GfQ+h0T5kjqmPUjD24GXrhk46rUNoFHsqD6TQG4zMucd3liQgOhXfudr0TOh/RorTZLfD/mKzdOI4jVeK6eGgmxvj6dp4apOjKF8O38IgiMcAw8zLVa3ZsYSyc/zQiS0cTYePSsexDYlTiVcGcd/PKlQ0Y+cR9GVzsfTbI0uNloEI5mK+UNCpifpT8cE1SEHKoS46G7+0pX1FkpFNb1ZvOOptWYrvHgZVw/cay7ruKuvaPGtEmigPmCG57wMoUS25JPaOWC/KGGbJAmAQ0FJuASHFeUG08pS8KtwwRy6cDlYlkMktTJHi/c7nEYWvuML6UCqgkTACWfTQLenuQAGMh2vRItNfhiWHON2Z5GoxMWYbGDP6xlhYUhlNImeqTxNKOlFDCBzPG0i3hNwgzUQswf8A9I9ef7BCv/JFmhlCSaIjD/rT/oReDtK0ndOD9of7SeBHpRis7gnjTxp4EpbkAy7xZ3LGUixGZGw0YCASfEgiStVD9w+60vUdza8HEdHEyA3aIqJwIMaiEwDGUSs7lkU7gK3ieJEQ7JHsnmJ40vuxAygYzt+6JbmpkqkMg7MQruIczFuzsWX4L9QL1xQgnDEnmWaAbIS3dgMxiC5KWVUctTrNBAqLq49iZqtEeE3swIyo4WiYdTkwflhSEVCzYPeOWOR5iU4JfVA+CeImxwS5qFYfE6hPLHjzCo1yRSHcRoQAxRkHe0v20Om2tH2/Rcf1SxfHoZ2OPSqrc0YRkbJyJA6XaNuwlqv7kI2GMcO2MKZWg+hFCB0ewlEQmZh3Rs2h3JmgI3IBKdEoVGzNrNp4kf8AVR/0Ef8ATR14hkLE/wCBCmvyj/ppsgqmJ/xopvD/AJhPAhhAKbO1NA/5Uv3aDpLJDFhNuRfdZ4kofIoJupbuWGyCeNKe2ICnMuzJNEGIPvdGNYg0z2QSg/cC2PtHy/cf/Uxo21L/AKcz2fel1wqlpU0QtgN9rGbM+J3NnMt2/EefGU0ALHuJWjPtHhP1Mn+OGa6INiA7oHufqK2KvaG9/GZLfmOMVgAUo92HJM5Yj0oRQjEVjhJs6gW1QLLmXBKMG1GuNcfrBybXmMlVuXMGvsjZfJcB5+0ez7QcncCSwpmzDjAyoC4RNAJQqLnLSB7S8aeFCirhHqJ408RPATHH+jAUSkpKJgI8Fc0ElDKJUK7p/pMUa1KUwejvEX16SOmxiHRfoNGMv7xGXFilxbfUCCbUgwdGVfYNV0Mkdz8qAQ2HRLmMmrtIqK/gTYnPUcWLGTXFY1MGsHIQL55pVRDUoI4bqWMxPam5LNPcnbjtLnqZewxX7LRa0NkNe/ly4OhUusuosZV49A+EMZ6TYjLhD9MX1EvXEWO/b0doTiGk7n16Gfj/AMS5bBYuITspTKY2gISk2n9c+hnQ4S9kxQYsANd/8dL0ufnlbzolkE2D86b0FD3dDRMynwaGDN4kfYhn0N1PxUNWWC7T+S9Elx8ek2Jb6CZzQrT+Dg4j6Dr3P5aXnTion3A+yGGihNsJ27KOi6mrtNh40qJKgqVn2ZUTTZEvwRhEsjcwZOYlZbqF2RAqfQWM5jd486ASmF6RPORDcMGGWmVGIK9hB7kPuNO5j7JajR7WEFR/RgxgETcYw30xaQ0kNzGCtHabMXEu39oBcqDTOJ+NCDEtjY7ztc4OJaB0B9tMR6NrPxejfrqYh0Rhw0vEGWQNtXadfj/ETV2juINMIkXGhyhvf+xa0FpiXEIc8vmCYy2MB8LhGyFIsX5QnQISX9mYm8jpsi+11Ixh7UWROpt9qG0unTmPUuT5YnUgW/Z/MSpeu77P5n5ibS4tNfm1LlsGcyp76y8NLJctCADi9GDCZe+y4RKhUblR1sI0zoxg6rN7oxrcI8T8Xo2T+BKNA0GWBXtE5NKKaij5G5b+8S8TjZmIiKLhuFqUAWKp4YgmMmgLlTZ7MNvRgLMTy1mopZrpFiaLK96c6VHBMvYKlQKlRsw17yViZQy0T8OBHV1q40/IypeEnESEYWvdgau3p0YgLIpUjtEbl4iWILhAgsZj1j+sZVWNHacTlyqbxRAbzFVpxMgeIrJzRAPBfmhygoPL6NkV+0GiwM6G4xFZnEY7QGfnSnSpxniGhJ+BFK9HJGKFe0dDR/SmAS9VMH7v51N2OPTzaLKHvXodOo6MvQpgnS9JyB+o23SWtLiOq4yuBRlJh2IqM4QzCdohsk5qQd2VBFuGl6Zh8zaErv8ArlptoCvLRmdpqVcfTRPf+pwaonKVM+RqLayRLAg2g5JR2wf/ANJ48ZTaBtBGptM9dcGVkChMWtmV9yK3PG2eSV7nmImt4oMbEs7gO5Z3oR8xLO5ZMaV59xAVhlkubytojd4NB0Qs6YCnqCq1RUuJhlkKixK2eH8ejZCe4qURlaFfi0Bo7M3ekkCM+ioa0T+FGLeIvGzcjJ2Dp3thl2iy4o+fgZZpiWVvA54pBKMzyEewmPKRO8IFF0Cw6sOpKeOjNpSsLnjxNqgz/oTLVI6BvMKi7BM+2ePHakpBDdvoDgVnuTDArDhYEKYeFh/pIhS0S1lDoLdZ/UT+0ghD35bxKKiYhsY9ueRGspS/zuMlTdPzHhkeUtvRvXDyxWvM3Zu/Ezq7TAfBevOjPVr9ZWge5TQa3isdgxoIODmG9iBcE8BHoIUsG6VVghzWBaYs4tfw7ktLcdTANEMuNs8CHXl24hFUUcuZ1p+5bCfaZxIxbBRXFhvbaX/+s/78eP7YhSwZaYDMv+SLV/LDFX2zeT7INlrvMeIs9x4IFFfrFBLM9y1nbJLUCG7cRxArFoW2wykU4UVMlFxKs2kqJWeS6jbgJVKzaVi4XWEZyhgIcajwV+I1FuFpz3Sr/SZMVe0cn8UeeRjRstZQ2Z2KzqOODSFNOW7/ABGcWt/ZHhaNcmAGIN9RQRYAo2keYfMRfW5JSMQVkKFPyld5O6CzaCAHaMYNEjwCkjw5nEOp9QbjC60fUaKZod7At95ZwHiBGXiwH6wYRF5VSZ8zL/kh2JgWRsxf/aNVZqZScuoR1zxYMaKu/MTuGK8Jg2wPYQSYocNpdxn/ADovxlGxBghLVHq/U8WeJKeEr7pJQsIiUQOhBqZ/J/MogHUoZUB7b/iYqYZRGpQjFK/7wMaY9TPya3okbxPwasdp+Yl6E2I1nom5cvxPbEj1v1CNC1lFVNkue6gonj0DtYqa6GY7bOGmFZVKHVcRqMK9Ibd0MS8RfRMMt4gwovw8cTKsmzo0FoDBcOjqYRU7gnJ1psm78T0ZhtHg9LFvJ1uXOPtCbPRTL2n4kuMGLcTGIabIh8B/j0O0/Z/COl5jtKeXd6FFh/tbomjUJ8McQ0TEtn/S5gIoENsjKhC9mGe1KgSoKJh5SN5UrTevGLGjtMaLvExi6rP09GGj8+0OFdelVXm2jHTY/wBVNkHVYmCvtGpetcvbUJb1LdMort/s1GDF8aHoY2nQ1oTl9T87Q0SVMvBqXFjU9rMxKGpNhlf4Qjtlj2lG3bxNkQ+6lruFWOjDbpysJHYw00RJ3GCfUGijF8QQ0kG1aOkvfkLg3Nvx9wugWiWqF9iobQuWtthm5LtLxAKDpD0P4aGGnz9FStOj+jDb0U+VKqHInUTTZP3Yau0Z8L+NK0GJ+j+EdeIPs/hHSo7Tr4/zMqVE0eeuPStSAwQ20wcQIooNLfKiv2fSzWA6BoH4EGDQNMCfpwNM3ocnmek3g1V6CY0dvTu2DaDLlyiQ0F8/QpDW4tM4mYNaCGtOJZ6EdTvdGrONGV+2hq7OpY02MsJuWbTQM0XY6pWl6hL6V9EN+jBIg8tgua14HWG020cxQwgMwW5ZlP6hjshFV4bqJZP5ep9WQi3piR4lhISSzRlPaGD6HSwbS5TEmD9yBQaGn70pcdNHR2mM69WcDr/EvV2m36YZWjtPxPQwehGG/ZgNWbH9swhsfENBofsTH0BjxXsRWrN31AUHo2w0eTjWrH9L6GIEZloCpibIMjy1Y1D9aGvmXjEss7elUcF1KlQxNk3fdElTP/wTV6Ggx2KIRASCGZWGVwtjSlXBIow53fRPH9IeeGy5CUqZYgXiieDBOMR4TahEyGZT0GZ4E8ONWyGQJTFlbzzaVWM+BGIZlncsuYjBvhiG9lK+pVlbcwRpHEajPdkJed5eifcUjZcdR/Yi9LMrtCb64ttJ0WMqLiFaehG3yn4OqxYnuBPpITOvo4maeB9ESVphFxpsP49DEfA1SVEBekvjgBUfuQgrp+FhoOjQ0YT3YMCYjBD7MQhoSyEEsEcZiCWRO1ylQBb5Qo3lO4iUm4eICr4l9pTsncx7oSL3l7oHsnlI9SZgPG4Mbx7iPZOxIM2S8tm2GPCdonmJ3GPcwhBuSndIPsIhx+5gsYQBSpiGbgphlWNDrnTIfMrSiVAPswrIKiDKOoKSodcJTqWcEr0Q6UEXKnMSCjadpnhy7cwZgxrovCIKNsu4Tw5jCDAqFcTxsr7gLh+0OXOz9ZRwEB/94E/9ZsjDxcayySkmPSihlN/ib9sXa0vYOdwL/SPDDTgQ3gvlJjewiyrviPtLJtB7QjeKXGnNTKwr3q1qe+LapXagaJBTLeZ1mO5itvSm0FChU98mOW099YH3iYqlUVHIprpp7sVM7hlFfJzHLBWPAStCi8b7nwYCg87h0FTNj7o0bYb4ywli8xmy7q7uBLtKWWebg0a2WRDdyglaLC4PmOoCyNBIYbZGU8LiOURvIQRPt8y0bZPIfmP/AHwTaBBhvmV49rMeybHZ7wVsGIWos4jwBOwh6JpmajaUGmZkaMaeaLcZetM3wNagODnBI53F5Oyt7wVXBGXuyXJ09Wst7sMK+Gch90pciQmrgYbdoDIwn5WJGXRoHlFe/uYwzU92FThhh7kDiboQKsRv2zHbqLa9i5fvHhwj8eErKSOkEZjpmfZETYidt5S3ieBK+Hr2XiEdeXtTPwPReJlj41GMMOA0FgGjuJ57bvRiXO6vyULxqwMnnKhGctWfGBuhlvTZ9kDBpWhyeHQKVO/3d4pPwSJy9HgYZcqGa7SxhUdGfGjaFluxKsTk91BskL4LHDLbENDQvoTKbS4s/teZsejidpvvCXqsdD3a2RjtffomYex/g9CYlX+9iIRLglxX4IXpcczOriBpWm/CQ4udKzbYrEw9hh+iBGVGbHyR9DoMjbW4pWve/mb6XoucgeirPxHfsw0xEuCveMT0KouJWj7zZLKd1p7acTiflUIDRmx9ps+7oaca5hotrVob9nSCbzmM7PDS9F7y8wPbJNhKYWDfzZo2LgkR8lmPExi3dDV3RE0ZdH24DJoCP4EybKUyiiPa3iTM+yXg1J+Jn4IppBl4gvLMQopzptl0cHMs4KaMZ+J/MRtbThJvpUvcY+EJiDvAcYTqFGtxy4PUoxfMz8Ym30XonH83pn70/F1ZslUvP82lwjtHds7f0w12T+t41YzH+9iJExCO0V9R9sNUxK3N/wDMaZ0YMRJe2FuiXBipg3lMfZTbVZida9PP/wBpsPRsiv5oarGHzQjDTP30X0tKg5jFYdP0MdeznGqRYxHa90rRl4gz+BOIjcIx2faZN5ZdS4ekgxOF0ene9ofr0NElbPBqaeIhwE2NEF4rFmyC6Pd9w2OosGXP053LBKXALQ5Y5GePsRlQ8l9sNtDT9CMZlRArqGe6su1OYcauncaAIM7xi18P5hV2FJEdsJ+8B+Go0xn70czP7MVv4ViyrQ6leiqRejnhsaEWODEvCXrS0T7f50SGiv0C7R3121ZSpsfDRdXT3PRYsF8/5hHRl5DJDzuTOHT9ic/RcuMMq61OdMPhm17S4aMYviXpH1Nw2mdLlvmw/U9DHXlfqIMaJpYsTd92Zz6E1ju+lwOmXHHP8xmNK1TRMRud4juy3Zl2iPBWwKUSrjDo6B7o4rhgmwiPCLwCNxlEw18EypLonSJRxUs7IQZZePCYJQRdafKhUyE7IpAi6OmKQWMciegVMV8Mx+eYZUSW1KNGu4QjCMjCMRlxSOfGvQB3LiAYXGC7a5vE7k6hqra9BMhxM/aS9GVtLPupNtLi1MTkRmYuI7s4ZM6XEViI/rbEdHqCYI6XoZj5oDE0Y78ZmyYgrSQe/lYK9A0/CH1pcJUr9ETb4I6MYFxYgxlxc/CEMS2XcxF9LGfE0uXFjB85QGtkZ8JgHaXLikdsr2m8G5ICU7lO4b7n8ICt55JcpCF7S4dxDPPLuZffV1qxgH4Iq5E8aYtkLdkqsEN4w2Np4c8GXlUmHZGCilUSzjHQKu/EXBaJBy+wl5vSJOEHVxRt+yd5huIML7QAqTjX6RWanejfruWqvlZ5gJiV0kJUSsi+EBKJf+fTN5U2AL8RYaR2IUuSXbeFru6aZddiwnFndc3NCMfNfcH3BN4MmzSu3FA3Yg9h+4rTAEoP/cq30MqtRLQqhSJ3sRxWSgVfcuMIWtmSFN7ElpQ5IWtWhwhTLAGdAVMLTMKiHRKmLLGW0I26QzGFcsAAdsz5C5tSqTKRCbmv6IarbkDxLCiHxNv+KGka3xKkMZ1Gam2BAJkfcl2U/iJF/nLFfnLEFKP5IDB+UDx9MFv+CWGzMWW4D3gLCN+IA3fiAknNfXLVwrawdDNKx9cE3+UbguHmU0BN2CWR3DPlC/f9wocsMMYLklpKNjMGyYnCFjcbzkEFNfJBbDOQtpzHdp+cRsSWrwyGIhUnowjGaBQsc1CLdorikCyDkIy6+MkLRTEyYp8SqL04TvtGCVqrY2Y/ExcZ503M42lnGLKZHDJuw41OcWwupcacwDnKNpDVAFyK55hfZREYqeI7cHvSxlb3YduEH3gxkA3fMNb1T8vpNjHg9vQsuDqvQ5Ujf9yGwioWGXcjNKVPErpx6FsfONZQWsHuLHuADOpepUVfIhsejeiY7AS/QjtDF6yXYqK0Zt5NUhLPCEN07BC7/DDrpU/cbiwqHhFhbIkrSpQLtaBMObkThlbbQyUpWUAJiwYe8OwjMVK0dlMIBOCVpUIDAfHpiUQEhF6/7aVLjTPsEqVMdQJW29blTww6IgMEFIDb9kxCpRAImz5P7KDiUdSjqUQFuABKNKJ0G+G3rcaVK0p5qwmJjTeP6XGUmYyox3pqgaZZ+INLhPpEH0NONHaH50fytL0WUz8YtC4xUMol4t0dtDNi9QPopb20t6GpzoxY/tPSM5u/BoaMVj0HoCo5Uy9fIlYI9SjejuUspqUgGnsmY9nT5cEI5rKTnTiJn6hvpwQ7puEUQLEL7yjo0VH2Q2NSZL2dLu0oYzNtO6LaCIpH3mJqfR0Z0Ez9vUXKrcS3LdbsqNjaqdFMbqK2beiBnr+jTd6tUagtoCeVJDcGPajRAwioc9TxDLq+ovrPRsvDPaek7iEJzGph51rUdpyf7oia7INNrRMSlfgX86VEmJaz2ENpddxubzbT9SXDevQ7T5lYMxE0o+F9s/FL0Jafq+k1E2QdCfuT59Rl6MCrpIulxZapthqygmBOy2O4jr+dTqZvV0vQwgDWvUzL07KH4oQ0WYecNDM2My8Vw/VhF91LcmIeNbYMT8HCp43iHX2pzOdXa8tBRK6JuBKoHQGnj4Q2PRvQ0HvpVEKj0X0RmfojPwYyhRtcvxehQ3SBz7E+NL/MlEDfBi9H5myMVh3WChsiS4igQvMPwD5xjG5ttPLKTlgvTE4qmOBYCIdtk2wl3LJQ47KO/R7dFkvRIfQztrrGO0q+1pITZK+zK9Az4JBxMwVUyxBvQVieHodmbHFH8mrpiU3/AMs2pWhLVHfv/Qkf0QbaXpbDvaK/a0qbRUJmvVRucxhFW/hE6GNTdrpiF+7lJSaGJxCuPaGYOhP2Jf4f/jUx96Wdkp3FO5ZKlEl8Ep3LJZopbfBCtPxMp0RFj7IEyDlGbowb+VZct7VoAIdwrQ0TJ56J447sPGtX5Ta9Cr2mCtM+6BQm4xElCC4Jf0qjX04joKjFqW6EvU42l1CkggVKInmH9mh4MZtm2aDokoh01sl5mTdyGDw6MWx0za9GqacQgGhoWX+tw12RX4F/BpxpgML5grUiRPvQNUgvNxX4hM8hbAyhRu4AT9yNVegygx0v0MugbxWDXmLibPf1Is+zcNoUOhkmFfTNppcEZSovz0SVoJRL2mJc3YcvZg/eVKlEGGZd1oeg2Xag+jStCo+jiMrxHvzLv9o9qANn2Q6W1lIW7R66WfGigIPTxnmx66IPEy3ECoYXfCA7OZrjDD0JfZgKqpmMnhToP1PF+oMTcpuNWBPJAdo5WwKWiAQqD2S+JoZis17wNQSIOxPfTgMW+ZbvX5l0LZzBXOELs6TWbslhv4RKqbUn7cnGyEtscy5X8EQb/TM//OA/0RrDEWsSvlJBA3IuB/4uDQEo7kEA/Wy9/wAE2/44XJ+cGgcyt/BD/SS/D9UewHC6RwhukIIEhdVfSILZD/xQFQP0x4hLTALbqHV9ZQW0+JhE/UKoNqYB39VErW2IlfwxQwm4oOLGJSQJ7/mKwllRpCYlDu/Wh3k7jbLTWlGO2Clw88jxbFbyxZjhWCMrftKUR+JsinxE3Z+oAA5GKdIKut4gf44/6GYrghMH8RrWvWCqobAkGd0xCUN2gBYDJR0KSqSWN5MxXLOe7POj3JcbvuNgzBhlX2RDb9zOGgh57oLIHaxuaP3O0RGovM5xXbHkgDTRzJi3jG7XhMcinhHpRvaH3KihtvcCaWBpQ9y9cD5i5gxRkRyAyR4h9wryfuJ8ZncPe5gAQliKqLWFJ1oR9C40k1YkdRWPb0/xdf0IsC5gfZKiQ+lrF99OtUn8CO/dw3mNOIfk6VdJe0Vg96Vo94aXFiq7pgvWPGVaj2hpzTGEvO/QkI9GwlRcVUdmITGiHzdMStBfvP4iKsyLGAHTHEN0s7GAYLEyhwgKIiU6iHUsD2/mURiIBvYMwkwcks4JZq33jbIp1FtwmDA+p4iETjlgeieKPQRCtoV80p1PCiOxMeyCHz/gniT/AJ0/5Uatn1A2uSp4o9aW8Kgbsjgjl/M8UsdkB4RU2Q6qMyHohsoYdaoBwQH3UBl6SiUaFSvlrAIDNSsqZEP/AIXNkalQiypABEQHUreDP4ZRN4CAMBU6n2zSjV37K/qcRNCp9HSNQpY1NixiJWgAxIFFRoyiEffS72P/AIrvKXM9H8xNno2R4OglaftyvnGf0XcHRdLXgqbKQwhQ2PUd7hW/dn7uhouIYHlNpsgA+fhIGjaPZq6WfsofmHrQW8EAW4CBVxL1EQXe4L0TZ6qV+zFTjf3eYno5l2IF946L5l6b/JDCwXHN4YHtg9JEU3Ik/HEKZzBuYlSx8H8xQwBlhU0R8uILYK18r0ey2yjwZITOmyUwO0NXaUvOYY1KJPoBtqEY/rfxLizJcvERd7f2YmJcYR/UxKQkWsysczfLvvJcrAGWRlJ+fOIsRYW4lM7gNAlwmIs2+hO0YfhjYGLUai3FRe6I3ww0IXDP4rF8QV3m5NopxUaBiWRI3hl4j6FsGMbgSoTaflZQOwNF36n1l34ODW47RWvkI6C0dwN3yx/1OYErQHTBCrnGuNlQQDzC7VlKUdOtb0/ByrvhOl6QAANGbZh1Iq9iLuxZSX5LmPJTC61iahMLzWhX4vQdovrg2YNPIIM3hV3ZiRn0Voar748BqYadIHOdXT7UwhCp2mlR5/0zCti3HmbzrppukGaoWNUQhxhQ2Zm38oW0QarDLtu/QM3v7ZjvBjGjDSsZbGOIphHr8P4EWDcdtGx/e8XVn33AoiCOUnJZ5g3mA+/mXsaAbpZsTZFsPZGWhvMU/DgNGty0Snoi4gb/AHgYZdkqnReuLPbhoxyMHxCVKj7RtrE2rAMPbV17LM7t6hpUTET+ruF6XGGs3DM/Agw3jo6Om2fvBoujC3kiuF6sKg6S9avc3FjwEGXBFG1l8ykfJ92UhwqUW9yfRd+5gGhIRUVORcH+TXZ7bDjTnTeidVqPBejdpeHZoEx8kuq4n2hiZh2fNtuJ9nRuIYwfEoMY6KveQ2hDDely7lxfUiuKhqErDY3055ZhlgyvjCEitKtElFoN+WKk8pc94mzRm97OuNGP+5zFg6NiW3bzgQQJshXxUrMq5aStg6/zKm7okBI7RtnzcyoznPDCZ96Xq7TYw/YNaQJX20+pRrSoBNlxqN5hvGXpVD3h4Ul6Nwfan0em0WLB7upi5iK/LHcNp8TqfvQ5dDUsnsl6VFm48MzplMCVoOlxm9LARmAu8e2iJAgYMFzcgQL2R2TtleMYaQhu0saZyVFydcqcBuLKKTPJQnD4AN7gzfW6U3GXLFePR+4f9c/uYNzl87uECBps8kVYQmWHe+5XyhINcjCot6Z2yJrywhgsnDL8x5ze2gCpVlw/6SeR+J/y5cbfSYiUYPNDz/Uu7+pZ3Kzuqqe9CR7WXcsQTAzlMYAssWRGUCF3EWpZgMLjxdDAs5ckTiypUOBhwUY2WKGTKqBiAC2WJ4YBuY7dIW7YgA3aCChtqGMpHryqsMyhthZRkx6EH2Erg05MXolp05qZER3MyQMPwDJDozxpVuYxBhDIhZZCmHA+6WbNmt5UKKXiS0HvHerKpLEAKgTBszdAhpLOZwyHeFS4Gs71oMnIQU7wwV4LOzK94Gvf6lCZiqrglNtuY13mCO79TPzLu5nni4ct/Ur7jwCrfE7L+oXF7dQaF26ixu2YMXXtP6iWd/Ude4uLzEuWJmGOQXOqCznXKpy39Js1xkZyQTWIb/hjiop7TZoYAd4d7YQStbSje5uYfqOxVvaIILW4lzi1efmFtSprP1O0fQaZqY+mWPmTb9AxL/G1IzUZyI43BQ03CkPYhV2d2bZxP6OoRMTiijSolw7q5JRNpUo0/BCr8SpRoRNpmKhiiUR6oBDozxQ6J4ojonyPE+Jt4Txo9acK3ZZuItx1biOBkQarE8SKWMt2QyrDVmY8sIbYgv2Tw44g2lyhBPHmH/BoGc1wSnoOJyQA/wDKJqDwmWWm+LbnRMpBPaDMRZPWm2y8OJ7SYwbA+iCmYdBJzBpDj4OHusK0pqzVXUKAFu/IEOvFbmVhjBuMo43S8ytMwPH5RXhHr/UpNsW9FYnhTwZk2gPCU2CghRs+pwojQlSh2MeI+otqP90IjK0jwiIOyG4t4CLZLVsTxZ4Exy2ZkY2JXqp3Wim4gSCOE31DoJ3CPRi+8v5oQ3QQr2R6ELdkM1coHvE7QnjJ4ER4EBCirwPULogEmDaHZcMO3CwNlTwQ6EvR0ZuxX7jWtAVvZSbDQ02TNtZMMY3mqxdUb5YihA+2SZtdHRONDZ90rTjT89d6OvmQ2l6v6PTdkNe6HQi4l8kH0F96IaXMR4zuBxqsz1O0FhukBgUS5aRleJLm0gKWqzK32L9CRvDKK+NdtPvJ++hJuO5VokEekJUTEyfin6VlQNGfpn4w04gS572E+L/E3lRCGFy9K+vSMIYgaOEVRty7qEIxLIaE7+o2HtoVpc2Mq+704izGYLX3JUpgaYe4lz2yXenMdonwLUNMfdTFdEBSGZn1KvaY7+QdF0YlXWkw02TH0YZvuoLWN9mIhYr25m2DQWpse7K1dvVpv2Opp+Zn5tbiWRlfikTVn43oSOy9tHVlPOdV0YSG3o6HhDVbcJUVwn5z0fvRGANGLHV24/y9CohL/wBB9GyLH1/MmYabIOWBK0Zf538ery+dEqUytLLxD+NC9OJuRvSYE2NGbXHEVunlB0XMPMb4rx3ikvMrQr/GhcLm8OIV9zAp0ZxmVBxsw2hLJiCqe0z9pomjtFXub+9SKR5vKK17Ijovn0MJuT93W9BZdmbI6LHaK170pL0f05Xo2s5hsvoZX0VgWvjDb0BfaZ+L0XEEikdFxH9SGtxYfLUjF6b8eGtkvaCwS9dzzeYewa1B96bnvRUSKl7RiPLpUqbcyq+yXXmbIube/wCBoaO0/OubIxI7S+Hf8qWHoqK5qHaeGrFFlxp40bmTzE2ejcxxKuHbovR5ih7mpvp8Qjx9kYv4S5emybTpaZuWRTPuphNp8QjqKjR0StOZiB/XzOo6WRmXa2lM5leh0x9qKgJnicv4pe6je24DeKI5SmFRclaQyf4YuwcRBa43wAgckFOzFqpGyJDKht/nES/wif8A4TDxlIKaXab59M8UKLBfExXX0lBRrBIj2zwfSdwwf/SMAcCVC7j3v1BuWJIK5gyW2L4LCeSG0jBcLmLRULTYlv8ApBwxp2m/jFQrfHi4SbWMCymCcY1bYqA1bMevKdzDoxq2RJGwu5T2R6cOnB9jMogzlOay3YxTaHix0AZTWJwUg/HQCFJhK0kaYn/Qh/so1wcI5I8nJOEzo+6OxWUNkB1BFh1PuPeSrcEJwh0Esniz/rQXaRG0leVE4yq7gpYJ402FJUJuXtCgwl2wn/aj1PuDUGTHhhDoR6U/70YBrKq4dI2JwUngfcS3B8yntiReIFd1g2wZ4f3HoxwHlhxyIwp7oJ/7TChdQq2XbKf/AEljtgZtipiVVCAUgtFJ3idZmPZGFe8ENbDMLNn3KeH3K3bOCw+mwNYHEF5g/GPUljshTazyw26Q7SbvL4Qxl4h3THsldqJYkSNaxjfF7MwXSY7BPCqLMFqIAKpIQq4F5JRw9X5JQPd0oiFwCUNnGAqYlF7SjqACBmTUo6lSkGOz/LKOoh1N1j3jVEwFQFPd/mIQBxKGwSnUIdOodBM+xECHg4TxkeqHXPCSzKbQDDxPETxNCetDJRvL+COWhEeiNpjCs2Jwnj/UK5VyaEkGjl/mLcJktMJD04MhpGyC8Y9GeDKNhCGFXVncWeFK+MOhK+RX+UtNsOQzx4w1djRAqptCy6RfhXU8fEbzYmZZTAU4o74SzBWbkV3/AExYKxu7ioEcSK0lKX8zHWyfkqXbxXAhG5TAfUUXA4EHKYqVW22YMWDEv9m0/rZj2fuNW7d5gjiC2loCQNcMU3n7lV4j4YY28iKbw8Kl1f5RrMOIuDFEClsXi4paykBil2jnlIhHHhBqgC95SXdECzHoYJwywzFO1JwgAZg2Yd6OO7+5bwxON41EtivKHe+2Fw1n3lFxEHgpy0z/AFIDMG77gCcjFq3+5f3KdoFBgM1HvnJLZsYfuPp/KbW/3KuBI60inLHoWWuX7QaXi28S+ckGB2PcKKztUboz6cU8TY930BCKfGbHo2xft6Uns9HaKL3OY+rQXGkawz+X/Po4h48s/MvVAbhNwQv0Ye3EV4Qdds3yJcnbUtVuy4s/joOil/dlK3gNPckJ/KhdhvrXdEITC07plOEQYNYENtCTAv8AZYDK1dP4gr2tHTD3kGIFeoVAycQiN0UqW+z+YjzSNQbjo8bx2IN9W9ECz+NARUoldpbSF2DpUTE2Pn/XUxbGtrlteF+oVLjHdJACNgVPwobe7EETZiBtFxvHa/1RFuqYAij64umxkdkd+aEXuxuxKs/iM7QjsupRXtM2iQgzYy8lml6OkfEGMojUJtgx702laEoey6Z1/Xgv2Hoblk+NnzoY9tElirtOlwRnz6zZeNC1rc/N9OZH9qY9A3H/AEgy4STei4xE0FXhZsbbsZgUiV1+oxU6Fg5mI3IE0QpsFxiw2PM50Up7IStfxs/PCDLgM7wSh2W6JngLR4PHQ0ZhqxTM3C4qVXKpZFBawpGnpl8G9MHYMG0rqCmMiu8bu1nEFqb7S5YtqMvEuIXJaHuaCNj0Vfi/mZ+yaExP34E2zR7EZzBsrZjTTGS3hAlFXipvfEt0sN4B7MJLgj7zBAN7v2MEzLDSGgBzcxF7CKyxTTCVGdLi/XUgcAzEBGxb5fxVDbmrtDdgs1DJKAlbZqD4IIyoiH0jHhosUC43nihQ30LncCAMMMECE9v4qA7wWvERX8QYAhDl7MqHWIwGO83J+BMOhIEGE7/lBj7aAabIsvdpTDeXKb0DW9Ev8BqjpsscYw9tHeIJtn4iQPRzoTH2Ir9FUP0fTvTg6XpaU+6EF3YLY0yWXY9VEeb2Tz9lMR/TMU7tZBlZsh98EUHeyBiioy+gugnM+BaWmijNQAAoEh6FXuIfo0WXKC7mIJS3niWL2NDMvawNTYdkNbKpuFSQr30PcjB6whI6uEBtp24XFsKpUVtlkAD3KoqI988y+Kq2MNgOf5IbEqXodnqUwvD0WB2lCqzhmYV7mELQGBKSV+CXQwRikIDsEFklXf8AMfcepjm+gGFxQnthZc6iYf1suqIMQ7Cs5hq7L39SrZy7hjCCgRQ5avwYUFx3wu/llxcoBPGoJ/UEGGtoPsTKYO0AAo0IL9hivVdB9aGiQ2hH3CHGfGrojPkaFzbSj4xhL19wEv8AB6GK8Mhx6PjT8Gh6DX9qGBIl4mxh9zxZ/wBadJjWu6gPcx6cOp9ynf7pwBDRAKkOnP8ArSvhLNvuiqn3Q6ESI1OGIagWskoCqVN0o/5I15hmErpDNJQipmIKkKTZBUQ3MahOzFcCyvtG0IdPLoePO2AgHaBScQ/2k/6kQ/8ASZwniBtkb5nZCqpuWJYoHrKYvkgWwFLhcYH3EjRtUFkjL/rRq/zRd6PKHYRDpzNX7SjhMIMWZ/t08GdyTxo3mpvplLEvCj054Uoo3ZU2HMIPkE8aZdkoBtTFS6Bgh3E8SeBHYemGBQlnJPITxJkTww6CmFIjsle4hyQ+xBHULwhVuabhpKG83SZGfaCdyyKRSETo2SWdyw5lkpV5aTAHpL23LINzbUoQ0OYHuWdy5mr2zgO5SoMpCV5JDToiRfMUlefCQEKeZ5JcUr7JSuZxLlJiO0Rau4sHQwy5gj6GDeUV7eiwjUWC7hLxGMUjNDQyyXH0/niZkikHUngw5CyqyLtwzlIw06WPMD0XTqE3gzHVYBeMMA3Iw6cWnqm7eDDFjGYeil7BAinhzHVYqQHUnhzwZy/NAVkRDozx54sWR3kO6AgiWpllskLOPYibi6QTwIiCaqGMcwwCotvNpmcFSDHHRs4jwyy0bRSD5IdU8D9wFxAW9oQihpUMmIFxPCzftZ3zD6c0S+rjwsXKR+4vw/cYI2qDCmY+SKVb9o4c/aJ43ZivNgs/uZ/czcPsiF5gpGxmmBux8wLn7QQvdvHKNHNveBGVVzDi+yNn+WO2fGxAP5YzkyhXUz5+yZNfZBnf7Sor7YG4tD+s8V7MpG92ygoSeYiNWL3OcxX9R/2EGSqfeU2nu/zy1c1yyw7heGWv/JMUWwO8RbsmOX2w7yYcNM4AQVwCiUGIi6rXMMcHGsgFPbEbturuxml7YqYZV5lSyMT5VEleA3PAQ7U6ylDf7Mu933ibCMbQ3SR24p3R5HUapXKSzIyclThSHveX827geyhJtTRZy5tEKawqV7Q2jv7nCx4kWLkBGJVXsj147ZFOkwKVssKgY5YM8eN6nUstKtLi6/ToEx9xoujGVeE4hCtHmvBK+YGxJguncMF7ujGUHpb/AGJwehnxMzfhJZrtYmw8axejfj6Go6IxYzHzXES5cuK369M8P7ZhhLl6ZfD/ADNo6WkuP78/Gl65l4Y79v0Yr2l/t/mXDTZFz7xUICUjgw3PiCU3lm2ZYGO0+ZgNR0BMaET8T8SM2ShSKm8NLUDF0XFf2tCNwKiCJl7yWz9QjLjVQ+OsuXacRUDwlgz1Ku8xGoMiPO+2EvOnEND2RmEuoxV72PLXEXEuFR2i0CpSVmKvgmxKm/rflir2tL1pGem/a9XdejMvEwPUixOzrHTZ4mENfySmH0OiUv3oa8R2fQ9JXohiKn94SpRKlUfKExqj35bPQbp8QV7EvRJyu0/M9Cp+0w0joj4mOQ36LMGAKjE31LAkKkpgEJcxgEcIzeVpyv2iPiIzaWKvp+gVY0ubyZJmEd7iq/Zj/aDo1KVH9JCoAaNwH2RBwgsFpkTAHe2XFO4GEL9ZxDX9qfgjMaO0VwnS04hcI9rNkDEILD0r6phAm2qKOWTU0P2YvobGej803eox2jv23oWfxoJpen4Gfkmdds2vzgy4aPlxWXoaYeiZufeDqz9jL0Xoqf8AvcH0fv8A5Q2PRhb3n5Wly4QnS0wZejBOhZ3N7fcFEWGhvfg+RjmIGAjtC3+P0RcRpRIncWJdLlC+UIRyAOjeZjGARX4ZaSvEt00EMBuP3Lg7Swu5YxUMMndSobYtqbS8xI3Bp+bRKmZiGjzMon2lGjKUwUr7ZxrDcVIvmKzSozFulPxak2QfGBqmgYVqI6fPoNNhBXsarFIjNW8PCWS4MZUJ9z6OJhPYQDLNPzMX1SzW8QCvmBNCxBBWQJ2aWSl7z6KDBHcuWBvChgV1doPaWd6RpzMbSmAdyncB3HsIN87wDsngSnhFdhN04zDsIdxPMR7iBzbLcLdkRe5AdweoxBjbApdwEo86YEeT+YTR1pZKQ3bUYpqxBzctBA7mJZGcW6I2xsq+pcsuEwUeKd2hgS8Rf3GJRhRgdB+/GXFzjbDUJp3PIUIN9kZdEqsWLI5NbxaDTZEVuGpeBNo673OJ7oMyJQ2Zy2Id6GIX9/5g4zHxFYojfiQJwmjKUWVAYsdo6XtLt/OjK8xomXsMWJerC+LPZ0WEGJ8jENHTb7E2RntqN5i5en4ZjhInsfqMxR/4hzfmFFdt0wp3wAzGa7+0bt8aqUkaIikTyIsyR3+6HdmdtukzqqXGCmWTfJhbSuYYXYhB7PuiNvtmL/PLmLFo9p7BvmX/AN8Gf+8vJ1nbA3DiOI/9MrzGyoO+r8QlwVj8Ms/9If7OWn+edKl4Vww0zN/kn/ciBuj3hAuGN5fssUrP2gWz9pyCXllZzBuqLf7McI97mRL5uLIvJL+WLcsa933KsXqZoUq4do7uNt/pP9mjbZ9kMUt0jsvsgjP2QhAKMPc/MIt2BvmGNyaCn/bAP/aBs42EYFhzLET75ax/aZLmC7bVix3SsOHZlS5h7ZbD+sWgA/McRf8AMrqwX7wwuwRQ/ZMG3++MK8VLAnM3+8eeR/vICEfxBEzITlYuk1doAaZUN7K5lCWqtLxiHFJchA27mMXFpb0ikcKlPalm6jhZjVzDWxEpMhwIVYbDEwBvaVMUR17lwlIr6okCt8RKDgtKWKRCoSKbwDxC3kWzJFglYIuukTzJfvMspQV2EQGafLGhVUt4Rr6NKmqpi/kQrLEL8j3ucERRGsAoAqBzytHNakoewSPNc95UyXsPIztWELufqdsmfdC/Klt2yCXZjUOQZ4KGwqV7+s34JermUo8uhrsm+7UuYow+DLTa2+4wD6uI8HlK0Jc/JHcs3qsBc8Otp2s31v8AXDaKG8GUs944F6nIhihBKqWGmyfpa1AS9M4iIfZ0RuJ1lxZubSaMy7wiBaL0RLIIDW8IJFI7RxbRy1sUw2QON9aj54fwTEePsg4e0QQb0qi7Xga8MdutJ7MQFrLIDDEMqW3ePoQHpl+TNLilZqtFCDwiG5/7IZ04JTEUa66LH5/xKrQNKnOA/mfglYhK1VACm7dAfrTLLDMrQX7+BghFGgpTtLHsaWJUSoL9porMo0LWXGG0LSjRbCxKgVoTZpYaAZUoYOUAv4JUqV4iHUGOcTF7SjqUQfUlKICI4lehgxSu+jM4XbL0NNkwyc9K2OyIeDEd0jLg5RHT8Wv6mR48seWktSiG8dLTXoSrsRBFDuBkoPuOXH4SIuMqEYggKE7IoDBBVxTNiGQQLhe3uRxkJG06gL7Y8sDlDUnc86F6YEuo76oqqZ2G5tFWxBZLKarG0fEwDm3qFQMriUyCoEXmCKq2iBVbW3iJKu2GEyjrcS/y1SMSMVB2picw0deUIQ2eRjM7bj5hMU9v5h+RN4bacXvBeENkJON4to1dWcx1ZsLYVlFqlprSz6YJraURVE9PRCsMxUFuqF221gFvLF7otlBw6Ia3vUaEYQAOJ5hYEaC4ubgCk7qay6nOh3/UxBQcQdN34v5hr2UqxJam6XEKWsHhhopPM3+8wlRPEqY2dqmzWph76cr0IIwG3wQ1qbfbl6L1ZtfaVpG4uYSpkTtC9LYMP1TA/HoZZJeIN4dG5kfWlVxPS6ceYF4eh2Y989BjAzN336Ea4sRA2tKJDn7jCoMq1Mj4xDr3b64Elafmm91AW6HFJOU2liVhsPMV47oMKMG/mHSyEDH1UOEIAAgxDYPEx7BtEbNupVby7QbJtB2It1WSneYQdgxptmz8o6G0paOYRGRRoUUFuIS/4mEA3jxYQIRC35hovWic3y/seBTqS7O6NLTNuljLihN0w4jQhgO5Vlxj0Yv7lHuohiwWe+SIUyAHtEw15VZDawHWSpUCMfeComIJ3aioNRkmfz/zCFXEMhwURxBMD0lNrL+aTIWVnRuWsP1BArXLeJCHP24DrhlvnJSo6aKEC4vMc6aewiBMXosdloOYTiD7keQ6Ms6mIxwQWnhpvK0+wZSjTbTNezLm0YVWJaKS8TN6/mn5yFR0bqWWdpVwKhFxKoeX5ovRdbl6Gx7J+ZOIMY7T+fLhpcyUx+aXFLNe4KwYS5jqXrTDh9SoEN3eY0p8TGUnWlze4vabgGNhRtxw4KzswAA2lhQJzndJpKYFoLjUf0M/JAKwOrymEZZZBO9DMHiXcsTRZbj5SgwQLGilQVIc40gu20rRMu8WJWIfvRmHQahfTDMSONDVS2F1fZCYZZKp0Qg/CGlwKztCf4wXZDAIHwTFR17TBQhsMvEUJh2YgIUsMR0dog4mWCc7yoyp5f4JYxNoQjpjeivlm1dQGly3CRFK94D5imjP3oNkGE2mB8MIIdioaczbOQcQOqw2ZcZsNL0OfswBD2jpsjC1SjVVKr7WlwFjEPoZ2m/9k4NCUMJi9DRVNwHETZCxJhDwXuheJ5c64WGIHfizcfMw2xbF3/1P7GWF74PuCKaipYwYE/60OeDbiScB7QpSJ5maC7CI9ZvlLrSzKbABpElW/wAcP9ZLtvqmRR4R4vxFOvxAzP4ixQoEWLdslSxJFuym5n9RtM5WpaY4zLbQ+nRnm+Gby7ELP8un7h+8DKWhZF4X/vjV/njO33y1fzsah2mL4H5n97CMr/6xALLXdiOf3n/UjLtG88UZknePCMyRKakPN/iM7dXzGGkt0nTEFj1RXVFtPiYcVkJJXPPM9qKXMbgUl1CFBZNu5vGMTdiPMyzicOD2EWUOA2V7iXuuqvlIvn9TLFe34gBm/wAQI8VvwxDgfU5D5CU/8UOb6pi4qqo6iO0Ae7QW8MUMcyaFXUq2wg23gThFAUVDuJBPnbhU4U7ZcEl/tmJtoi1MK4z4cM1yLi0WJaFQ0meoEZ30y5ii5G6SjkmXBBO31xRz/EayrPJCk6Gfxn++J/y5Y12OpUjA6f4n/On9hF+Pox3DWEobMxXn6mfC/Ubt36gJcIldp5ZRustTf6lKWkrazvg5Yt4SyVOuGAgMZ5R4zvCGmdaMgX8JTqYONKm6rhlCQBACDKoxD7z/ADpicUIqZEQj8PqBpZMM4xwwfUlaqolE3jjd1tlaWBmLpLrp+xDDEOQS+fX7jkUBHg+aGu2O285cIvCEv01waMB6FQXB8qEuW0PqJgsA7MvB5S86soHtS5cJ8x17GGy2CUtnLq4RopdMHjk/mbUvSyb/AM42LMJatMzuc5X2DpcYdt5YfE3lgbGyVKBP1YNM30Yl6j+VhTRjlKP6mIBADRGER1NwuMAgxpgNRh5M8ynAc3xcPpGMXuxOTSvAmUQ6iE5EK/wzJ9oKmGPIQFbQB7CASjqUOIiF8OBAQHUCbRPUK1nEOB0k8Eo4iKyECGFdwh0o9KeMmPGY/icVY9KePPCh1hyl+UaDwohsIZjZGYdlTw5ni/cMHS2MJuz86XpnQH2W4aIRqNE6GI0bTfCAg5NSqgBylcEn7cXUSL1Y9MzCEJ4YtM0jhUbVZjeAFkP0JT0Z4JuQOzGIG3AJKKnKocUas3A3FtoGKxsh8zusQFTc9iW0Dm8S2betXZL3axtGF3LQ3wHHVoVramIqs2jOWZkB3QVRxWJ2z4gUhFD2EZ6CgUDYuJOZUZ8EsLQV6WqbV4pspJUFDWIL2uJUdOv6MFBKlSopHcIsFvCCkEpXi8xLgz4jmrlEf142sywNEKoRWcmZR26RSGG26lgoYgFcllBsyTCZTcy57iMALUSJF9wNCXFEOPoIYGNONKcujHgW0ryiKAziErYsCnAg3fm8A0bkbZm15S6PMWLiG0RheEcG44izb7cGCBoy/wA6WpCXDa6i4jzGbxquKnW9kdioMuUR94m/+ly3RpMQfWw02JbA9Fxwz9k03lt6NB8MuXoTLJxHfvMTMCWwTdpg4ACMlsQIawM/EFRq7JaosVe1PxNLNmG8bDmUzC7vM9ltkKlUy9peSqFtQdjCiLSt2DzL5KqnFVkURnMvTNKTacBj0WtFrg3ite/Rj1BjmFIVtGjnAQ+NyhGwTrzCHBsY5GemqJxK1W8IhOlAIAb2r0DE2nbAoEqVDXs4kwq2SOAcE2CSXUvpbzNHoKoGCCAnSJbkVIMjMo3gwEMpi2n2jdouUVNSZi4NbsSjy0YhcGorGPeE/svqQAKlwLts8ENHDCxckPapu3VBRyhAWKNu/pc2QlxEru5/xQNKCJA+N/MVtW4RT8IsESDGInu6XPMA7xjCsoJZUWN5lKLeFHR+ixEm0KwIXLmMV2gD5Em30OvdTe+ImLFZMBBD9lQY7x6MKbo93kgUIrnUupQYlK9v6zrWsSjOuXZFYSoy86XM2pQ9s12xLjWDhQ0GMq9hm723nE3piwrzmArJi0d/wRhsWlf/ACsw6BC1oAXylj2EDQKhZBFMgLb4FfMqHEJzN4z2WXLmNKfDMPZaXpuSvz5eiifxO02mcS8MhZWlaK4GgxjHoyrDTAVuGC+30CXGqYLbpYVCpUqfpI3m6BANiBcAPylKmUfi4xa+DXEZ3Qr9hHaZGLbp4ifWzhbGaiLTjEMI0WMQ47Yrj0wjBHeAUC5tgAeUBnGrWkNBMiBzEZ+2MSDow3XwroBBjQQX8U/G0FMWjWYDiAJIDKiRtBaL2UohApARFmHBlDCTeCIkVudIDCiDpunbXeMPeTtcaJpgbTay2CcYM5iQlxYnZIbDiXaKgguVTM07f5QCvRgMrhN4aXoy4w+ojA2l0ktzHrvmO1WVtSpg4xOGPbCzZDIO2IuHLDf026qX1H3cqxwQ/wCKIbfiXv8A4hbQP1KjOVMsFDYm4fnBEEGP/HAJAB02bR34DSwG97wTkfMY6Exhs0jv/wAo7XyXP/fjnXEjBGnmCjJODD5XiNxlAAftOF9Ea/8AFLv/ACjuJqAsRstlvE+CbeP1N3/Cf3hO9uRG3DPibeX0j2vone34iN3amKLqGOpHLBJVlXlWrT1FdpAbOHagbm3ioQbqQ8M2aj+kh/yk3wrzjmB2glUDAGVG/GPtKeP1Fg/xlpgDJBVDbmOKz9RUaCbN+qCvCNEIVAUMVAtheyAf+Uz/AOGZsi3EAQEsJgwfqV/oxK5+iVV/DFqgRD5ZZf8AFDlUeCLJpcUgfjOIuyONajaalyPwyzIZUTv9+5/6HN2I94MMhVFjMMCqVBOV9zkSLkgKzjwzavwrA4XuJJkPiAP8UwQGxUMVg+JW1/CJ/wBI7Nv1B0towut5alu34g9XX4gsUmobm4JZHUnzDnMwXSCoPOBCySszC0wk3a+6GBLraCyioMFFfct4Sjgy6z9pa2ME6jPBgu5I7P7RZUwWM2bqdIh1Ii1WJqFgwqhPITDvE9y6K7FAEOwlO5Ztcvqly5dy4rCNHlg13TwwphXllRiCn2UzHVZ2ScJlTaIwoNol0XbUF3OhBBX1Rz4Ss0VUFe08D6gWw0ARBeYQCU6ldCAraHB4NFSiUQk9GqTMdFwnwIGI6b0/oO9GU2iXPzIjXo4h0h0MRV/a9DRjwQEN9VZ4r/DDIaXpRXv+BCCXLjIifCnMWJP3Z+PptFi9m0+ooe8upvoQZgMzCBNkoib2v6QEuWE4lYcy3zRipVwiiP8AKMcHEohoq4AJvBA6I9RDpJTwQBSYtuV0inBMdImPZMF8OSKVGxMI0nDSPWiBtubIVjEK9sE4Q68v3EaoczcJWmggG31RCBdowNpnUN6Q6pimDobURSiHai4MTqMKIbmDwCYFtf3Gwyxgg7MSjuxrqAKi+49ibJIbSpfiUrH3TdMrRNTaCwgy7lx184vpIpAlxiiflHALiIsaS9EzOnBGXCFpjLp2gy4LuqVU8dVHaP6TRASxCErkbjeo/sT8jS9HiJQOUxS8TFxcRq1hYKMsm6RDymXDEtGC1ulM6VEUlPj0YINkuUQvgzBNlytHX9vM3w2jFn2WSj7aXTiZJc+zy/tEgxYz7DaY28GLFROILJVH4fpiQqMcRlFkEQaJiKVMfchvEzWlkIt5J+aEbg+Yu0NB84aMfKV+8/iIVmXcrdRYD7TC9nEBtEmeJdDKvwS4tAIm+9JsaKRj+uZ09QiCWQNNQJZwIsEmKjFhnYQ0ogvPymTdxU3zLGYmPoBZeZbLnMu4V3xX7ZFJhGLuXjtBLljGLD7S8jKbO8YpFEFtBBdEx/jMaDFmPxaWSsZJVSxETeMuOmriYew0zosSrfbKDDaMXEvedkrBMmBWgB2phKgzFJDo5y5cNHAvS+IQLh2iSDGHdHMRiA70WcXeEPttLLnM/Ri+tFqFtyNHQJy/iXc2gRNsVSUe5SxEBMpabEzTuJGzLiyswbvcAqDFdGHu/wApj7UUuO2hh7xeLCMedAaSbsqmp4okIim82ielRKVBtu5eZeNsfEXFzgwRmQRibnjMJl3KjN91FWGXFbEttiWS2Z4KnEfOj2TI+rkeJxFzLtiM3U5kIONAzjRNib6bwdLl3GK3mM+AlxdoVApG/nQ99LiXmFpmDlQMk4lpN69JFTWhhgzFq5RqfUuDLI7RHzE50xHRiV5jFjofEFe0geY6bIKDzgNwcRZtiKfJMQcwYLlCfaVLjtN/G4sHQocvs+5TKxpUyJ00GViOYSrbUihM3ZLxN5RHsn4UMwDOh5OUpi6m8EqfXMzz9/zBjEb4hfMQqbkYBjRb2iRhl3CDqFwPzwDVQRhtBkrk/mfQQQ4lzMjh+UpKmWMVM/E3AfUDMp0p86FUdEoBojhW4Lra+GC4CN1tL34RtQEgyAgBjuj7n4ozaNkDcxgpu/8ABp7tCRvkZSTCJF6i+iYj4l3CIwxMPOghpUPeMNob/MN5tm/Pzv4hse0JsjvP1tXLo2vtouob6v4x1DU/S0Q3JyaO2m6jo2E/Sw29LvyobaOtD9CHEI6H7jTknE2E3tDtoOYb44aG0d/RhxOSbpbGG03E4z8CbNY2n4p+BCco7aN+OMIzaz+aGzNkN4/FNmhJ3NmjOJvYbx20BzhtGPHoFHiM4e8/Q0cs/wAY7Gl5TYw20/an5I8z/KbNH7ITYQ4nPzq0IYaL8k3zdobGgGn+Kbyfy4Q2Zt0/FNubn3m7Scvuz9mczucaf//Z;" vertex="1" parent="1">
                    <mxGeometry width="1388" height="657" as="geometry"/>
                </mxCell>
            </root>
        </mxGraphModel>
    </diagram>
</mxfile>